<svg width="58" height="58" viewBox="0 0 58 58" fill="none" xmlns="http://www.w3.org/2000/svg">
<path d="M29.0003 0.666748C13.6408 0.666748 0.666992 13.6406 0.666992 29.0001C0.666992 44.3596 13.6408 57.3334 29.0003 57.3334C44.3598 57.3334 57.3337 44.3596 57.3337 29.0001C57.3337 13.6406 44.3598 0.666748 29.0003 0.666748ZM29.0003 14.8334C33.8935 14.8334 37.5003 18.4374 37.5003 23.3334C37.5003 28.2294 33.8935 31.8334 29.0003 31.8334C24.11 31.8334 20.5003 28.2294 20.5003 23.3334C20.5003 18.4374 24.11 14.8334 29.0003 14.8334ZM14.5333 42.5207C17.0748 38.7807 21.3135 36.2874 26.167 36.2874H31.8337C36.69 36.2874 40.9258 38.7807 43.4673 42.5207C39.8463 46.3967 34.7095 48.8334 29.0003 48.8334C23.2912 48.8334 18.1543 46.3967 14.5333 42.5207Z" fill="#287CBC"/>
</svg>
