<svg width="24" height="24" viewBox="0 0 24 24" fill="none" xmlns="http://www.w3.org/2000/svg">
<path d="M12 3.56254C13.6688 3.56254 15.3001 4.05739 16.6876 4.98451C18.0752 5.91164 19.1566 7.22939 19.7952 8.77115C20.4338 10.3129 20.6009 12.0094 20.2754 13.6461C19.9498 15.2828 19.1462 16.7862 17.9662 17.9663C16.7862 19.1463 15.2828 19.9499 13.6461 20.2754C12.0094 20.601 10.3129 20.4339 8.77111 19.7953C7.22936 19.1567 5.9116 18.0752 4.98447 16.6877C4.05735 15.3001 3.5625 13.6688 3.5625 12C3.5625 11.6271 3.41434 11.2694 3.15062 11.0057C2.8869 10.7419 2.52921 10.5938 2.15625 10.5938C1.78329 10.5938 1.4256 10.7419 1.16188 11.0057C0.898158 11.2694 0.75 11.6271 0.75 12C0.750254 14.5243 1.59945 16.9751 3.16102 18.9584C4.72259 20.9417 6.90579 22.3422 9.35955 22.9347C11.8133 23.5271 14.395 23.2771 16.6895 22.2249C18.984 21.1727 20.858 19.3793 22.01 17.1333C23.1621 14.8873 23.5253 12.319 23.0412 9.84161C22.5572 7.36419 21.254 5.12155 19.3412 3.47432C17.4285 1.8271 15.0174 0.871017 12.4955 0.759826C9.97373 0.648636 7.48779 1.3888 5.4375 2.86129V2.15629C5.4375 1.78333 5.28934 1.42564 5.02562 1.16192C4.7619 0.898195 4.40421 0.750037 4.03125 0.750037C3.65829 0.750037 3.3006 0.898195 3.03688 1.16192C2.77316 1.42564 2.625 1.78333 2.625 2.15629V6.84379C2.625 7.62004 3.255 8.25004 4.03125 8.25004H6.84375C7.21671 8.25004 7.5744 8.10188 7.83812 7.83816C8.10184 7.57443 8.25 7.21675 8.25 6.84379C8.25 6.47083 8.10184 6.11314 7.83812 5.84942C7.5744 5.58569 7.21671 5.43754 6.84375 5.43754H6.69562C8.19566 4.2214 10.0689 3.55924 12 3.56254ZM12.9375 7.78129C12.9375 7.40833 12.7893 7.05064 12.5256 6.78692C12.2619 6.5232 11.9042 6.37504 11.5312 6.37504C11.1583 6.37504 10.8006 6.5232 10.5369 6.78692C10.2732 7.05064 10.125 7.40833 10.125 7.78129V12.4688C10.125 13.245 10.755 13.875 11.5312 13.875H14.3437C14.7167 13.875 15.0744 13.7269 15.3381 13.4632C15.6018 13.1994 15.75 12.8417 15.75 12.4688C15.75 12.0958 15.6018 11.7381 15.3381 11.4744C15.0744 11.2107 14.7167 11.0625 14.3437 11.0625H12.9375V7.78129Z" fill="#287CBC"/>
</svg>
