<svg width="18" height="17" viewBox="0 0 18 17" fill="none" xmlns="http://www.w3.org/2000/svg">
<path d="M16.5 8.83333H17.5H16.5ZM15.6332 2.94713L16.622 3.09617L15.6332 2.94713ZM13.1138 5.46649L13.2628 6.45532L13.1138 5.46649ZM11.634 11.6667L12.5 11.1667L11.634 11.6667ZM12 12.0327L11.5 12.8987L12 12.0327ZM11.634 9.33333L10.7679 8.83333L11.634 9.33333ZM12 8.96731L11.5 8.10128L12 8.96731ZM16.2071 5.79289L16.9142 5.08579L16.2071 5.79289ZM14.5 15.5V16.5V15.5ZM16.2071 15.2071L16.9142 15.9142L16.2071 15.2071ZM5.50001 15.5V16.5V15.5ZM2.08579 14.9142L1.37868 15.6213L2.08579 14.9142ZM15.2412 1.33892L15.0921 2.32775L15.2412 1.33892ZM15.6611 1.75881L16.6499 1.60977L15.6611 1.75881ZM3.58334 2.33333L15.0714 2.33333V0.333334L3.58334 0.333334V2.33333ZM5.50001 16.5L14.5 16.5V14.5L5.50001 14.5V16.5ZM0.500006 3.41667L0.500006 11.5L2.50001 11.5L2.50001 3.41667H0.500006ZM14.5 4.5L3.58334 4.5V6.5L14.5 6.5V4.5ZM15.5 12.1667V13.5L17.5 13.5L17.5 12.1667H15.5ZM15.5 7.5V8.83333H17.5L17.5 7.5H15.5ZM13.1667 13.1667H16.5V11.1667H13.1667V13.1667ZM15.5 8.83333L15.5 12.1667H17.5L17.5 8.83333H15.5ZM16.5 7.83333L13.1667 7.83333L13.1667 9.83333H16.5V7.83333ZM12.0952 4.5H11.5V6.5H12.0952V4.5ZM14.6667 1.92857C14.6667 2.49578 14.6639 2.66856 14.6443 2.79808L16.622 3.09617C16.6695 2.78108 16.6667 2.42303 16.6667 1.92857H14.6667ZM12.0952 6.5C12.5897 6.5 12.9477 6.50282 13.2628 6.45532L12.9648 4.47766C12.8352 4.49718 12.6624 4.5 12.0952 4.5V6.5ZM14.6443 2.79808C14.5135 3.66578 13.8324 4.34688 12.9648 4.47766L13.2628 6.45532C14.9982 6.19376 16.3604 4.83155 16.622 3.09617L14.6443 2.79808ZM10.5 10.5C10.5 10.7931 10.499 11.0798 10.5208 11.3202C10.5439 11.5744 10.5984 11.8731 10.7679 12.1667L12.5 11.1667C12.5355 11.2282 12.5231 11.2551 12.5127 11.1397C12.501 11.0105 12.5 10.8299 12.5 10.5H10.5ZM13.1667 11.1667C12.8367 11.1667 12.6561 11.1657 12.527 11.154C12.4115 11.1435 12.4385 11.1311 12.5 11.1667L11.5 12.8987C11.7936 13.0682 12.0923 13.1228 12.3464 13.1458C12.5868 13.1676 12.8735 13.1667 13.1667 13.1667V11.1667ZM10.7679 12.1667C10.9435 12.4707 11.196 12.7232 11.5 12.8987L12.5 11.1667L10.7679 12.1667ZM12.5 10.5C12.5 10.1701 12.501 9.98946 12.5127 9.8603C12.5231 9.74488 12.5355 9.77179 12.5 9.83333L10.7679 8.83333C10.5984 9.12692 10.5439 9.42563 10.5208 9.67977C10.499 9.92015 10.5 10.2069 10.5 10.5H12.5ZM13.1667 7.83333C12.8735 7.83333 12.5868 7.83238 12.3464 7.85416C12.0923 7.8772 11.7936 7.93178 11.5 8.10128L12.5 9.83333C12.4385 9.86886 12.4115 9.85646 12.527 9.846C12.6561 9.83429 12.8367 9.83333 13.1667 9.83333L13.1667 7.83333ZM12.5 9.83333H12.5L11.5 8.10128C11.196 8.27682 10.9435 8.52929 10.7679 8.83333L12.5 9.83333ZM14.5 6.5C14.9997 6.5 15.2738 6.50212 15.464 6.52769C15.6254 6.5494 15.5703 6.57032 15.5 6.5L16.9142 5.08579C16.551 4.72257 16.1137 4.59705 15.7305 4.54553C15.3761 4.49788 14.9431 4.5 14.5 4.5V6.5ZM17.5 7.5C17.5 7.05687 17.5021 6.62392 17.4545 6.26948C17.403 5.88628 17.2774 5.449 16.9142 5.08579L15.5 6.5C15.4297 6.42968 15.4506 6.37455 15.4723 6.53598C15.4979 6.72617 15.5 7.00033 15.5 7.5H17.5ZM14.5 16.5C14.9431 16.5 15.3761 16.5021 15.7305 16.4545C16.1137 16.403 16.551 16.2774 16.9142 15.9142L15.5 14.5C15.5703 14.4297 15.6254 14.4506 15.464 14.4723C15.2738 14.4979 14.9997 14.5 14.5 14.5V16.5ZM15.5 13.5C15.5 13.9997 15.4979 14.2738 15.4723 14.464C15.4506 14.6254 15.4297 14.5703 15.5 14.5L16.9142 15.9142C17.2774 15.551 17.403 15.1137 17.4545 14.7305C17.5021 14.3761 17.5 13.9431 17.5 13.5L15.5 13.5ZM5.50001 14.5C4.52893 14.5 3.90122 14.4979 3.43871 14.4357C3.00497 14.3774 2.86902 14.2832 2.7929 14.2071L1.37868 15.6213C1.88835 16.131 2.5167 16.3297 3.17221 16.4179C3.79896 16.5021 4.58547 16.5 5.50001 16.5V14.5ZM0.500006 11.5C0.500006 12.4145 0.497883 13.201 0.582147 13.8278C0.670279 14.4833 0.869023 15.1117 1.37868 15.6213L2.7929 14.2071C2.71677 14.131 2.62263 13.995 2.56431 13.5613C2.50213 13.0988 2.50001 12.4711 2.50001 11.5L0.500006 11.5ZM0.500006 3.41667C0.500006 5.11954 1.88046 6.5 3.58334 6.5V4.5C2.98503 4.5 2.50001 4.01498 2.50001 3.41667H0.500006ZM15.0714 2.33333C15.0943 2.33333 15.1109 2.33334 15.125 2.33341C15.1391 2.33348 15.1462 2.3336 15.1495 2.33369C15.1527 2.33378 15.148 2.33372 15.1385 2.33303C15.1284 2.33228 15.1123 2.33078 15.0921 2.32775L15.3902 0.350087C15.2604 0.330518 15.1235 0.333334 15.0714 0.333334V2.33333ZM16.6667 1.92857C16.6667 1.87647 16.6695 1.7396 16.6499 1.60977L14.6723 1.90786C14.6692 1.88773 14.6677 1.87165 14.667 1.86146C14.6663 1.85196 14.6662 1.84729 14.6663 1.8505C14.6664 1.85383 14.6665 1.86094 14.6666 1.87502C14.6667 1.88912 14.6667 1.90572 14.6667 1.92857H16.6667ZM15.0921 2.32775C14.8752 2.29505 14.7049 2.12478 14.6723 1.90786L16.6499 1.60977C16.5518 0.959002 16.041 0.448174 15.3902 0.350087L15.0921 2.32775ZM2.50001 3.41667C2.50001 2.81836 2.98503 2.33333 3.58334 2.33333V0.333334C1.88046 0.333334 0.500006 1.71379 0.500006 3.41667H2.50001Z" fill="#969BA0"/>
</svg>
