<svg width="22" height="22" viewBox="0 0 22 22" fill="none" xmlns="http://www.w3.org/2000/svg">
<path d="M20.0114 15.2624V18.1301C20.0124 18.3963 19.9579 18.6598 19.8513 18.9038C19.7446 19.1477 19.5882 19.3667 19.392 19.5466C19.1958 19.7266 18.9642 19.8636 18.712 19.9489C18.4598 20.0342 18.1926 20.0659 17.9275 20.0419C14.986 19.7223 12.1604 18.7172 9.67791 17.1073C7.36826 15.6396 5.41007 13.6814 3.94242 11.3718C2.3269 8.87799 1.32153 6.03872 1.00776 3.08399C0.983871 2.81965 1.01529 2.55323 1.10001 2.30169C1.18472 2.05016 1.32089 1.81902 1.49983 1.62299C1.67877 1.42696 1.89657 1.27034 2.13936 1.1631C2.38215 1.05586 2.64461 1.00034 2.91003 1.00009H5.77778C6.24169 0.995527 6.69143 1.15981 7.04318 1.46231C7.39493 1.76481 7.62468 2.1849 7.68961 2.64427C7.81065 3.56201 8.03512 4.46311 8.35875 5.33039C8.48736 5.67254 8.5152 6.04438 8.43896 6.40186C8.36272 6.75934 8.1856 7.08747 7.92859 7.34737L6.71458 8.56139C8.07537 10.9546 10.0569 12.9361 12.4501 14.2969L13.6641 13.0829C13.924 12.8259 14.2521 12.6487 14.6096 12.5725C14.9671 12.4963 15.3389 12.5241 15.6811 12.6527C16.5483 12.9763 17.4494 13.2008 18.3672 13.3218C18.8315 13.3874 19.2556 13.6212 19.5588 13.979C19.8619 14.3368 20.023 14.7935 20.0114 15.2624Z" stroke="white" strokeWidth="2" strokeLinecap="round" strokeLinejoin="round"/>
</svg>
