<svg width="17" height="15" viewBox="0 0 17 15" fill="none" xmlns="http://www.w3.org/2000/svg">
<path d="M10.75 5.0625H15.625V12C15.625 12.9428 15.625 13.4142 15.3321 13.7071C15.0392 14 14.5678 14 13.625 14H10.75V5.0625Z" stroke="#969BA0" strokeWidth="2" strokeLinecap="round"/>
<path d="M1 5.0625H5.875V14H3C2.05719 14 1.58579 14 1.29289 13.7071C1 13.4142 1 12.9428 1 12V5.0625Z" stroke="#969BA0" strokeWidth="2" strokeLinecap="round"/>
<rect x="5.875" y="5.0625" width="4.875" height="8.9375" stroke="#969BA0" strokeWidth="2" strokeLinecap="round"/>
<path d="M1 3C1 2.05719 1 1.58579 1.29289 1.29289C1.58579 1 2.05719 1 3 1H13.625C14.5678 1 15.0392 1 15.3321 1.29289C15.625 1.58579 15.625 2.05719 15.625 3V5.0625H1V3Z" stroke="#969BA0" strokeWidth="2" strokeLinecap="round"/>
</svg>
