<svg width="38" height="32" viewBox="0 0 38 32" fill="none" xmlns="http://www.w3.org/2000/svg">
<g clip-path="url(#clip0_299_2124)">
<path d="M14.7812 29.6172V28.029C14.7812 27.1865 14.4148 26.3786 13.7625 25.7829C13.1103 25.1872 12.2256 24.8525 11.3032 24.8525H4.34715C3.42473 24.8525 2.54008 25.1872 1.88783 25.7829C1.23557 26.3786 0.869141 27.1865 0.869141 28.029V29.6172" stroke="#0B6AAB" stroke-width="2" stroke-linecap="round" stroke-linejoin="round"/>
<path d="M7.82567 21.6761C9.74652 21.6761 11.3037 20.254 11.3037 18.4997C11.3037 16.7454 9.74652 15.3232 7.82567 15.3232C5.90482 15.3232 4.34766 16.7454 4.34766 18.4997C4.34766 20.254 5.90482 21.6761 7.82567 21.6761Z" stroke="#0B6AAB" stroke-width="2" stroke-linecap="round" stroke-linejoin="round"/>
<path d="M19.9982 29.6175V28.0293C19.9976 27.3255 19.7411 26.6418 19.269 26.0855C18.7968 25.5293 18.1358 25.132 17.3896 24.9561" stroke="#0B6AAB" stroke-width="2" stroke-linecap="round" stroke-linejoin="round"/>
<path d="M13.9121 15.4263C14.6602 15.6012 15.3233 15.9986 15.7969 16.5557C16.2704 17.1129 16.5274 17.7981 16.5274 18.5035C16.5274 19.2088 16.2704 19.894 15.7969 20.4512C15.3233 21.0083 14.6602 21.4057 13.9121 21.5806" stroke="#0B6AAB" stroke-width="2" stroke-linecap="round" stroke-linejoin="round"/>
</g>
<rect x="17.8867" width="19.3775" height="19.3775" fill="#004472"/>
<path d="M24.6147 12.0307C24.7107 13.3147 25.5987 14.5027 27.4587 14.5027C29.7747 14.5027 30.4347 12.8947 30.4347 9.91872C30.4347 7.14672 29.7027 5.53872 27.3267 5.53872C25.4787 5.53872 24.3747 6.69072 24.3747 8.44272C24.3747 10.2907 25.5867 11.2387 27.0987 11.2387C27.8667 11.2387 28.5747 10.9387 28.9467 10.4227C28.9467 12.3907 28.5147 13.1227 27.5307 13.1227C26.7507 13.1227 26.3067 12.7267 26.1747 12.0307H24.6147ZM27.4467 9.87072C26.4267 9.87072 25.9827 9.22272 25.9827 8.43072C25.9827 7.55472 26.5107 6.96672 27.3867 6.96672C28.2387 6.96672 28.7907 7.49472 28.7907 8.45472C28.7907 9.30672 28.2867 9.87072 27.4467 9.87072Z" fill="white"/>
<defs>
<clipPath id="clip0_299_2124">
<rect width="20.8681" height="19.0587" fill="white" transform="translate(0 12.9409)"/>
</clipPath>
</defs>
</svg>
