<svg width="18" height="24" viewBox="0 0 18 24" fill="none" xmlns="http://www.w3.org/2000/svg">
<path d="M2.32182 1.39569C2.32182 2.02129 1.82699 2.52844 1.21657 2.52844C0.606164 2.52844 0.111328 2.02129 0.111328 1.39569C0.111328 0.770089 0.606164 0.262939 1.21657 0.262939C1.82699 0.262939 2.32182 0.770089 2.32182 1.39569Z" fill="white" fillOpacity="0.5"/>
<path d="M7.47964 1.39569C7.47964 2.02129 6.9848 2.52844 6.37439 2.52844C5.76398 2.52844 5.26915 2.02129 5.26915 1.39569C5.26915 0.770089 5.76398 0.262939 6.37439 0.262939C6.9848 0.262939 7.47964 0.770089 7.47964 1.39569Z" fill="white" fillOpacity="0.5"/>
<path d="M12.6375 1.39569C12.6375 2.02129 12.1426 2.52844 11.5322 2.52844C10.9218 2.52844 10.427 2.02129 10.427 1.39569C10.427 0.770089 10.9218 0.262939 11.5322 0.262939C12.1426 0.262939 12.6375 0.770089 12.6375 1.39569Z" fill="white" fillOpacity="0.5"/>
<path d="M17.7953 1.39569C17.7953 2.02129 17.3004 2.52844 16.69 2.52844C16.0796 2.52844 15.5848 2.02129 15.5848 1.39569C15.5848 0.770089 16.0796 0.262939 16.69 0.262939C17.3004 0.262939 17.7953 0.770089 17.7953 1.39569Z" fill="white" fillOpacity="0.5"/>
<path d="M2.32182 6.68185C2.32182 7.30745 1.82699 7.8146 1.21657 7.8146C0.606164 7.8146 0.111328 7.30745 0.111328 6.68185C0.111328 6.05625 0.606164 5.5491 1.21657 5.5491C1.82699 5.5491 2.32182 6.05625 2.32182 6.68185Z" fill="white" fillOpacity="0.5"/>
<path d="M7.47964 6.68185C7.47964 7.30745 6.9848 7.8146 6.37439 7.8146C5.76398 7.8146 5.26915 7.30745 5.26915 6.68185C5.26915 6.05625 5.76398 5.5491 6.37439 5.5491C6.9848 5.5491 7.47964 6.05625 7.47964 6.68185Z" fill="white" fillOpacity="0.5"/>
<path d="M12.6375 6.68185C12.6375 7.30745 12.1426 7.8146 11.5322 7.8146C10.9218 7.8146 10.427 7.30745 10.427 6.68185C10.427 6.05625 10.9218 5.5491 11.5322 5.5491C12.1426 5.5491 12.6375 6.05625 12.6375 6.68185Z" fill="white" fillOpacity="0.5"/>
<path d="M17.7953 6.68185C17.7953 7.30745 17.3004 7.8146 16.69 7.8146C16.0796 7.8146 15.5848 7.30745 15.5848 6.68185C15.5848 6.05625 16.0796 5.5491 16.69 5.5491C17.3004 5.5491 17.7953 6.05625 17.7953 6.68185Z" fill="white" fillOpacity="0.5"/>
<path d="M2.32182 11.968C2.32182 12.5936 1.82699 13.1008 1.21657 13.1008C0.606164 13.1008 0.111328 12.5936 0.111328 11.968C0.111328 11.3424 0.606164 10.8353 1.21657 10.8353C1.82699 10.8353 2.32182 11.3424 2.32182 11.968Z" fill="white" fillOpacity="0.5"/>
<path d="M7.47964 11.968C7.47964 12.5936 6.9848 13.1008 6.37439 13.1008C5.76398 13.1008 5.26915 12.5936 5.26915 11.968C5.26915 11.3424 5.76398 10.8353 6.37439 10.8353C6.9848 10.8353 7.47964 11.3424 7.47964 11.968Z" fill="white" fillOpacity="0.5"/>
<path d="M12.6375 11.968C12.6375 12.5936 12.1426 13.1008 11.5322 13.1008C10.9218 13.1008 10.427 12.5936 10.427 11.968C10.427 11.3424 10.9218 10.8353 11.5322 10.8353C12.1426 10.8353 12.6375 11.3424 12.6375 11.968Z" fill="white" fillOpacity="0.5"/>
<path d="M17.7953 11.968C17.7953 12.5936 17.3004 13.1008 16.69 13.1008C16.0796 13.1008 15.5848 12.5936 15.5848 11.968C15.5848 11.3424 16.0796 10.8353 16.69 10.8353C17.3004 10.8353 17.7953 11.3424 17.7953 11.968Z" fill="white" fillOpacity="0.5"/>
<path d="M2.32182 17.2542C2.32182 17.8798 1.82699 18.3869 1.21657 18.3869C0.606164 18.3869 0.111328 17.8798 0.111328 17.2542C0.111328 16.6286 0.606164 16.1214 1.21657 16.1214C1.82699 16.1214 2.32182 16.6286 2.32182 17.2542Z" fill="white" fillOpacity="0.5"/>
<path d="M7.47964 17.2542C7.47964 17.8798 6.9848 18.3869 6.37439 18.3869C5.76398 18.3869 5.26915 17.8798 5.26915 17.2542C5.26915 16.6286 5.76398 16.1214 6.37439 16.1214C6.9848 16.1214 7.47964 16.6286 7.47964 17.2542Z" fill="white" fillOpacity="0.5"/>
<path d="M12.6375 17.2542C12.6375 17.8798 12.1426 18.3869 11.5322 18.3869C10.9218 18.3869 10.427 17.8798 10.427 17.2542C10.427 16.6286 10.9218 16.1214 11.5322 16.1214C12.1426 16.1214 12.6375 16.6286 12.6375 17.2542Z" fill="white" fillOpacity="0.5"/>
<path d="M17.7953 17.2542C17.7953 17.8798 17.3004 18.3869 16.69 18.3869C16.0796 18.3869 15.5848 17.8798 15.5848 17.2542C15.5848 16.6286 16.0796 16.1214 16.69 16.1214C17.3004 16.1214 17.7953 16.6286 17.7953 17.2542Z" fill="white" fillOpacity="0.5"/>
<path d="M2.32182 22.5403C2.32182 23.1659 1.82699 23.6731 1.21657 23.6731C0.606164 23.6731 0.111328 23.1659 0.111328 22.5403C0.111328 21.9147 0.606164 21.4076 1.21657 21.4076C1.82699 21.4076 2.32182 21.9147 2.32182 22.5403Z" fill="white" fillOpacity="0.5"/>
<path d="M7.47964 22.5403C7.47964 23.1659 6.9848 23.6731 6.37439 23.6731C5.76398 23.6731 5.26915 23.1659 5.26915 22.5403C5.26915 21.9147 5.76398 21.4076 6.37439 21.4076C6.9848 21.4076 7.47964 21.9147 7.47964 22.5403Z" fill="white" fillOpacity="0.5"/>
<path d="M12.6375 22.5403C12.6375 23.1659 12.1426 23.6731 11.5322 23.6731C10.9218 23.6731 10.427 23.1659 10.427 22.5403C10.427 21.9147 10.9218 21.4076 11.5322 21.4076C12.1426 21.4076 12.6375 21.9147 12.6375 22.5403Z" fill="white" fillOpacity="0.5"/>
<path d="M17.7953 22.5403C17.7953 23.1659 17.3004 23.6731 16.69 23.6731C16.0796 23.6731 15.5848 23.1659 15.5848 22.5403C15.5848 21.9147 16.0796 21.4076 16.69 21.4076C17.3004 21.4076 17.7953 21.9147 17.7953 22.5403Z" fill="white" fillOpacity="0.5"/>
</svg>
