<svg width="26" height="27" viewBox="0 0 26 27" fill="none" xmlns="http://www.w3.org/2000/svg">
<path d="M1.49642 17.3741C2.15199 19.5052 3.59656 21.3882 5.60608 22.7312C7.6156 24.0743 10.0778 24.8022 12.6107 24.8022C15.1436 24.8022 17.6058 24.0743 19.6153 22.7312C21.6249 21.3882 23.0694 19.5052 23.725 17.3741" stroke="#0868AA" strokeWidth="3"/>
<path d="M12.6107 14.7803L11.7531 16.011L12.6107 16.6085L13.4682 16.011L12.6107 14.7803ZM14.1107 1.89489C14.1107 1.06646 13.4391 0.394887 12.6107 0.394887C11.7822 0.394887 11.1107 1.06646 11.1107 1.89489L14.1107 1.89489ZM3.5343 10.2841L11.7531 16.011L13.4682 13.5496L5.24939 7.82274L3.5343 10.2841ZM13.4682 16.011L21.6871 10.2841L19.972 7.82274L11.7531 13.5496L13.4682 16.011ZM14.1107 14.7803L14.1107 1.89489L11.1107 1.89489L11.1107 14.7803L14.1107 14.7803Z" fill="#0868AA"/>
</svg>
