<svg width="20" height="20" viewBox="0 0 20 20" fill="none" xmlns="http://www.w3.org/2000/svg">
<path d="M6.82477 17.7544L6.3204 18.6179L6.82477 17.7544ZM6.26653 17.2702L7.05001 16.6488L6.26653 17.2702ZM16.7665 16.0305L17.522 16.6857L16.7665 16.0305ZM16.7665 3.9697L17.522 3.31449L16.7665 3.9697ZM9.9257 3.2615L12.2073 3.58744L12.4901 1.60754L10.2085 1.2816L9.9257 3.2615ZM16.5002 8.53719V11.463H18.5002V8.53719H16.5002ZM12.2073 16.4127L9.76244 16.762L10.0453 18.7419L12.4901 18.3926L12.2073 16.4127ZM9.76244 16.762C8.9136 16.8832 8.35915 16.961 7.9398 16.9739C7.53676 16.9863 7.39766 16.9309 7.32913 16.8909L6.3204 18.6179C6.8536 18.9293 7.42825 18.9906 8.00144 18.973C8.55831 18.9558 9.24255 18.8566 10.0453 18.7419L9.76244 16.762ZM4.8335 14.2217C4.8335 15.0326 4.83203 15.724 4.89379 16.2777C4.95735 16.8476 5.09933 17.4078 5.48304 17.8916L7.05001 16.6488C7.0007 16.5866 6.92616 16.4568 6.88146 16.056C6.83496 15.6391 6.8335 15.0792 6.8335 14.2217H4.8335ZM7.32913 16.8909C7.22186 16.8282 7.12721 16.7461 7.05001 16.6488L5.48304 17.8916C5.71463 18.1836 5.9986 18.4299 6.3204 18.6179L7.32913 16.8909ZM16.5002 11.463C16.5002 12.7296 16.4983 13.5857 16.4163 14.2346C16.3379 14.8555 16.1991 15.1585 16.0111 15.3753L17.522 16.6857C18.0676 16.0565 18.2956 15.3163 18.4006 14.4852C18.502 13.6821 18.5002 12.6775 18.5002 11.463H16.5002ZM12.4901 18.3926C13.6924 18.2209 14.6872 18.0806 15.4679 17.8666C16.2758 17.6452 16.9763 17.3148 17.522 16.6857L16.0111 15.3753C15.8231 15.592 15.5427 15.7723 14.9392 15.9378C14.3084 16.1107 13.4611 16.2336 12.2073 16.4127L12.4901 18.3926ZM12.2073 3.58744C13.4611 3.76656 14.3084 3.88949 14.9392 4.06238C15.5427 4.22783 15.8231 4.40814 16.0111 4.6249L17.522 3.31449C16.9763 2.68536 16.2758 2.355 15.4679 2.13354C14.6872 1.91952 13.6924 1.77929 12.4901 1.60754L12.2073 3.58744ZM18.5002 8.53719C18.5002 7.32271 18.502 6.31809 18.4006 5.51493C18.2956 4.68383 18.0676 3.94363 17.522 3.31449L16.0111 4.6249C16.1991 4.84165 16.3379 5.14467 16.4163 5.76557C16.4983 6.41442 16.5002 7.2706 16.5002 8.53719H18.5002ZM10.2085 1.2816C9.33071 1.1562 8.58263 1.04758 7.97663 1.03477C7.35095 1.02154 6.72701 1.10335 6.16469 1.47976L7.27723 3.14176C7.3517 3.09191 7.49772 3.02509 7.93437 3.03432C8.39068 3.04397 8.99729 3.12887 9.9257 3.2615L10.2085 1.2816ZM6.8335 5.94336C6.8335 5.00552 6.83523 4.393 6.89022 3.93991C6.94283 3.50635 7.02963 3.37124 7.08951 3.30457L5.60155 1.96817C5.1494 2.4716 4.98018 3.0777 4.90478 3.69896C4.83176 4.30069 4.8335 5.05661 4.8335 5.94336H6.8335ZM6.16469 1.47976C5.9574 1.61852 5.76823 1.78259 5.60155 1.96817L7.08951 3.30457C7.14507 3.24271 7.20813 3.18802 7.27723 3.14176L6.16469 1.47976Z" fill="#969BA0"/>
<path d="M13.3335 9.99992L14.1144 9.37522L14.6141 9.99992L14.1144 10.6246L13.3335 9.99992ZM3.3335 10.9999C2.78121 10.9999 2.3335 10.5522 2.3335 9.99992C2.3335 9.44763 2.78121 8.99992 3.3335 8.99992V10.9999ZM10.781 5.20856L14.1144 9.37522L12.5526 10.6246L9.21929 6.45795L10.781 5.20856ZM14.1144 10.6246L10.781 14.7913L9.21929 13.5419L12.5526 9.37522L14.1144 10.6246ZM13.3335 10.9999H3.3335V8.99992H13.3335V10.9999Z" fill="#969BA0"/>
</svg>
