<svg width="26" height="24" viewBox="0 0 26 24" fill="none" xmlns="http://www.w3.org/2000/svg">
<path d="M2.41494 13.9448C1.88623 12.9943 1.62187 12.5191 1.62187 12.0003C1.62187 11.4814 1.88623 11.0062 2.41494 10.0558L4.16935 6.90193L6.02344 3.80565C6.58219 2.87256 6.86156 2.40601 7.31089 2.14659C7.76022 1.88716 8.30396 1.87849 9.39142 1.86115L12.9999 1.8036L16.6084 1.86115C17.6959 1.87849 18.2396 1.88716 18.6889 2.14659C19.1383 2.40601 19.4176 2.87255 19.9764 3.80565L21.8305 6.90193L23.5849 10.0558C24.1136 11.0062 24.378 11.4814 24.378 12.0003C24.378 12.5191 24.1136 12.9943 23.5849 13.9448L21.8305 17.0986L19.9764 20.1949C19.4176 21.128 19.1383 21.5945 18.6889 21.8539C18.2396 22.1134 17.6959 22.122 16.6084 22.1394L12.9999 22.1969L9.39142 22.1394C8.30396 22.122 7.76023 22.1134 7.3109 21.8539C6.86157 21.5945 6.58219 21.128 6.02344 20.1949L4.16935 17.0986L2.41494 13.9448Z" stroke="#969BA0" strokeWidth="2"/>
<circle cx="13" cy="12.0002" r="3.5" stroke="#969BA0" strokeWidth="2"/>
</svg>
