<svg width="30" height="39" viewBox="0 0 30 39" fill="none" xmlns="http://www.w3.org/2000/svg">
<path d="M21.643 5.29224C24.2531 5.29224 25.5582 5.29224 26.4956 5.91864C26.9015 6.18982 27.2499 6.53828 27.5211 6.94413C28.1475 7.88161 28.1475 9.18666 28.1475 11.7968V29.4519C28.1475 32.9562 28.1475 34.7084 27.0589 35.797C25.9702 36.8857 24.2181 36.8857 20.7138 36.8857H9.56315C6.05884 36.8857 4.30669 36.8857 3.21804 35.797C2.12939 34.7084 2.12939 32.9562 2.12939 29.4519V11.7968C2.12939 9.18666 2.12939 7.88161 2.7558 6.94413C3.02698 6.53828 3.37544 6.18982 3.78128 5.91864C4.71877 5.29224 6.02382 5.29224 8.63393 5.29224" stroke="#585858" strokeWidth="3"/>
<path d="M9.56348 5.29207C9.56348 3.2393 11.2276 1.5752 13.2804 1.5752H16.9972C19.05 1.5752 20.7141 3.2393 20.7141 5.29207C20.7141 7.34484 19.05 9.00895 16.9972 9.00895H13.2804C11.2276 9.00895 9.56348 7.34484 9.56348 5.29207Z" stroke="#585858" strokeWidth="3"/>
<path d="M9.56348 18.3013L20.7141 18.3013" stroke="#585858" strokeWidth="3" strokeLinecap="round"/>
<path d="M9.56348 25.7351L16.9972 25.7351" stroke="#585858" strokeWidth="3" strokeLinecap="round"/>
</svg>
