<svg width="18" height="23" viewBox="0 0 18 23" fill="none" xmlns="http://www.w3.org/2000/svg">
<g id="Icon">
<mask id="path-1-inside-1_148_1426" fill="white">
<path d="M6.61024 7.69006C6.61024 6.37024 7.68017 5.30031 8.99999 5.30031C10.3198 5.30031 11.3897 6.37024 11.3897 7.69006C11.3897 9.00988 10.3198 10.0798 8.99999 10.0798C7.68017 10.0798 6.61024 9.00988 6.61024 7.69006Z"/>
<path d="M7.80512 11.8721C5.82538 11.8721 4.22049 13.477 4.22049 15.4567C4.22049 16.1167 4.75546 16.6516 5.41537 16.6516H12.5846C13.2445 16.6516 13.7795 16.1167 13.7795 15.4567C13.7795 13.477 12.1746 11.8721 10.1949 11.8721H7.80512Z"/>
<path fillRule="evenodd" clipRule="evenodd" d="M3.67507 0.380635C7.20688 -0.126878 10.7931 -0.126878 14.3249 0.380635C16.076 0.63226 17.4251 2.05343 17.5854 3.81522L17.7371 5.48294C18.0876 9.33615 18.0876 13.2132 17.7371 17.0664L17.5854 18.7341C17.4251 20.4959 16.076 21.9171 14.3249 22.1687C10.7931 22.6762 7.20688 22.6762 3.67507 22.1687C1.92399 21.9171 0.574866 20.4959 0.414599 18.7341L0.262889 17.0664C-0.0876295 13.2132 -0.0876298 9.33615 0.262889 5.48295L0.414599 3.81522C0.574865 2.05343 1.92399 0.63226 3.67507 0.380635ZM14.07 2.15472C10.7073 1.67151 7.29273 1.67151 3.93 2.15472C3.00063 2.28827 2.2846 3.04254 2.19954 3.9776L2.04783 5.64532C1.70714 9.3905 1.70714 13.1589 2.04783 16.904L2.19954 18.5718C2.2846 19.5068 3.00063 20.2611 3.93 20.3946C7.29273 20.8779 10.7073 20.8779 14.07 20.3946C14.9994 20.2611 15.7154 19.5068 15.8005 18.5718L15.9522 16.904C16.2929 13.1589 16.2929 9.39049 15.9522 5.64532L15.8005 3.97759C15.7154 3.04254 14.9994 2.28827 14.07 2.15472Z"/>
</mask>
<path d="M6.61024 7.69006C6.61024 6.37024 7.68017 5.30031 8.99999 5.30031C10.3198 5.30031 11.3897 6.37024 11.3897 7.69006C11.3897 9.00988 10.3198 10.0798 8.99999 10.0798C7.68017 10.0798 6.61024 9.00988 6.61024 7.69006Z" fill="white"/>
<path d="M7.80512 11.8721C5.82538 11.8721 4.22049 13.477 4.22049 15.4567C4.22049 16.1167 4.75546 16.6516 5.41537 16.6516H12.5846C13.2445 16.6516 13.7795 16.1167 13.7795 15.4567C13.7795 13.477 12.1746 11.8721 10.1949 11.8721H7.80512Z" fill="white"/>
<path fillRule="evenodd" clipRule="evenodd" d="M3.67507 0.380635C7.20688 -0.126878 10.7931 -0.126878 14.3249 0.380635C16.076 0.63226 17.4251 2.05343 17.5854 3.81522L17.7371 5.48294C18.0876 9.33615 18.0876 13.2132 17.7371 17.0664L17.5854 18.7341C17.4251 20.4959 16.076 21.9171 14.3249 22.1687C10.7931 22.6762 7.20688 22.6762 3.67507 22.1687C1.92399 21.9171 0.574866 20.4959 0.414599 18.7341L0.262889 17.0664C-0.0876295 13.2132 -0.0876298 9.33615 0.262889 5.48295L0.414599 3.81522C0.574865 2.05343 1.92399 0.63226 3.67507 0.380635ZM14.07 2.15472C10.7073 1.67151 7.29273 1.67151 3.93 2.15472C3.00063 2.28827 2.2846 3.04254 2.19954 3.9776L2.04783 5.64532C1.70714 9.3905 1.70714 13.1589 2.04783 16.904L2.19954 18.5718C2.2846 19.5068 3.00063 20.2611 3.93 20.3946C7.29273 20.8779 10.7073 20.8779 14.07 20.3946C14.9994 20.2611 15.7154 19.5068 15.8005 18.5718L15.9522 16.904C16.2929 13.1589 16.2929 9.39049 15.9522 5.64532L15.8005 3.97759C15.7154 3.04254 14.9994 2.28827 14.07 2.15472Z" fill="white"/>
<path d="M6.61024 7.69006C6.61024 6.37024 7.68017 5.30031 8.99999 5.30031C10.3198 5.30031 11.3897 6.37024 11.3897 7.69006C11.3897 9.00988 10.3198 10.0798 8.99999 10.0798C7.68017 10.0798 6.61024 9.00988 6.61024 7.69006Z" stroke="white" strokeWidth="4" mask="url(#path-1-inside-1_148_1426)"/>
<path d="M7.80512 11.8721C5.82538 11.8721 4.22049 13.477 4.22049 15.4567C4.22049 16.1167 4.75546 16.6516 5.41537 16.6516H12.5846C13.2445 16.6516 13.7795 16.1167 13.7795 15.4567C13.7795 13.477 12.1746 11.8721 10.1949 11.8721H7.80512Z" stroke="white" strokeWidth="4" mask="url(#path-1-inside-1_148_1426)"/>
<path fillRule="evenodd" clipRule="evenodd" d="M3.67507 0.380635C7.20688 -0.126878 10.7931 -0.126878 14.3249 0.380635C16.076 0.63226 17.4251 2.05343 17.5854 3.81522L17.7371 5.48294C18.0876 9.33615 18.0876 13.2132 17.7371 17.0664L17.5854 18.7341C17.4251 20.4959 16.076 21.9171 14.3249 22.1687C10.7931 22.6762 7.20688 22.6762 3.67507 22.1687C1.92399 21.9171 0.574866 20.4959 0.414599 18.7341L0.262889 17.0664C-0.0876295 13.2132 -0.0876298 9.33615 0.262889 5.48295L0.414599 3.81522C0.574865 2.05343 1.92399 0.63226 3.67507 0.380635ZM14.07 2.15472C10.7073 1.67151 7.29273 1.67151 3.93 2.15472C3.00063 2.28827 2.2846 3.04254 2.19954 3.9776L2.04783 5.64532C1.70714 9.3905 1.70714 13.1589 2.04783 16.904L2.19954 18.5718C2.2846 19.5068 3.00063 20.2611 3.93 20.3946C7.29273 20.8779 10.7073 20.8779 14.07 20.3946C14.9994 20.2611 15.7154 19.5068 15.8005 18.5718L15.9522 16.904C16.2929 13.1589 16.2929 9.39049 15.9522 5.64532L15.8005 3.97759C15.7154 3.04254 14.9994 2.28827 14.07 2.15472Z" stroke="white" strokeWidth="4" mask="url(#path-1-inside-1_148_1426)"/>
</g>
</svg>
