<svg width="19" height="18" viewBox="0 0 19 18" fill="none" xmlns="http://www.w3.org/2000/svg">
<path d="M9.81276 9.66458C10.2233 9.66458 10.5562 9.33174 10.5562 8.92116C10.5562 8.51058 10.2233 8.17773 9.81276 8.17773C9.40218 8.17773 9.06934 8.51058 9.06934 8.92116C9.06934 9.33174 9.40218 9.66458 9.81276 9.66458Z" stroke="#2E2E2E" strokeWidth="2" strokeLinecap="round" strokeLinejoin="round"/>
<path d="M9.81276 4.46047C10.2233 4.46047 10.5562 4.12763 10.5562 3.71705C10.5562 3.30647 10.2233 2.97363 9.81276 2.97363C9.40218 2.97363 9.06934 3.30647 9.06934 3.71705C9.06934 4.12763 9.40218 4.46047 9.81276 4.46047Z" stroke="#2E2E2E" strokeWidth="2" strokeLinecap="round" strokeLinejoin="round"/>
<path d="M9.81276 14.8684C10.2233 14.8684 10.5562 14.5356 10.5562 14.125C10.5562 13.7144 10.2233 13.3816 9.81276 13.3816C9.40218 13.3816 9.06934 13.7144 9.06934 14.125C9.06934 14.5356 9.40218 14.8684 9.81276 14.8684Z" stroke="#2E2E2E" strokeWidth="2" strokeLinecap="round" strokeLinejoin="round"/>
</svg>
