<svg width="50" height="51" viewBox="0 0 50 51" fill="none" xmlns="http://www.w3.org/2000/svg">
<path d="M19.8333 47.5V45.1667C19.8333 43.929 19.3417 42.742 18.4665 41.8668C17.5913 40.9917 16.4043 40.5 15.1667 40.5H5.83332C4.59565 40.5 3.40866 40.9917 2.53349 41.8668C1.65832 42.742 1.16666 43.929 1.16666 45.1667V47.5" stroke="#0B6AAB" strokeWidth="2" strokeLinecap="round" strokeLinejoin="round"/>
<path d="M10.5 35.8333C13.0773 35.8333 15.1667 33.744 15.1667 31.1667C15.1667 28.5893 13.0773 26.5 10.5 26.5C7.92268 26.5 5.83334 28.5893 5.83334 31.1667C5.83334 33.744 7.92268 35.8333 10.5 35.8333Z" stroke="#0B6AAB" strokeWidth="2" strokeLinecap="round" strokeLinejoin="round"/>
<path d="M26.8333 47.5V45.1667C26.8325 44.1327 26.4884 43.1282 25.8549 42.311C25.2214 41.4938 24.3345 40.9102 23.3333 40.6517" stroke="#0B6AAB" strokeWidth="2" strokeLinecap="round" strokeLinejoin="round"/>
<path d="M18.6667 26.6517C19.6705 26.9087 20.5602 27.4925 21.1956 28.311C21.831 29.1296 22.1758 30.1363 22.1758 31.1725C22.1758 32.2087 21.831 33.2154 21.1956 34.034C20.5602 34.8525 19.6705 35.4363 18.6667 35.6933" stroke="#0B6AAB" strokeWidth="2" strokeLinecap="round" strokeLinejoin="round"/>
<rect x="25" width="22" height="22" fill="#004472"/>
<path d="M34.19 14.13C34.302 15.628 35.338 17.014 37.508 17.014C40.21 17.014 40.98 15.138 40.98 11.666C40.98 8.432 40.126 6.556 37.354 6.556C35.198 6.556 33.91 7.9 33.91 9.944C33.91 12.1 35.324 13.206 37.088 13.206C37.984 13.206 38.81 12.856 39.244 12.254C39.244 14.55 38.74 15.404 37.592 15.404C36.682 15.404 36.164 14.942 36.01 14.13H34.19ZM37.494 11.61C36.304 11.61 35.786 10.854 35.786 9.93C35.786 8.908 36.402 8.222 37.424 8.222C38.418 8.222 39.062 8.838 39.062 9.958C39.062 10.952 38.474 11.61 37.494 11.61Z" fill="white"/>
</svg>
