<svg width="19" height="19" viewBox="0 0 19 19" fill="none" xmlns="http://www.w3.org/2000/svg">
<path fillRule="evenodd" clipRule="evenodd" d="M12.1132 12.9051C9.31712 15.1406 5.2242 14.9647 2.63221 12.3773C-0.148889 9.60106 -0.148889 5.09994 2.63221 2.32373C5.41332 -0.452475 9.92237 -0.452474 12.7035 2.32373C15.2955 4.91115 15.4717 8.99686 13.2323 11.788L18.6716 17.2178C18.9806 17.5263 18.9806 18.0264 18.6716 18.3349C18.3626 18.6434 17.8616 18.6434 17.5526 18.3349L12.1132 12.9051ZM3.75124 11.2602C1.58816 9.10093 1.58816 5.60006 3.75124 3.44079C5.91432 1.28152 9.42137 1.28152 11.5844 3.44079C13.7459 5.59848 13.7475 9.09579 11.5892 11.2554C11.5876 11.257 11.586 11.2586 11.5844 11.2602C11.5828 11.2618 11.5813 11.2634 11.5797 11.2649C9.41623 13.4195 5.91274 13.4179 3.75124 11.2602Z" fill="#969BA0"/>
</svg>
