<svg width="27" height="28" viewBox="0 0 27 28" fill="none" xmlns="http://www.w3.org/2000/svg">
<path fillRule="evenodd" clipRule="evenodd" d="M8.83333 3.13733C9.78 1.652 11.4413 0.666672 13.3333 0.666672C15.2253 0.666672 16.8867 1.652 17.8333 3.13733C19.552 2.756 21.424 3.23467 22.7613 4.57201C24.0987 5.91067 24.5773 7.78133 24.196 9.50133C25.6813 10.448 26.6667 12.1093 26.6667 14C26.6667 15.892 25.6813 17.5533 24.196 18.5C24.5773 20.22 24.0987 22.0907 22.7613 23.428C21.424 24.7667 19.552 25.244 17.8333 24.864C16.8867 26.3493 15.2253 27.3333 13.3333 27.3333C11.4413 27.3333 9.78 26.3493 8.83333 24.864C7.11333 25.244 5.24267 24.7667 3.90533 23.428C2.568 22.0907 2.08934 20.22 2.46934 18.5C0.98534 17.5533 0 15.892 0 14C0 12.1093 0.98534 10.448 2.46934 9.50133C2.08934 7.78133 2.568 5.91067 3.90533 4.57201C5.24267 3.23467 7.11333 2.756 8.83333 3.13733ZM8.90401 5.976C9.25335 6.15733 9.66534 6.17466 10.0293 6.02399C10.3933 5.87333 10.672 5.56933 10.7907 5.19467C11.132 4.116 12.1413 3.33334 13.3333 3.33334C14.5253 3.33334 15.5347 4.116 15.876 5.19467C15.9947 5.56933 16.2733 5.87333 16.6374 6.02399C17.0014 6.17466 17.412 6.15733 17.7613 5.976C18.7667 5.45466 20.0334 5.61466 20.876 6.45866C21.7187 7.30133 21.88 8.56801 21.3587 9.57201C21.1774 9.92134 21.1587 10.3333 21.3093 10.696C21.46 11.06 21.764 11.3387 22.1387 11.4573C23.2187 11.7987 24 12.808 24 14C24 15.192 23.2187 16.2027 22.1387 16.544C21.764 16.6627 21.46 16.9413 21.3093 17.304C21.1587 17.668 21.1774 18.08 21.3587 18.4293C21.88 19.4333 21.7187 20.7 20.876 21.5427C20.0334 22.3853 18.7667 22.5467 17.7613 22.0253C17.412 21.844 17.0014 21.8267 16.6374 21.9773C16.2733 22.128 15.9947 22.432 15.876 22.8067C15.5347 23.8853 14.5253 24.6667 13.3333 24.6667C12.1413 24.6667 11.132 23.8853 10.7907 22.8067C10.672 22.432 10.3933 22.128 10.0293 21.9773C9.66534 21.8267 9.25335 21.844 8.90401 22.0253C7.90001 22.5467 6.63334 22.3853 5.79067 21.5427C4.948 20.7 4.78667 19.4333 5.308 18.4293C5.48934 18.08 5.50667 17.668 5.35734 17.304C5.20667 16.9413 4.90267 16.6627 4.52667 16.544C3.44801 16.2027 2.66667 15.192 2.66667 14C2.66667 12.808 3.44801 11.7987 4.52667 11.4573C4.90267 11.3387 5.20667 11.06 5.35734 10.696C5.50667 10.3333 5.48934 9.92134 5.308 9.57201C4.78667 8.56801 4.948 7.30133 5.79067 6.45866C6.63334 5.61466 7.90001 5.45466 8.90401 5.976ZM13.3333 8.66667C10.3893 8.66667 8 11.0573 8 14C8 16.944 10.3893 19.3333 13.3333 19.3333C16.2773 19.3333 18.6667 16.944 18.6667 14C18.6667 11.0573 16.2773 8.66667 13.3333 8.66667ZM13.3333 11.3333C14.8053 11.3333 16 12.5293 16 14C16 15.472 14.8053 16.6667 13.3333 16.6667C11.8613 16.6667 10.6667 15.472 10.6667 14C10.6667 12.5293 11.8613 11.3333 13.3333 11.3333Z" fill="#BFBFBF"/>
</svg>
