<svg width="20" height="20" viewBox="0 0 20 20" fill="none" xmlns="http://www.w3.org/2000/svg">
<path d="M2.5 9.99976C2.5 6.71227 2.5 5.06853 3.40796 3.96218C3.57418 3.75965 3.75989 3.57393 3.96243 3.40771C5.06878 2.49976 6.71252 2.49976 10 2.49976V2.49976C13.2875 2.49976 14.9312 2.49976 16.0376 3.40771C16.2401 3.57393 16.4258 3.75965 16.592 3.96218C17.5 5.06853 17.5 6.71227 17.5 9.99976V9.99976C17.5 13.2872 17.5 14.931 16.592 16.0373C16.4258 16.2399 16.2401 16.4256 16.0376 16.5918C14.9312 17.4998 13.2875 17.4998 10 17.4998V17.4998C6.71252 17.4998 5.06878 17.4998 3.96243 16.5918C3.75989 16.4256 3.57418 16.2399 3.40796 16.0373C2.5 14.931 2.5 13.2872 2.5 9.99976V9.99976Z" stroke="#969BA0" strokeWidth="2"/>
<path d="M10 6.66644L10 13.3331" stroke="#969BA0" strokeWidth="2" strokeLinecap="square" strokeLinejoin="round"/>
<path d="M13.333 9.99976L6.66634 9.99976" stroke="#969BA0" strokeWidth="2" strokeLinecap="square" strokeLinejoin="round"/>
</svg>
