<svg width="46" height="45" viewBox="0 0 46 45" fill="none" xmlns="http://www.w3.org/2000/svg">
<path d="M8.271 11.4338C8.271 9.54822 8.271 8.60541 8.85678 8.01962C9.44257 7.43384 10.3854 7.43384 12.271 7.43384H34.006C35.8916 7.43384 36.8344 7.43384 37.4202 8.01962C38.006 8.60541 38.006 9.54822 38.006 11.4338V33.1688C38.006 35.0545 38.006 35.9973 37.4202 36.5831C36.8344 37.1688 35.8916 37.1688 34.006 37.1688H12.271C10.3854 37.1688 9.44257 37.1688 8.85678 36.5831C8.271 35.9973 8.271 35.0545 8.271 33.1688V11.4338Z" stroke="#585858" strokeWidth="3"/>
<path d="M8.271 19.3276V20.1596C8.271 22.0452 8.271 22.988 8.85678 23.5738C9.44257 24.1596 10.3854 24.1596 12.271 24.1596H15.1008C15.7913 24.1596 16.1365 24.1596 16.3974 24.3461C16.6583 24.5326 16.7699 24.8593 16.9933 25.5126L17.7201 27.6385C17.9435 28.2918 18.0551 28.6185 18.316 28.805C18.5769 28.9915 18.9221 28.9915 19.6126 28.9915H26.6644C27.3549 28.9915 27.7001 28.9915 27.961 28.805C28.2219 28.6185 28.3335 28.2918 28.5569 27.6385L29.2837 25.5126C29.5071 24.8593 29.6187 24.5326 29.8796 24.3461C30.1405 24.1596 30.4857 24.1596 31.1762 24.1596H34.006C35.8916 24.1596 36.8344 24.1596 37.4202 23.5738C38.006 22.988 38.006 22.0452 38.006 20.1596V19.3276" stroke="#585858" strokeWidth="3"/>
</svg>
