<svg width="20" height="20" viewBox="0 0 20 20" fill="none" xmlns="http://www.w3.org/2000/svg">
<path d="M17.6146 7.33333C17.5156 7.0625 17.3073 6.92708 17.0469 6.9375C16.7656 6.94792 16.5885 7.09896 16.4948 7.35417C16.1302 8.3125 15.7656 9.27083 15.401 10.2344C15.3802 10.2865 15.3594 10.3385 15.2917 10.3906C15.2917 10.3177 15.2917 10.25 15.2917 10.1771C15.2917 8.22396 15.2917 6.27083 15.2917 4.32292C15.2917 3.80208 15.2083 3.67708 14.7292 3.5C11.6562 2.34375 8.58854 1.19271 5.51562 0.0416667C5.48437 0.03125 5.45833 0.015625 5.43229 0C5.33854 0 5.25 0 5.16146 0C4.81771 0.135417 4.70833 0.395833 4.70833 0.755208C4.71354 3.89062 4.71354 7.02604 4.71354 10.1615C4.71354 10.2396 4.71354 10.3125 4.71354 10.3906C4.70312 10.3906 4.6875 10.3958 4.67708 10.3958C4.65625 10.349 4.63021 10.2969 4.60937 10.25C4.24479 9.29687 3.88542 8.34375 3.52604 7.39062C3.42708 7.11979 3.25521 6.94792 2.95833 6.9375C2.68229 6.92708 2.48958 7.07812 2.36979 7.39062C1.64062 9.26562 0.916667 11.1458 0.34375 13.0781C0.213542 13.5208 0.119792 13.9687 0.0104167 14.4167C0.0104167 14.625 0.0104167 14.8333 0.0104167 15.0417C0.0416667 15.1771 0.0677083 15.3177 0.109375 15.4531C0.416667 16.526 1.10937 17.2292 2.1875 17.5469C2.23437 17.5625 2.28646 17.5781 2.34375 17.5937C2.34375 18 2.34375 18.401 2.34375 18.8281C2.21354 18.8281 2.08854 18.8281 1.95833 18.8281C1.56771 18.8281 1.17708 18.8437 0.786458 18.8229C0.421875 18.8021 0.15625 18.9219 0 19.2604C0 19.3646 0 19.4687 0 19.5729C0.09375 19.7656 0.234375 19.9115 0.427083 20C6.80729 20 13.1875 20 19.5677 20C19.7604 19.9062 19.9062 19.7656 19.9948 19.5729C19.9948 19.4687 19.9948 19.3646 19.9948 19.2604C19.8385 18.9219 19.5729 18.8125 19.2083 18.8281C18.6979 18.849 18.1823 18.8333 17.6562 18.8333C17.6562 18.4167 17.6562 18.0208 17.6562 17.6042C17.8437 17.5365 18.0417 17.4844 18.2292 17.3958C19.2031 16.9479 19.7865 16.1875 19.9635 15.1302C19.9687 15.099 19.9844 15.0729 20 15.0417C20 14.8333 20 14.625 20 14.4167C19.8437 13.8281 19.7292 13.224 19.5312 12.651C18.9115 10.8698 18.2604 9.10417 17.6146 7.33333ZM5.53646 16.0729C5.63021 15.8646 5.69792 15.651 5.78646 15.4427C5.8125 15.3854 5.86458 15.3021 5.90625 15.3021C6.28125 15.2917 6.66146 15.2969 7.05208 15.2969C7.05208 15.7031 7.05208 16.0781 7.05208 16.4635C6.47396 16.4635 5.90625 16.4635 5.3125 16.4635C5.39062 16.3281 5.47917 16.2083 5.53646 16.0729ZM5.51562 12.9427C6.03125 12.9427 6.53125 12.9427 7.04687 12.9427C7.04687 13.3281 7.04687 13.7083 7.04687 14.1198C6.77083 14.1198 6.48437 14.1198 6.20312 14.1198C5.82292 14.1198 5.82292 14.1198 5.72917 13.7552C5.66146 13.4896 5.58854 13.224 5.51562 12.9427ZM2.11458 16.2604C1.47917 15.9219 1.13542 15.3646 1.1875 14.651C1.22396 14.1719 1.35937 13.6927 1.51042 13.2292C1.94792 11.9167 2.41667 10.6146 2.86979 9.30729C2.88542 9.26562 2.90625 9.22396 2.94271 9.13542C3.57292 10.8958 4.27083 12.5885 4.65625 14.3802C4.80729 15.0833 4.55729 15.6875 3.97917 16.1146C3.40625 16.5521 2.76042 16.6042 2.11458 16.2604ZM7.05208 18.8125C5.88021 18.8125 4.71354 18.8125 3.53125 18.8125C3.53125 18.4323 3.53125 18.0521 3.53125 17.6615C4.70313 17.6615 5.875 17.6615 7.05208 17.6615C7.05208 18.0469 7.05208 18.4219 7.05208 18.8125ZM11.1823 16.474C10.8646 16.4792 10.5833 16.1979 10.5885 15.8802C10.5885 15.5521 10.8646 15.2917 11.1927 15.2969C11.5156 15.3021 11.7656 15.5677 11.7656 15.8906C11.7604 16.2083 11.5 16.474 11.1823 16.474ZM14.1198 18.6302C14.1198 18.6875 14.1146 18.7448 14.1094 18.8177C13.3177 18.8177 12.5521 18.8177 11.7708 18.8177C11.7708 18.3906 11.7708 17.974 11.7708 17.625C12.0573 17.3854 12.349 17.2083 12.5521 16.9635C13.1979 16.1771 13.0052 14.9948 12.1615 14.4271C11.3177 13.8594 10.1667 14.1198 9.65104 15C9.13542 15.8802 9.47917 17.0156 10.401 17.4583C10.5469 17.5313 10.599 17.6042 10.5937 17.7604C10.5833 18.1042 10.5885 18.4479 10.5885 18.8125C9.80729 18.8125 9.03125 18.8125 8.23438 18.8125C8.23438 18.7292 8.23438 18.6563 8.23438 18.5781C8.23438 16.5521 8.23438 14.5313 8.23438 12.5052C8.23438 11.9844 8.02083 11.7656 7.50521 11.7656C6.97396 11.7656 6.44271 11.7656 5.89583 11.7656C5.89583 8.32292 5.89583 4.89583 5.89583 1.44792C5.95833 1.46875 6.01562 1.47917 6.06771 1.5C8.69792 2.48437 11.3229 3.47396 13.9531 4.45312C14.0885 4.50521 14.125 4.56771 14.125 4.70833C14.1198 9.34896 14.1198 13.9896 14.1198 18.6302ZM16.4688 18.8229C16.0781 18.8229 15.7031 18.8229 15.3125 18.8229C15.3125 18.25 15.3125 17.6823 15.3125 17.1198C15.6875 17.2865 16.0677 17.4583 16.4688 17.6354C16.4688 17.9948 16.4688 18.3958 16.4688 18.8229ZM18.4531 15.7917C17.9479 16.4375 17.0677 16.6563 16.3281 16.3125C15.5833 15.9688 15.1354 15.1615 15.3437 14.3698C15.6406 13.2604 16 12.1667 16.349 11.0729C16.5521 10.4375 16.8021 9.81771 17.0312 9.1875C17.0469 9.1875 17.0625 9.1875 17.0781 9.1875C17.1719 9.4375 17.2708 9.68229 17.3542 9.93229C17.8125 11.3177 18.276 12.7031 18.724 14.0937C18.9219 14.6979 18.8542 15.276 18.4531 15.7917Z" fill="white"/>
<path d="M12.3492 7.06237C11.568 7.06237 10.7867 7.06237 10.0055 7.06237C9.22941 7.06237 8.45858 7.05717 7.68253 7.06237C7.32316 7.06237 7.07316 7.30196 7.06795 7.63008C7.06274 7.96862 7.31274 8.22904 7.67733 8.22904C9.2242 8.23425 10.7763 8.22904 12.3232 8.22904C12.5367 8.22904 12.719 8.15091 12.8388 7.96341C12.9638 7.77591 12.9742 7.57279 12.87 7.36966C12.7607 7.17175 12.5836 7.06237 12.3492 7.06237Z" fill="white"/>
<path d="M7.70312 5.88041C8.83854 5.88562 9.97917 5.88562 11.1146 5.8752C11.25 5.8752 11.401 5.82832 11.5156 5.76062C11.7292 5.63041 11.8073 5.35957 11.7344 5.1252C11.651 4.86478 11.4531 4.71374 11.1615 4.71374C10.5781 4.70853 9.98958 4.71374 9.40625 4.71374C8.83854 4.71374 8.27604 4.71374 7.70833 4.71374C7.32292 4.71374 7.06771 4.94812 7.0625 5.29187C7.0625 5.63041 7.3125 5.8752 7.70312 5.88041Z" fill="white"/>
<path d="M12.2916 11.7656C11.552 11.7656 10.8072 11.7656 10.0676 11.7656C9.68741 11.7656 9.42179 12.0104 9.41658 12.349C9.41137 12.6927 9.67179 12.9323 10.0572 12.9375C10.427 12.9427 10.7968 12.9375 11.1718 12.9375C11.5364 12.9375 11.901 12.9375 12.2655 12.9375C12.276 12.9375 12.2916 12.9375 12.302 12.9375C12.6874 12.9323 12.9426 12.6979 12.9374 12.349C12.9322 12.0052 12.6718 11.7656 12.2916 11.7656Z" fill="white"/>
<path d="M12.2501 10.5834C12.6095 10.5834 12.8699 10.3334 12.8699 9.99483C12.8699 9.66149 12.6095 9.4167 12.2449 9.41149C11.948 9.40629 11.6459 9.41149 11.349 9.41149C11.198 9.41149 11.0417 9.41149 10.8907 9.41149C10.7397 9.41149 10.5834 9.41149 10.4324 9.41149C10.073 9.4167 9.80737 9.6667 9.81258 10C9.81258 10.3334 10.0782 10.5834 10.4376 10.5834C11.0417 10.5886 11.6459 10.5886 12.2501 10.5834Z" fill="white"/>
<path d="M12.2448 9.41687C11.9479 9.41166 11.6458 9.41687 11.349 9.41687C11.1979 9.41687 11.0417 9.41687 10.8906 9.41687C11.0417 9.41687 11.1979 9.41687 11.349 9.41687C11.6458 9.41687 11.9479 9.41166 12.2448 9.41687Z" fill="white"/>
<path d="M7.95822 9.4165C7.84884 9.4113 7.73947 9.4113 7.62489 9.4165C7.31759 9.43213 7.07801 9.6665 7.06239 9.95817C7.04676 10.2603 7.24468 10.5207 7.54155 10.5728C7.63009 10.5884 7.72384 10.5728 7.81239 10.5728C7.81239 10.578 7.81239 10.578 7.81239 10.5832C7.85926 10.5832 7.90093 10.5832 7.9478 10.5832C8.29676 10.5728 8.54676 10.328 8.55197 9.99984C8.55718 9.67171 8.30718 9.42171 7.95822 9.4165Z" fill="white"/>
</svg>
