<svg width="17" height="20" viewBox="0 0 17 20" fill="none" xmlns="http://www.w3.org/2000/svg">
<path d="M16.2761 4.99987C16.2761 4.43142 16.0209 4.1762 15.4524 4.1762C13.3295 4.1762 11.2065 4.1762 9.08353 4.1762C9.00232 4.1762 8.93272 4.1762 8.82831 4.1762C8.82831 3.68897 8.81671 3.21333 8.82831 2.73769C8.85151 2.23885 8.60789 1.85602 7.94664 1.85602C5.83527 1.87922 3.7239 1.86762 1.61253 1.86762C1.53132 1.86762 1.46172 1.86762 1.35731 1.86762C1.35731 1.77481 1.35731 1.70521 1.35731 1.6356C1.35731 1.31078 1.36891 0.985949 1.35731 0.661123C1.36891 0.313096 1.11369 0.0462742 0.765661 -0.000129519C0.440835 -0.0349323 0.12761 0.173884 0.0348028 0.49871C0.0116009 0.61472 0.0116009 0.753931 0.0116009 0.881541C0.0116009 6.94883 0.0116009 13.0161 0 19.0834C0 19.5126 0.116009 19.8259 0.522042 19.9999C0.62645 19.9999 0.730859 19.9999 0.835267 19.9999C1.2529 19.8607 1.39211 19.559 1.39211 19.1298C1.38051 17.0068 1.39211 14.8839 1.39211 12.7609C1.39211 12.6797 1.39211 12.6101 1.39211 12.5289C3.42227 12.5289 5.42923 12.5289 7.4478 12.5289C7.4478 13.0277 7.4478 13.5034 7.4478 13.9906C7.4478 14.5706 7.71462 14.8375 8.29466 14.8375C10.6729 14.8375 13.0626 14.8375 15.4408 14.8375C16.0209 14.8375 16.2761 14.5822 16.2761 14.0022C16.2761 11.0092 16.2761 8.00451 16.2761 4.99987ZM7.4362 11.1136C5.42923 11.1136 3.42227 11.1136 1.40371 11.1136C1.40371 8.49175 1.40371 5.88154 1.40371 3.25973C3.41067 3.25973 5.41763 3.25973 7.4362 3.25973C7.4362 5.88154 7.4362 8.49175 7.4362 11.1136ZM14.884 13.4337C12.877 13.4337 10.8701 13.4337 8.86311 13.4337C8.86311 10.8235 8.86311 8.20173 8.86311 5.57992C10.8817 5.57992 12.877 5.57992 14.884 5.57992C14.884 8.20173 14.884 10.8119 14.884 13.4337Z" fill="white"/>
</svg>
