<svg width="26" height="27" viewBox="0 0 26 27" fill="none" xmlns="http://www.w3.org/2000/svg">
<path fill-rule="evenodd" clip-rule="evenodd" d="M25.75 13.3963C25.75 20.4248 20.0416 26.1226 13 26.1226C5.95837 26.1226 0.25 20.4248 0.25 13.3963C0.25 6.3677 5.95837 0.669922 13 0.669922C20.0416 0.669922 25.75 6.3677 25.75 13.3963ZM6.62557 19.7589C6.23468 19.3687 6.23468 18.7361 6.62557 18.346L11.5845 13.3963L6.62557 8.44656C6.23468 8.0564 6.23468 7.42382 6.62557 7.03366C7.01646 6.6435 7.65021 6.6435 8.0411 7.03366L13 11.9834L17.9589 7.03366C18.3498 6.6435 18.9835 6.6435 19.3744 7.03366C19.7653 7.42383 19.7653 8.0564 19.3744 8.44656L14.4155 13.3963L19.3744 18.346C19.7653 18.7361 19.7653 19.3687 19.3744 19.7589C18.9835 20.149 18.3498 20.149 17.9589 19.7589L13 14.8092L8.0411 19.7589C7.65021 20.149 7.01646 20.149 6.62557 19.7589Z" fill="black"/>
</svg>
