<svg width="20" height="20" viewBox="0 0 20 20" fill="none" xmlns="http://www.w3.org/2000/svg">
<path d="M10 17.4998C9.01509 17.4998 8.03982 17.3058 7.12987 16.9289C6.21993 16.5519 5.39314 15.9995 4.6967 15.3031C4.00026 14.6066 3.44781 13.7798 3.0709 12.8699C2.69399 11.9599 2.5 10.9847 2.5 9.99975C2.5 9.01484 2.69399 8.03957 3.0709 7.12963C3.44781 6.21969 4.00026 5.39289 4.6967 4.69645C5.39314 4.00001 6.21993 3.44757 7.12988 3.07066C8.03982 2.69375 9.01509 2.49976 10 2.49976C10.9849 2.49976 11.9602 2.69375 12.8701 3.07066C13.7801 3.44757 14.6069 4.00002 15.3033 4.69646C15.9997 5.3929 16.5522 6.21969 16.9291 7.12963C17.306 8.03957 17.5 9.01484 17.5 9.99976C17.5 10.9847 17.306 11.9599 16.9291 12.8699C16.5522 13.7798 15.9997 14.6066 15.3033 15.3031C14.6069 15.9995 13.7801 16.5519 12.8701 16.9289C11.9602 17.3058 10.9849 17.4998 10 17.4998L10 17.4998Z" stroke="#969BA0" strokeWidth="2" strokeLinecap="round"/>
<path d="M7.5 7.49976L12.5 12.4998" stroke="#969BA0" strokeWidth="2" strokeLinecap="round"/>
<path d="M12.5 7.49976L7.5 12.4998" stroke="#969BA0" strokeWidth="2" strokeLinecap="round"/>
</svg>
