<svg width="24" height="28" viewBox="0 0 24 28" fill="none" xmlns="http://www.w3.org/2000/svg">
<path fillRule="evenodd" clipRule="evenodd" d="M13.3333 26C13.3333 26.7373 13.9293 27.3333 14.6667 27.3333H18.6667C20.0813 27.3333 21.4373 26.772 22.4373 25.772C23.4373 24.772 24 23.4147 24 22C24 21.2347 24 20.6667 24 20.6667C24 19.9307 23.4027 19.3333 22.6667 19.3333H14.6667C13.9293 19.3333 13.3333 19.9307 13.3333 20.6667V26ZM9.33333 27.3333C10.0693 27.3333 10.6667 26.7373 10.6667 26V12.6667C10.6667 11.9307 10.0693 11.3333 9.33333 11.3333H1.33333C0.596 11.3333 0 11.9307 0 12.6667V22C0 23.4147 0.56133 24.772 1.56133 25.772C2.56133 26.772 3.91867 27.3333 5.33333 27.3333H9.33333ZM21.3333 22H16V24.6667H18.6667C19.3733 24.6667 20.052 24.3866 20.552 23.8866C21.052 23.3866 21.3333 22.708 21.3333 22ZM8 24.6667V14H2.66667V22C2.66667 22.708 2.94666 23.3866 3.448 23.8866C3.948 24.3866 4.62533 24.6667 5.33333 24.6667H8ZM14.6667 0.666656C13.9293 0.666656 13.3333 1.26399 13.3333 1.99999V15.3333C13.3333 16.0707 13.9293 16.6667 14.6667 16.6667H22.6667C23.4027 16.6667 24 16.0707 24 15.3333V5.99999C24 4.58666 23.4373 3.22932 22.4373 2.22932C21.4373 1.22932 20.0813 0.666656 18.6667 0.666656H14.6667ZM16 3.33332V14H21.3333V5.99999C21.3333 5.29332 21.052 4.61465 20.552 4.11465C20.052 3.61465 19.3733 3.33332 18.6667 3.33332H16ZM10.6667 1.99999C10.6667 1.26399 10.0693 0.666656 9.33333 0.666656H5.33333C3.91867 0.666656 2.56133 1.22932 1.56133 2.22932C0.56133 3.22932 0 4.58666 0 5.99999V7.33332C0 8.07066 0.596 8.66666 1.33333 8.66666H9.33333C10.0693 8.66666 10.6667 8.07066 10.6667 7.33332V1.99999ZM8 3.33332H5.33333C4.62533 3.33332 3.948 3.61465 3.448 4.11465C2.94666 4.61465 2.66667 5.29332 2.66667 5.99999H8V3.33332Z" fill="#0868AA"/>
</svg>
