<svg width="14" height="18" viewBox="0 0 14 18" fill="none" xmlns="http://www.w3.org/2000/svg">
<path d="M11.8751 7.125C12.1735 7.125 12.4596 7.00647 12.6706 6.7955C12.8816 6.58452 13.0001 6.29837 13.0001 6V5.48475C12.9987 4.42836 12.5784 3.41563 11.8314 2.66864C11.0845 1.92166 10.0717 1.50139 9.01534 1.5H8.12509V1.125C8.12509 0.826631 8.00656 0.540483 7.79558 0.329505C7.58461 0.118526 7.29846 0 7.00009 0C6.70172 0 6.41557 0.118526 6.20459 0.329505C5.99362 0.540483 5.87509 0.826631 5.87509 1.125V1.5H4.98484C4.0282 1.49857 3.10297 1.84136 2.37818 2.46573C1.65338 3.0901 1.1774 3.95438 1.03719 4.90069C0.896968 5.847 1.10187 6.81217 1.61447 7.61989C2.12707 8.42761 2.91314 9.02396 3.82909 9.3L5.87509 9.8595V14.25H4.98484C4.52494 14.2494 4.08404 14.0664 3.75884 13.7412C3.43364 13.416 3.25068 12.9752 3.25009 12.5153V12C3.25009 11.7016 3.13156 11.4155 2.92058 11.2045C2.70961 10.9935 2.42346 10.875 2.12509 10.875C1.82672 10.875 1.54057 10.9935 1.32959 11.2045C1.11861 11.4155 1.00009 11.7016 1.00009 12V12.5153C1.00148 13.5716 1.42174 14.5844 2.16873 15.3314C2.91571 16.0783 3.92844 16.4986 4.98484 16.5H5.87509V16.875C5.87509 17.1734 5.99362 17.4595 6.20459 17.6705C6.41557 17.8815 6.70172 18 7.00009 18C7.29846 18 7.58461 17.8815 7.79558 17.6705C8.00656 17.4595 8.12509 17.1734 8.12509 16.875V16.5H9.01534C9.97198 16.5014 10.8972 16.1586 11.622 15.5343C12.3468 14.9099 12.8228 14.0456 12.963 13.0993C13.1032 12.153 12.8983 11.1878 12.3857 10.3801C11.8731 9.57239 11.087 8.97604 10.1711 8.7L8.12509 8.142V3.75H9.01534C9.47524 3.7506 9.91613 3.93355 10.2413 4.25875C10.5665 4.58395 10.7495 5.02485 10.7501 5.48475V6C10.7501 6.29837 10.8686 6.58452 11.0796 6.7955C11.2906 7.00647 11.5767 7.125 11.8751 7.125ZM9.53659 10.8593C9.93225 10.9839 10.2702 11.2462 10.4891 11.5986C10.708 11.951 10.7935 12.3701 10.73 12.7801C10.6665 13.19 10.4583 13.5637 10.1431 13.8333C9.82784 14.103 9.42643 14.2508 9.01159 14.25H8.12509V10.4738L9.53659 10.8593ZM5.87509 7.52625L4.46359 7.14075C4.06824 7.01616 3.73054 6.75418 3.51159 6.4022C3.29264 6.05023 3.2069 5.63151 3.26988 5.2218C3.33286 4.8121 3.54041 4.43847 3.85497 4.16851C4.16953 3.89855 4.57032 3.75009 4.98484 3.75H5.87509V7.52625Z" fill="white"/>
</svg>
