<svg width="15" height="15" viewBox="0 0 15 15" fill="none" xmlns="http://www.w3.org/2000/svg">
<path d="M2.16289 9.02561L2.16289 9.02561C2.026 9.26737 1.96094 9.53104 1.90953 9.73934C1.90487 9.75825 1.90031 9.77671 1.89583 9.79465L1.39896 11.7821C1.39616 11.7933 1.39324 11.8049 1.39022 11.8169C1.3534 11.9634 1.3024 12.1663 1.28483 12.3459C1.26461 12.5526 1.25792 13.0046 1.6267 13.3734C1.99548 13.7422 2.44744 13.7355 2.65413 13.7153C2.83375 13.6977 3.03666 13.6467 3.18315 13.6099C3.19515 13.6068 3.20678 13.6039 3.21798 13.6011L5.20543 13.1043C5.22337 13.0998 5.24182 13.0952 5.26073 13.0906C5.46904 13.0391 5.7327 12.9741 5.97447 12.8372L5.97448 12.8372C6.21624 12.7003 6.40768 12.5077 6.55893 12.3555C6.57267 12.3417 6.58607 12.3282 6.59915 12.3151L12.4574 6.45686C12.4671 6.44716 12.4768 6.43746 12.4865 6.42778C12.7156 6.1988 12.9385 5.97597 13.106 5.76954C13.2916 5.5408 13.4819 5.24751 13.5529 4.86253L12.5695 4.68114L13.5529 4.86252C13.5972 4.6227 13.5972 4.37681 13.5529 4.13699L12.5695 4.31837L13.5529 4.13698C13.4819 3.752 13.2916 3.45872 13.106 3.22997C12.9385 3.02356 12.7156 2.80073 12.4866 2.57177C12.4769 2.56208 12.4672 2.55237 12.4574 2.54265L11.7503 3.24976L12.4574 2.54265C12.4477 2.53294 12.438 2.52324 12.4283 2.51356C12.1994 2.28451 11.9765 2.06161 11.7701 1.8941C11.5414 1.70849 11.2481 1.51815 10.8631 1.44715C10.6233 1.40291 10.3774 1.40291 10.1376 1.44715C9.75257 1.51815 9.45929 1.70849 9.23054 1.8941C9.02412 2.0616 8.80129 2.2845 8.57232 2.51354C8.56263 2.52323 8.55293 2.53294 8.54322 2.54265L2.68493 8.40094C2.67186 8.41401 2.65838 8.42741 2.64456 8.44114C2.49239 8.59239 2.29978 8.78384 2.16289 9.02561Z" stroke="#969BA0" strokeWidth="2"/>
</svg>
