<svg width="15" height="15" viewBox="0 0 15 15" fill="none" xmlns="http://www.w3.org/2000/svg">
<path fill-rule="evenodd" clip-rule="evenodd" d="M12.459 5.8743L13.8333 4.49994C14.0679 4.26544 14.1851 4.14819 14.2696 4.03598C14.8056 3.32377 14.8056 2.34278 14.2696 1.63057C14.1851 1.51836 14.0679 1.40111 13.8333 1.16661C13.5988 0.932106 13.4816 0.814855 13.3694 0.730405C12.6572 0.194357 11.6762 0.194357 10.964 0.730405C10.8518 0.814852 10.7345 0.932097 10.5 1.16658L10.5 1.16661L9.1064 2.56023C9.90331 3.94047 11.06 5.08825 12.459 5.8743ZM7.6518 4.01482L2.18973 9.4769C1.76467 9.90196 1.55214 10.1145 1.4124 10.3756C1.27267 10.6367 1.21372 10.9314 1.09583 11.5209L0.647104 13.7645C0.580582 14.0971 0.547321 14.2634 0.641929 14.358C0.736537 14.4526 0.902842 14.4194 1.23545 14.3529L3.4791 13.9041C4.06855 13.7862 4.36328 13.7273 4.62437 13.5876C4.88547 13.4478 5.098 13.2353 5.52306 12.8102L11.0006 7.33267C9.65279 6.48191 8.51062 5.34748 7.6518 4.01482Z" fill="#0F0F0F"/>
</svg>
