<svg width="22" height="22" viewBox="0 0 22 22" fill="none" xmlns="http://www.w3.org/2000/svg">
<path d="M17.2751 13.2665H18.0811C19.024 13.2665 19.4954 13.2665 19.7883 12.9736C20.0811 12.6807 20.0811 12.2093 20.0811 11.2665V9.08887C20.0811 7.20325 20.0811 6.26044 19.4954 5.67465C18.9096 5.08887 17.9668 5.08887 16.0811 5.08887H5C3.11438 5.08887 2.17157 5.08887 1.58579 5.67465C1 6.26044 1 7.20325 1 9.08887V12.2665C1 12.7379 1 12.9736 1.14645 13.1201C1.29289 13.2665 1.5286 13.2665 2 13.2665H3.80605" stroke="white" strokeWidth="2"/>
<path d="M4.40723 20.069L4.40723 10.4962C4.40723 9.55344 4.40723 9.08203 4.70012 8.78914C4.99301 8.49624 5.46442 8.49624 6.40723 8.49624L14.6737 8.49624C15.6165 8.49624 16.0879 8.49624 16.3808 8.78914C16.6737 9.08203 16.6737 9.55344 16.6737 10.4962L16.6737 20.069C16.6737 20.3855 16.6737 20.5438 16.5699 20.6186C16.466 20.6935 16.3159 20.6434 16.0156 20.5433L13.502 19.7055C13.4161 19.6768 13.3731 19.6625 13.3288 19.6638C13.2844 19.6651 13.2424 19.6819 13.1582 19.7156L10.7261 20.6884C10.6344 20.7251 10.5886 20.7434 10.5404 20.7434C10.4923 20.7434 10.4465 20.7251 10.3548 20.6884L7.92267 19.7156C7.83854 19.6819 7.79647 19.6651 7.75214 19.6638C7.70782 19.6625 7.66483 19.6768 7.57887 19.7055L5.06534 20.5433C4.76503 20.6434 4.61487 20.6935 4.51105 20.6186C4.40723 20.5438 4.40723 20.3855 4.40723 20.069Z" stroke="white" strokeWidth="2"/>
<path d="M8.83691 12.2444L11.5628 12.2444" stroke="white" strokeWidth="2" strokeLinecap="round"/>
<path d="M8.83691 15.6516L12.2443 15.6516" stroke="white" strokeWidth="2" strokeLinecap="round"/>
<path d="M16.6737 5.08882V4.6C16.6737 2.90294 16.6737 2.05442 16.1465 1.52721C15.6193 1 14.7707 1 13.0737 1H8.00723C6.31017 1 5.46164 1 4.93443 1.52721C4.40723 2.05442 4.40723 2.90294 4.40723 4.6V5.08882" stroke="white" strokeWidth="2"/>
</svg>
