<svg width="21" height="20" viewBox="0 0 21 20" fill="none" xmlns="http://www.w3.org/2000/svg">
<path d="M7.62393 18.9203L7.94016 19.869H7.94016L7.62393 18.9203ZM13.3739 17.0036L13.0577 16.0549H13.0577L13.3739 17.0036ZM19.0479 4.80754L19.755 5.51465L19.0479 4.80754ZM6.67293 9.84675L7.38003 9.13965L6.67293 9.84675ZM2.34082 2.13965H18.3408V0.139648H2.34082V2.13965ZM2.34082 4.10043V2.13965H0.34082V4.10043H2.34082ZM7.38003 9.13965L2.34082 4.10043L0.926607 5.51465L5.96582 10.5539L7.38003 9.13965ZM5.96582 10.5539V18.4459H7.96582V10.5539H5.96582ZM5.96582 18.4459C5.96582 19.4698 6.96887 20.1927 7.94016 19.869L7.30771 17.9716C7.63147 17.8637 7.96582 18.1047 7.96582 18.4459H5.96582ZM7.94016 19.869L13.6902 17.9523L13.0577 16.0549L7.30771 17.9716L7.94016 19.869ZM13.6902 17.9523C14.3027 17.7481 14.7158 17.1749 14.7158 16.5293H12.7158C12.7158 16.3141 12.8535 16.123 13.0577 16.0549L13.6902 17.9523ZM14.7158 16.5293V10.5539H12.7158V16.5293H14.7158ZM18.3408 4.10043L13.3016 9.13965L14.7158 10.5539L19.755 5.51465L18.3408 4.10043ZM18.3408 2.13965V4.10043H20.3408V2.13965H18.3408ZM19.755 5.51465C20.1301 5.13958 20.3408 4.63087 20.3408 4.10043H18.3408L19.755 5.51465ZM14.7158 10.5539V10.5539L13.3016 9.13965C12.9265 9.51472 12.7158 10.0234 12.7158 10.5539H14.7158ZM5.96582 10.5539H7.96582C7.96582 10.0234 7.75511 9.51472 7.38003 9.13965L5.96582 10.5539ZM0.34082 4.10043C0.34082 4.63087 0.551534 5.13958 0.926607 5.51465L2.34082 4.10043H2.34082H0.34082ZM18.3408 2.13965V2.13965H20.3408C20.3408 1.03508 19.4454 0.139648 18.3408 0.139648V2.13965ZM2.34082 0.139648C1.23625 0.139648 0.34082 1.03508 0.34082 2.13965H2.34082V2.13965V0.139648Z" fill="#A5A5A5"/>
</svg>
