<svg width="20" height="22" viewBox="0 0 20 22" fill="none" xmlns="http://www.w3.org/2000/svg">
<path d="M1.83325 10.8862C1.83325 9.30215 1.83325 8.51013 2.15346 7.81393C2.47366 7.11773 3.07501 6.60229 4.27771 5.5714L5.44438 4.5714C7.61825 2.70809 8.70519 1.77643 9.99992 1.77643C11.2947 1.77643 12.3816 2.70809 14.5555 4.5714L15.7221 5.5714C16.9248 6.60229 17.5262 7.11773 17.8464 7.81393C18.1666 8.51013 18.1666 9.30215 18.1666 10.8862V15.8333C18.1666 18.0332 18.1666 19.1332 17.4832 19.8166C16.7998 20.5 15.6998 20.5 13.4999 20.5H6.49992C4.30003 20.5 3.20009 20.5 2.51667 19.8166C1.83325 19.1332 1.83325 18.0332 1.83325 15.8333V10.8862Z" stroke="#969BA0" strokeWidth="2"/>
<path d="M12.9166 20.5V14.5C12.9166 13.9477 12.4689 13.5 11.9166 13.5H8.08325C7.53097 13.5 7.08325 13.9477 7.08325 14.5V20.5" stroke="#969BA0" strokeWidth="2" strokeLinecap="round" strokeLinejoin="round"/>
</svg>
