<svg width="34" height="34" viewBox="0 0 34 34" fill="none" xmlns="http://www.w3.org/2000/svg">
<rect width="34" height="34" fill="#0868AA"/>
<g clip-path="url(#clip0_173_4653)">
<path d="M26.378 25.2722C26.3669 25.2722 26.3558 25.261 26.3335 25.2444C26.3335 25.1666 26.3335 25.0833 26.3335 24.9999C26.3335 21.6055 26.3335 18.2111 26.3335 14.811C26.3335 13.8777 25.728 13.2722 24.8002 13.2722C23.6113 13.2722 22.428 13.2722 21.2391 13.2722C21.1669 13.2722 21.0891 13.2722 21.0058 13.2722C21.0058 13.1722 21.0058 13.0944 21.0058 13.0222C21.0058 11.5222 21.0058 10.0222 21.0058 8.52216C21.0058 7.37216 20.0002 6.69438 18.9391 7.13327C15.7391 8.44438 12.5502 9.76105 9.35577 11.0722C8.6391 11.3722 8.33354 11.8222 8.33354 12.5999C8.33354 16.7333 8.33354 20.861 8.33354 24.9944C8.33354 25.0777 8.33354 25.161 8.33354 25.2777C8.09466 25.2777 7.88354 25.2722 7.66688 25.2777C7.36688 25.2833 7.12799 25.4555 7.03354 25.7333C6.87799 26.1944 7.21688 26.611 7.75577 26.611C13.9169 26.611 20.0724 26.611 26.2335 26.611C26.6669 26.611 26.9613 26.3722 26.9947 26.0055C27.0335 25.6388 26.7947 25.3555 26.378 25.2722ZM19.6613 25.2666C16.3224 25.2666 13.0058 25.2666 9.66688 25.2666C9.66688 25.1833 9.66688 25.111 9.66688 25.0333C9.66688 20.8999 9.66688 16.7722 9.66132 12.6388C9.66132 12.4499 9.71132 12.361 9.8891 12.2888C13.0558 10.9944 16.2224 9.68883 19.3891 8.38327C19.6335 8.28327 19.6613 8.29994 19.6613 8.54438C19.6613 14.0722 19.6613 19.5944 19.6613 25.1222C19.6669 25.1666 19.6669 25.2055 19.6613 25.2666ZM25.0002 25.1055C25.0002 25.1555 25.0002 25.1999 25.0002 25.2611C23.6558 25.2611 22.3391 25.2611 21.0113 25.2611C21.0113 21.7111 21.0113 18.1666 21.0113 14.6055C21.0724 14.6055 21.128 14.6055 21.1835 14.6055C22.378 14.6055 23.5724 14.611 24.7669 14.5999C24.9447 14.5999 25.0058 14.6555 25.0058 14.8388C25.0002 18.261 25.0002 21.6833 25.0002 25.1055Z" fill="white"/>
<path d="M16.2613 13.939C15.7335 13.939 15.2057 13.939 14.6779 13.939C14.1446 13.939 13.6113 13.939 13.0724 13.939C12.6335 13.939 12.3335 14.2167 12.3335 14.6112C12.3335 14.9945 12.6391 15.2723 13.0613 15.2723C14.1279 15.2723 15.2002 15.2723 16.2668 15.2723C16.6946 15.2723 16.9946 14.9945 16.9946 14.6112C17.0057 14.2167 16.7002 13.9445 16.2613 13.939Z" fill="white"/>
<path d="M16.2725 16.6055C15.7391 16.6055 15.2058 16.6055 14.6669 16.6055C14.128 16.6055 13.6002 16.6055 13.0613 16.6055C12.6336 16.6055 12.3336 16.8777 12.3336 17.2666C12.328 17.6499 12.6336 17.9388 13.0502 17.9388C14.128 17.9388 15.2002 17.9388 16.278 17.9388C16.7002 17.9388 17.0002 17.6555 16.9947 17.2666C17.0002 16.8832 16.6947 16.611 16.2725 16.6055Z" fill="white"/>
<path d="M16.2613 19.272C15.2002 19.272 14.1391 19.272 13.0724 19.272C12.6335 19.272 12.3335 19.5498 12.3335 19.9442C12.3391 20.3275 12.6391 20.5998 13.0668 20.6053C13.6002 20.6053 14.1335 20.6053 14.6724 20.6053C15.2002 20.6053 15.7279 20.6053 16.2557 20.6053C16.7002 20.6053 17.0002 20.3331 17.0002 19.9386C17.0002 19.5498 16.7002 19.272 16.2613 19.272Z" fill="white"/>
<path d="M16.2835 21.939C15.7502 21.939 15.2168 21.939 14.6779 21.939C14.4057 21.939 14.1279 21.939 13.8557 21.939C13.5835 21.939 13.3057 21.939 13.0335 21.939C12.6279 21.939 12.3335 22.2279 12.3335 22.6056C12.3335 22.9834 12.6335 23.2723 13.0391 23.2723C14.1224 23.2723 15.2057 23.2723 16.2891 23.2723C16.7002 23.2723 16.9946 22.9945 17.0002 22.6167C17.0057 22.2279 16.7057 21.9445 16.2835 21.939Z" fill="white"/>
</g>
<defs>
<clipPath id="clip0_173_4653">
<rect width="20" height="19.6056" fill="white" transform="translate(7 7)"/>
</clipPath>
</defs>
</svg>
