<svg width="17" height="17" viewBox="0 0 17 17" fill="none" xmlns="http://www.w3.org/2000/svg">
<path d="M14.45 3.3999L13.5103 4.15164C13.1557 4.43534 12.7151 4.5899 12.2609 4.5899H10.0455C9.55626 4.5899 9.11111 4.87286 8.90344 5.31589V5.31589C8.66459 5.82543 8.79218 6.43156 9.21616 6.80158L10.5565 7.97136C11.8319 9.08441 12.4863 10.7482 12.3109 12.4318V12.4318C12.2497 13.0193 12.1138 13.5965 11.9064 14.1495L11.475 15.2999" stroke="#969BA0" strokeWidth="2"/>
<path d="M0.424805 7.225L3.04318 6.7886C4.25946 6.58589 5.31391 7.64035 5.1112 8.85662L5.0192 9.40863C4.81449 10.6369 5.43479 11.855 6.54852 12.4119V12.4119C7.44031 12.8578 7.90275 13.8632 7.66093 14.8305L7.22481 16.575" stroke="#969BA0" strokeWidth="2"/>
<circle cx="8.5" cy="8.5" r="7.5" stroke="#969BA0" strokeWidth="2"/>
</svg>
