<svg width="40" height="35" viewBox="0 0 40 35" fill="none" xmlns="http://www.w3.org/2000/svg">
<path d="M16.4606 27.3599L15.4754 26.2288L14.1767 27.3599L15.4754 28.491L16.4606 27.3599ZM22.0504 20.5019L15.4754 26.2288L17.4458 28.491L24.0208 22.7642L22.0504 20.5019ZM15.4754 28.491L22.0504 34.2178L24.0208 31.9556L17.4458 26.2288L15.4754 28.491Z" fill="#0868AA"/>
<path d="M9.78335 22.3489C8.51688 20.4383 8.00962 18.2171 8.34023 16.0298C8.67085 13.8425 9.82087 11.8113 11.6119 10.2513C13.403 8.69128 15.735 7.68962 18.2463 7.40166C20.7575 7.11369 23.3077 7.55552 25.5013 8.65861C27.6949 9.7617 29.4093 11.4644 30.3786 13.5027C31.348 15.5409 31.518 17.8008 30.8624 19.9318C30.2069 22.0628 28.7623 23.9458 26.7528 25.2889C24.7433 26.6319 22.2811 27.3599 19.7482 27.3599" stroke="#0868AA" strokeWidth="3" strokeLinecap="round"/>
</svg>
