<svg width="20" height="11" viewBox="0 0 20 11" fill="none" xmlns="http://www.w3.org/2000/svg">
<path d="M19.4573 5.03388C19.4571 5.03365 19.4569 5.03339 19.4566 5.03316L15.519 1.09782C15.224 0.803008 14.7469 0.804105 14.4533 1.10039C14.1597 1.39664 14.1608 1.87581 14.4558 2.17065L17.0995 4.81278H1.1403C0.724095 4.81278 0.386719 5.1516 0.386719 5.56958C0.386719 5.98756 0.724095 6.32638 1.1403 6.32638H17.0994L14.4558 8.96851C14.1608 9.26335 14.1597 9.74252 14.4533 10.0388C14.7469 10.3351 15.2241 10.3361 15.519 10.0413L19.4566 6.106C19.4569 6.10577 19.4571 6.10551 19.4573 6.10528C19.7525 5.80945 19.7515 5.32873 19.4573 5.03388Z" fill="white"/>
</svg>
