<svg width="22" height="20" viewBox="0 0 22 20" fill="none" xmlns="http://www.w3.org/2000/svg">
<path d="M21.1441 5.07519C20.5438 4.84862 19.949 4.5994 19.3543 4.36151C18.8728 4.16893 18.5953 4.27655 18.3631 4.73534C17.9892 5.483 17.6154 6.225 17.2472 6.97267C17.2076 7.0463 17.1679 7.11993 17.1 7.25021C16.9017 7.03497 16.7261 6.83673 16.5392 6.64415C16.2334 6.33262 15.9558 6.30997 15.5933 6.54786C15.3441 6.71212 15.1005 6.87638 14.8287 7.05763C14.5794 6.80841 14.3246 6.56485 14.0867 6.3043C13.8771 6.07774 13.6392 5.97012 13.3277 5.94746C11.4528 5.81719 9.57236 5.67558 7.69754 5.53398C6.91589 5.47734 6.12858 5.4207 5.34693 5.35839C5.30161 5.35273 5.25064 5.3414 5.194 5.33007C5.194 4.8203 5.18833 4.32186 5.19966 3.81775C5.19966 3.75545 5.30728 3.67049 5.38091 3.6365C6.55905 3.0531 6.83659 1.50113 5.90767 0.577878C5.31861 0.00580219 4.61626 -0.147129 3.8516 0.147405C3.10394 0.436275 2.68479 1.01968 2.64514 1.81832C2.59983 2.64528 2.98499 3.26267 3.72133 3.6365C3.85726 3.70447 3.91957 3.77244 3.91391 3.93104C3.89691 4.36151 3.90824 4.79198 3.90824 5.23378C3.78363 5.23378 3.67035 5.23945 3.56273 5.23378C3.09827 5.1998 2.63381 5.16015 2.16369 5.12616C1.73322 5.09784 1.54064 5.21113 1.36505 5.60195C0.923251 6.56485 0.487114 7.52775 0.0453129 8.49632C0.0339847 8.51897 0.0169924 8.54163 0 8.56428C0 10.0936 0 11.6229 0 13.1522C0.538091 13.8602 1.07052 14.5682 1.61427 15.2763C1.97678 15.7521 2.35061 16.2278 2.71878 16.7036C2.84905 16.8735 3.01331 16.9755 3.22288 17.0208C4.32739 17.2644 5.43189 17.5023 6.53073 17.7628C6.65534 17.7911 6.78561 17.8818 6.87057 17.978C7.32937 18.5331 7.7825 19.0995 8.2243 19.666C8.40555 19.8982 8.62645 20.0001 8.92099 19.9945C9.42509 19.9831 9.92353 19.9888 10.4276 19.9945C10.7335 19.9945 10.9544 19.8642 11.0903 19.5923C11.2943 19.1788 11.4982 18.7654 11.7077 18.3632C11.7417 18.2952 11.8267 18.2216 11.9003 18.2046C12.9878 17.978 14.0753 17.7628 15.1628 17.5419C15.2875 17.5136 15.3384 17.5816 15.3951 17.6665C15.8255 18.3236 16.2617 18.9749 16.6978 19.6263C16.981 20.0511 17.2642 20.1134 17.7004 19.8529C18.3517 19.462 18.9974 19.0769 19.6488 18.6861C20.0736 18.4255 20.1586 18.097 19.9037 17.6665C19.5865 17.1398 19.275 16.6073 18.9521 16.0862C18.8842 15.9786 18.8785 15.8937 18.9408 15.7804C19.2693 15.1403 19.5978 14.4946 19.9037 13.8432C19.9887 13.6563 20.0396 13.4411 20.0453 13.2372C20.0623 12.263 20.051 11.2831 20.051 10.3088C20.051 10.2125 20.0623 10.1106 20.0963 10.02C20.6231 8.68889 21.1611 7.35783 21.6936 6.02676C21.7049 5.99844 21.7276 5.97012 21.7445 5.9418C21.7445 5.82852 21.7445 5.71523 21.7445 5.60195C21.6313 5.31874 21.4104 5.17714 21.1441 5.07519ZM8.17332 6.84806C9.63466 6.95567 11.0903 7.06329 12.563 7.17091C12.5347 7.26154 12.5177 7.32384 12.495 7.39181C12.1269 8.40569 11.753 9.42523 11.3905 10.4391C11.3396 10.5807 11.2716 10.6317 11.1187 10.6317C10.1444 10.626 9.16454 10.626 8.17332 10.626C8.17332 9.37425 8.17332 8.12248 8.17332 6.84806ZM13.2597 11.9118C13.322 11.9118 13.4296 11.9684 13.4466 12.0194C13.6165 12.5348 13.7695 13.0559 13.9337 13.5997C11.0677 13.5997 8.24129 13.5997 5.39224 13.5997C5.40357 13.5487 5.40923 13.5091 5.42622 13.4751C5.66412 12.9936 5.90201 12.5122 6.15123 12.0364C6.18522 11.9741 6.28717 11.9118 6.35514 11.9118C8.66044 11.9061 10.9601 11.9061 13.2597 11.9118ZM3.90824 1.91461C3.90824 1.56343 4.19711 1.28589 4.54829 1.28589C4.89946 1.28589 5.18267 1.57476 5.18267 1.92027C5.177 2.26579 4.88247 2.56032 4.54262 2.55466C4.19711 2.55466 3.90824 2.26012 3.90824 1.91461ZM1.28009 8.92112C1.28009 8.85882 1.30841 8.79651 1.33673 8.73987C1.66525 8.02053 1.99943 7.30119 2.32229 6.58184C2.37327 6.46856 2.42991 6.42325 2.56018 6.43458C3.00198 6.47422 3.44378 6.50255 3.91391 6.53653C3.91391 6.62149 3.91391 6.69513 3.91391 6.77442C3.91391 7.53908 3.91391 8.30373 3.91391 9.06839C3.91391 9.4932 4.18578 9.78773 4.55961 9.78207C4.92778 9.77641 5.18833 9.48187 5.18833 9.07405C5.18833 8.34338 5.18833 7.61838 5.18833 6.88771C5.18833 6.81407 5.18833 6.73477 5.18833 6.63282C5.76607 6.67247 6.32116 6.71778 6.8819 6.75743C6.8819 8.05451 6.8819 9.32894 6.8819 10.6147C5.02407 10.6147 3.16624 10.6147 1.28009 10.6147C1.27443 10.037 1.27443 9.48187 1.28009 8.92112ZM3.16058 15.163C3.10394 15.1007 3.06429 15.061 3.02464 15.01C2.49221 14.3247 1.95978 13.6337 1.42169 12.9483C1.31408 12.8124 1.2631 12.6764 1.27443 12.5065C1.28575 12.3196 1.27443 12.127 1.27443 11.9174C2.43557 11.9174 3.58539 11.9174 4.78052 11.9174C4.23676 13.0106 3.70433 14.0755 3.16058 15.163ZM12.9935 16.6696C12.4157 16.7829 11.8437 16.9019 11.2659 17.0151C11.028 17.0605 10.8581 17.1907 10.7505 17.4116C10.5636 17.7968 10.3597 18.182 10.1784 18.5728C10.1274 18.6861 10.0595 18.7257 9.93486 18.72C9.65732 18.7087 9.34579 18.788 9.11923 18.6861C8.89833 18.5841 8.76805 18.2952 8.59813 18.0857C8.28094 17.6948 7.96375 17.304 7.65789 16.9075C7.52761 16.7376 7.36335 16.6357 7.15378 16.5903C6.17955 16.3808 5.21099 16.1599 4.20844 15.9333C4.37836 15.5935 4.52563 15.2876 4.68989 14.9817C4.71255 14.9364 4.78052 14.9081 4.83716 14.8911C4.87681 14.8798 4.92212 14.8854 4.96177 14.8854C8.00906 14.8854 11.062 14.8854 14.1093 14.8798C14.2849 14.8798 14.3699 14.9251 14.4152 15.1063C14.5228 15.5085 14.6531 15.8993 14.7833 16.3185C14.166 16.4374 13.5769 16.5564 12.9935 16.6696ZM18.7709 13.2315C18.7709 13.2882 18.7256 13.3505 18.6973 13.4071C18.3461 14.1151 18.0006 14.8288 17.6324 15.5255C17.4738 15.8313 17.4738 16.1032 17.6607 16.3978C17.9609 16.8679 18.2385 17.355 18.5387 17.8534C18.1762 18.0687 17.842 18.2726 17.4851 18.4822C17.3265 18.2443 17.1849 18.0064 17.0207 17.7911C16.3976 16.9868 15.9955 16.0862 15.7349 15.1007C15.4744 14.1095 15.1402 13.1409 14.84 12.161C14.8173 12.0817 14.8003 12.0024 14.7777 11.9061C16.1201 11.9061 17.4398 11.9061 18.7822 11.9061C18.7709 12.3592 18.7766 12.7954 18.7709 13.2315ZM19.5242 8.01486C19.3939 8.33772 19.2693 8.66057 19.1391 8.97777C18.9238 9.49886 18.6746 10.0143 18.7992 10.6147C16.7431 10.6147 14.7324 10.6147 12.682 10.6147C13.0275 9.66312 13.3673 8.72854 13.7298 7.72599C13.9111 7.92424 14.0583 8.0885 14.2113 8.24709C14.5398 8.57561 14.8003 8.59827 15.1912 8.33772C15.3894 8.20744 15.599 8.07717 15.7916 7.93557C15.9048 7.85061 15.9671 7.87326 16.0578 7.96389C16.2957 8.21311 16.5449 8.45667 16.7941 8.70022C17.1736 9.07405 17.6494 9.00042 17.8873 8.51897C18.3574 7.59006 18.8162 6.66114 19.2976 5.7039C19.6262 5.83418 19.949 5.96445 20.2832 6.10039C20.0227 6.75743 19.7734 7.38615 19.5242 8.01486Z" fill="white"/>
</svg>
