<svg width="32" height="32" viewBox="0 0 32 32" fill="none" xmlns="http://www.w3.org/2000/svg">
<path fillRule="evenodd" clipRule="evenodd" d="M0.117188 16.0419C0.117188 7.43355 7.09566 0.455078 15.704 0.455078C24.3124 0.455078 31.2909 7.43355 31.2909 16.0419C31.2909 20.5702 29.3599 24.6475 26.2764 27.4952C25.5257 25.575 24.2627 23.8875 22.6144 22.6227C20.6318 21.1014 18.2027 20.2769 15.7037 20.2769C13.2047 20.2769 10.7755 21.1014 8.79295 22.6227C7.14484 23.8874 5.88191 25.5747 5.13113 27.4947C2.04796 24.647 0.117188 20.5699 0.117188 16.0419ZM22.8053 29.7261C22.8206 29.7832 22.8382 29.8391 22.858 29.8937C20.7155 31.0025 18.2829 31.6288 15.704 31.6288C13.1249 31.6288 10.6921 31.0024 8.54942 29.8934C8.5692 29.8389 8.5868 29.7831 8.60208 29.7261C9.02097 28.1628 9.94399 26.7814 11.228 25.7961C12.512 24.8109 14.0852 24.2769 15.7037 24.2769C17.3221 24.2769 18.8954 24.8109 20.1794 25.7961C21.4634 26.7814 22.3864 28.1628 22.8053 29.7261ZM13.0283 11.366C13.0283 9.88805 14.2264 8.68994 15.7044 8.68994C17.1823 8.68994 18.3804 9.88805 18.3804 11.366C18.3804 12.8439 17.1823 14.0421 15.7044 14.0421C14.2264 14.0421 13.0283 12.8439 13.0283 11.366ZM15.7044 4.68994C12.0173 4.68994 9.02832 7.67891 9.02832 11.366C9.02832 15.0531 12.0173 18.0421 15.7044 18.0421C19.3915 18.0421 22.3804 15.0531 22.3804 11.366C22.3804 7.67891 19.3915 4.68994 15.7044 4.68994Z" fill="#0868AA"/>
</svg>
