<svg width="250" height="200" viewBox="0 0 250 200" fill="none" xmlns="http://www.w3.org/2000/svg">
<g clipPath="url(#clip0_2936_4563)">
<path d="M223.202 33.3218C157.734 33.3218 92.3355 33.3218 26.8675 33.3218C10.4832 33.3218 0 43.8042 0 60.1874C0 97.8133 0 135.509 0 173.134C0 189.448 10.4832 200 26.8675 200C59.4974 200 92.1272 200 124.757 200C141.211 200 157.665 200 174.118 200C190.572 200 207.026 200 223.48 199.931C226.118 199.931 228.895 199.722 231.463 199.028C242.849 196.043 250.069 186.324 250.069 174.176C250.069 136.203 250.069 98.1604 250.069 60.1874C250 43.8042 239.517 33.3218 223.202 33.3218ZM41.4468 83.3044C36.9342 83.1656 33.2547 79.3475 33.3241 74.8351C33.3935 70.3228 37.1425 66.6435 41.7245 66.6435C46.2372 66.713 49.9861 70.4617 49.9861 74.974C49.9861 79.6946 46.0983 83.4433 41.4468 83.3044ZM124.896 175.009C92.752 174.939 66.6482 148.698 66.6482 116.626C66.6482 84.554 92.8909 58.3825 124.965 58.3825C157.179 58.3825 183.421 84.6928 183.282 116.904C183.282 148.976 156.97 175.078 124.896 175.009Z" fill="#C1C1C7"/>
<path d="M165.925 5.13711C164.884 1.80494 161.968 0.208268 158.427 0.0694277C155.72 7.36117e-06 153.082 0.0694277 150.374 0.0694277C131.143 0.0694277 111.843 0.0694277 92.6123 0.0694277C88.9328 0.0694277 85.5309 1.24957 84.4201 4.79001C82.268 11.3155 80.7406 18.1187 78.9355 24.9913C109.83 24.9913 140.238 24.9913 171.202 24.9913C169.397 18.1187 167.869 11.5238 165.925 5.13711Z" fill="#C1C1C7"/>
<path d="M124.966 75.0434C102.055 75.0434 83.38 93.7175 83.3105 116.626C83.3105 139.674 101.986 158.417 125.035 158.348C147.945 158.348 166.621 139.674 166.69 116.765C166.69 93.7175 148.015 74.974 124.966 75.0434ZM150.375 124.957C145.585 125.165 141.905 121.555 141.628 116.279C141.211 107.185 134.477 100.382 125.59 99.9653C120.106 99.6876 116.496 96.1472 116.704 91.2183C116.912 86.4283 120.731 83.1656 126.076 83.3044C143.363 83.6515 158.151 98.5075 158.29 115.793C158.359 121 155.096 124.748 150.375 124.957Z" fill="#C1C1C7"/>
</g>
<defs>
<clipPath id="clip0_2936_4563">
<rect width="250" height="200" fill="white"/>
</clipPath>
</defs>
</svg>
