<svg width="70" height="57" viewBox="0 0 70 57" fill="none" xmlns="http://www.w3.org/2000/svg">
<path d="M69.9725 35.6249C69.9725 35.4046 69.9725 35.0741 69.9725 34.8538C69.8623 34.303 69.5318 33.9725 69.0912 33.7522C67.8794 33.2014 66.6677 32.7608 65.3457 32.21C65.1254 32.0998 64.795 32.0998 64.6848 31.8795C64.795 31.6592 65.0153 31.549 65.2356 31.4389C66.5575 30.6678 67.7693 29.8966 69.0912 29.2357C69.5318 29.0154 69.9725 28.6849 69.9725 28.0239C69.9725 27.8036 69.9725 27.5833 69.9725 27.363C69.9725 26.8122 69.7521 26.5919 69.3115 26.3715C68.981 26.1512 68.5404 26.0411 68.0997 25.8207C66.888 25.2699 65.6762 24.8293 64.4645 24.3887C66.1169 23.5074 67.7693 22.516 69.4217 21.5245C69.7521 21.3042 69.9725 20.9737 69.9725 20.5331C69.9725 20.2026 70.0826 19.9823 69.8623 19.6518C69.642 19.101 69.2013 18.8807 68.7607 18.6604C58.626 14.4743 48.6015 10.3984 38.4668 6.21233C33.5096 4.1193 28.4423 2.13642 23.4851 0.153549C22.8241 -0.0667702 22.2733 -0.0667703 21.7225 0.263709C14.7825 4.1193 7.9526 7.97488 1.01254 11.9406C0.461745 12.2711 -0.0890528 12.7117 0.0211068 13.3727C0.0211068 14.1438 0.571905 14.4743 1.23286 14.8048C2.7751 15.4657 4.31733 16.1267 5.96973 16.7876C4.20717 17.7791 2.66494 18.6604 1.01254 19.5416C0.461745 19.8721 0.0211068 20.2026 0.0211068 20.9737C0.0211068 21.7448 0.571905 22.0753 1.23286 22.2956C2.7751 22.9566 4.31733 23.6175 5.96973 24.2785C5.85957 24.3887 5.74941 24.4988 5.63925 24.4988C3.98685 25.2699 2.33446 26.1512 0.792224 27.0325C0.241426 27.363 -0.0890528 27.8036 0.0211068 28.3544C0.0211068 28.9052 0.461745 29.3458 0.902383 29.5662C1.45318 29.7865 2.00398 30.0068 2.55478 30.2271C3.65637 30.6678 4.75797 31.1084 5.96973 31.6592C5.63925 31.8795 5.30877 31.9897 5.08845 32.0998C3.65637 32.871 2.2243 33.6421 0.902383 34.5233C0.351585 34.8538 0.0211067 35.1843 0.131266 35.8453C0.131266 36.5062 0.571905 36.9469 1.1227 37.1672C1.23286 37.2773 1.34302 37.3875 1.56334 37.3875C7.4018 39.9212 13.3504 42.4548 19.1889 44.8783C28.3321 48.7339 37.3652 52.5895 46.5085 56.4451C47.0593 56.6654 47.6101 56.6654 48.1609 56.335C55.1009 52.259 62.1511 48.073 69.0912 43.9971C69.4217 43.7768 69.7521 43.5564 69.8623 43.1158C69.9725 42.8955 69.8623 42.565 69.8623 42.3447C69.8623 41.7939 69.5318 41.4634 69.0912 41.2431C67.6591 40.5821 66.227 40.0313 64.795 39.4805C64.6848 39.3704 64.4645 39.3704 64.3543 39.4805C65.8966 38.5993 67.4388 37.6078 68.981 36.7265C69.4217 36.3961 69.7521 36.1757 69.9725 35.6249ZM65.4559 27.8036C65.2356 27.9138 65.0153 28.0239 64.9051 28.1341C59.1768 31.549 53.3384 34.964 47.6101 38.2688C47.2796 38.4891 46.9491 38.4891 46.5085 38.3789C41.4411 36.1757 36.2636 33.9725 31.1963 31.8795C30.7556 31.7694 30.6455 31.549 30.6455 31.1084C30.6455 29.7865 30.6455 28.4646 30.6455 27.0325C32.1877 27.6935 33.6198 28.2442 34.9417 28.9052C38.6871 30.5576 42.4326 32.0998 46.178 33.7522C46.8389 34.0827 47.4999 34.0827 48.1609 33.6421C52.2368 31.2186 56.4228 28.795 60.4987 26.3715C60.8292 26.1512 61.1597 26.1512 61.6003 26.2614C62.8121 26.702 64.134 27.2528 65.4559 27.8036ZM49.4828 13.593C54.6603 15.7962 59.9479 17.8892 65.2356 19.9823C65.3458 19.9823 65.3458 20.0924 65.4559 20.0924C65.3458 20.4229 65.0153 20.4229 64.795 20.5331C59.0667 23.948 53.3384 27.2528 47.6101 30.6678C47.2796 30.8881 46.9491 30.8881 46.5085 30.7779C41.9919 28.795 37.3652 26.9223 32.7385 24.9395C32.5182 24.8293 32.408 24.7191 32.1877 24.609C32.408 24.4988 32.5182 24.3887 32.7385 24.2785C38.0262 20.7534 43.3138 17.2283 48.4913 13.7032C48.8218 13.4829 49.0421 13.4829 49.4828 13.593ZM4.53765 20.5331C6.07989 19.6518 7.51196 18.8807 8.94403 18.1096C9.16435 17.9994 9.27451 17.9994 9.49483 18.1096C12.2488 19.3213 15.0028 20.4229 17.6466 21.6347C17.867 21.7448 18.0873 21.855 17.9771 22.1855C17.9771 23.3972 17.9771 24.7191 17.9771 25.9309C17.9771 26.2614 17.9771 26.3715 17.6466 26.2614C13.3504 24.2785 8.94404 22.4058 4.53765 20.5331ZM18.0873 41.0228C18.0873 41.4634 17.9771 41.4634 17.6466 41.3532C13.3504 39.4805 9.05419 37.718 4.53765 35.8453C6.07989 34.964 7.51196 34.1929 8.94403 33.4218C9.16435 33.3116 9.38467 33.3116 9.60499 33.4218C12.2488 34.5233 15.0028 35.7351 17.6466 36.8367C17.9771 36.9469 18.0873 37.057 18.0873 37.3875C18.0873 38.4891 18.0873 39.7008 18.0873 41.0228ZM18.0873 33.8624C13.5707 31.8795 9.05419 30.0068 4.53765 28.1341C6.07989 27.2528 7.51196 26.4817 8.94403 25.6004C9.16435 25.4903 9.27451 25.6004 9.49483 25.6004C12.2488 26.702 14.8927 27.9138 17.6466 29.0154C17.867 29.1255 18.0873 29.2357 18.0873 29.5662C18.0873 30.9982 18.0873 32.4303 18.0873 33.8624ZM18.9686 19.101C14.2317 17.1181 9.49483 15.0251 4.75797 13.0422C4.75797 13.0422 4.64781 13.0422 4.53765 12.9321C6.63068 11.7203 8.61356 10.6187 10.7066 9.51712C14.5622 7.31392 18.4178 5.22089 22.2733 3.0177C22.6038 2.79738 22.9343 2.79738 23.3749 2.90754C27.561 4.67009 31.7471 6.32249 35.9331 8.08504C35.9331 8.30536 35.7128 8.41552 35.6027 8.41552C30.315 11.9406 25.0273 15.4657 19.8498 18.9908C19.5194 19.101 19.299 19.2112 18.9686 19.101ZM27.7813 25.4903C27.7813 31.8795 27.7813 38.3789 27.7813 44.7682C27.7813 44.9885 27.7813 45.319 27.7813 45.6495C25.468 44.658 23.3749 43.7768 21.1718 42.8955C20.7311 42.6752 20.8413 42.4548 20.8413 42.1244C20.8413 38.7094 20.8413 35.4046 20.8413 31.9897C20.8413 28.6849 20.8413 25.3801 20.8413 22.1855C20.8413 21.7448 20.9514 21.5245 21.2819 21.3042C27.1204 17.4486 32.8487 13.593 38.6871 9.73743C38.9074 9.62727 39.0176 9.40696 39.3481 9.51712C41.5513 10.3984 43.6443 11.2797 45.9577 12.1609C44.8561 12.8219 43.9748 13.4829 42.9834 14.1438C38.3567 17.2283 33.7299 20.4229 28.9931 23.5074C28.1118 23.948 27.7813 24.609 27.7813 25.4903ZM65.4559 42.8955C63.8035 43.8869 62.2613 44.7682 60.6089 45.7596C56.3127 48.2933 51.9063 50.827 47.6101 53.3606C47.1694 53.581 46.8389 53.581 46.3983 53.4708C41.331 51.2676 36.1535 49.1746 31.0861 46.9714C30.6455 46.7511 30.5353 46.6409 30.5353 46.2003C30.5353 44.8784 30.5353 43.5564 30.5353 42.1244C32.6283 43.0056 34.6112 43.7768 36.5941 44.658C39.7887 45.9799 42.9834 47.3019 46.178 48.7339C46.9491 49.0644 47.6101 48.9543 48.271 48.5136C52.3469 46.0901 56.4228 43.6666 60.4987 41.2431C60.8292 41.0228 61.1597 41.0228 61.4902 41.1329C62.8121 41.7939 64.134 42.3447 65.4559 42.8955ZM64.795 35.7351C59.0667 39.1501 53.3384 42.4548 47.6101 45.8698C47.1694 46.0901 46.9491 46.0901 46.5085 45.9799C41.4411 43.7768 36.2636 41.6837 31.1963 39.4805C30.7556 39.2602 30.6455 39.0399 30.6455 38.5993C30.6455 37.4977 30.6455 36.3961 30.6455 35.2945C30.6455 34.7437 30.7556 34.6335 31.3064 34.8538C35.3823 36.6164 39.4582 38.3789 43.6443 40.0313C44.6357 40.472 45.517 40.8024 46.5085 41.2431C47.1694 41.5736 47.7202 41.4634 48.3812 41.1329C52.4571 38.7094 56.6431 36.2859 60.7191 33.8624C61.0495 33.6421 61.38 33.5319 61.8206 33.7522C63.0324 34.303 64.2442 34.7437 65.5661 35.2945C65.1254 35.5148 65.0153 35.6249 64.795 35.7351Z" fill="url(#paint0_linear_28_25)"/>
<defs>
<linearGradient id="paint0_linear_28_25" x1="0" y1="0" x2="55.3443" y2="68.4486" gradientUnits="userSpaceOnUse">
<stop stopColor="#9E80FA"/>
<stop offset="1" stopColor="#552DCF"/>
</linearGradient>
</defs>
</svg>
