<svg width="16" height="16" viewBox="0 0 16 16" fill="none" xmlns="http://www.w3.org/2000/svg">
<rect width="16" height="16" rx="3" fill="url(#paint0_linear_246_1883)"/>
<path d="M9.83101 6.32409C10.1345 5.96958 10.6544 5.89629 11.044 6.15309C11.2254 6.26555 11.3498 6.45038 11.3858 6.66074C11.4217 6.8711 11.3657 7.08677 11.232 7.25309L8.54501 10.6001C8.4003 10.7733 8.19141 10.8803 7.96627 10.8965C7.74112 10.9127 7.51906 10.8368 7.35101 10.6861L5.25401 8.77109C5.09262 8.63036 5 8.42671 5 8.21259C5 7.99846 5.09262 7.79481 5.25401 7.65409C5.60516 7.34542 6.13087 7.34542 6.48201 7.65409L7.80001 8.85309L9.83101 6.32409Z" fill="white"/>
<defs>
<linearGradient id="paint0_linear_246_1883" x1="0" y1="0" x2="0" y2="16" gradientUnits="userSpaceOnUse">
<stop stopColor="#6C4DDA" stopOpacity="0.6"/>
<stop offset="1" stopColor="#522ED2"/>
</linearGradient>
</defs>
</svg>
