<svg width="123" height="114" viewBox="0 0 123 114" fill="none" xmlns="http://www.w3.org/2000/svg">
<path d="M114.856 113.002H8.14427C3.64065 113.002 0 109.35 0 104.832V35.6038C0 31.113 3.64065 27.4338 8.14427 27.4338C51.7242 27.4067 73.5411 27.4067 114.856 27.4067C119.332 27.4067 123 31.0589 123 35.5767V104.832C123 109.35 119.332 113.002 114.856 113.002ZM114.856 32.8985C73.5411 32.8985 51.7242 32.8985 8.14427 32.9255C6.66104 32.9255 5.47446 34.1429 5.47446 35.6038V104.832C5.47446 106.32 6.66104 107.51 8.14427 107.51H114.856C116.339 107.51 117.526 106.32 117.526 104.832V35.5767C117.526 34.1159 116.312 32.8985 114.856 32.8985Z" fill="url(#paint0_linear_52_492)"/>
<path d="M114.856 32.8984H15.4525C14.6165 32.8984 13.8345 32.5197 13.3221 31.8704C12.8097 31.2212 12.6209 30.3555 12.8097 29.5439L19.2011 2.11222C19.3629 1.38179 19.8483 0.759574 20.4955 0.380833C21.1427 0.00209238 21.9248 -0.106119 22.6529 0.110304L115.53 27.4878C116.717 27.7854 117.606 28.8675 117.606 30.139C117.579 31.681 116.366 32.8984 114.856 32.8984ZM18.9044 27.4337H95.8435L23.8395 6.19721L18.9044 27.4337Z" fill="url(#paint1_linear_52_492)"/>
<path d="M27.3183 79.5106H16.3964C14.8862 79.5106 13.6726 78.2932 13.6726 76.7782C13.6726 75.2633 14.8862 74.0459 16.3964 74.0459H27.3183C28.8285 74.0459 30.042 75.2633 30.042 76.7782C30.069 78.2932 28.8285 79.5106 27.3183 79.5106Z" fill="url(#paint2_linear_52_492)"/>
<path d="M62.8619 79.5106H38.2673C36.7571 79.5106 35.5436 78.2932 35.5436 76.7782C35.5436 75.2633 36.7571 74.0459 38.2673 74.0459H62.8619C64.3721 74.0459 65.5857 75.2633 65.5857 76.7782C65.5857 78.2932 64.3721 79.5106 62.8619 79.5106Z" fill="url(#paint3_linear_52_492)"/>
<path d="M120.249 68.5543H2.72374C1.21355 68.5543 0 67.3369 0 65.8219V46.7226C0 45.2076 1.21355 43.9902 2.72374 43.9902H120.249C121.759 43.9902 122.973 45.2076 122.973 46.7226V65.8219C123 67.3098 121.759 68.5543 120.249 68.5543ZM5.47446 63.0625H117.526V49.4549H5.47446V63.0625Z" fill="url(#paint4_linear_52_492)"/>
<path d="M99.2953 102.397C97.5964 102.397 95.9244 101.965 94.4411 101.126C92.9579 101.965 91.2859 102.397 89.5869 102.397C84.0586 102.397 79.5549 97.8795 79.5549 92.3337C79.5549 86.7878 84.0586 82.27 89.5869 82.27C91.3129 82.27 92.9849 82.7029 94.4411 83.5145C95.9244 82.7029 97.5964 82.27 99.2953 82.27C104.824 82.27 109.327 86.7878 109.327 92.3337C109.327 97.8795 104.824 102.397 99.2953 102.397ZM94.4142 95.039C95.0614 95.039 95.7086 95.2825 96.221 95.7424C97.084 96.4998 98.1627 96.9327 99.2684 96.9327C101.803 96.9327 103.853 94.8767 103.853 92.3337C103.853 89.7637 101.83 87.7347 99.2684 87.7347C98.1088 87.7347 97.057 88.1405 96.221 88.898C95.1962 89.8178 93.6321 89.8178 92.5804 88.898C91.7444 88.1405 90.6657 87.7347 89.533 87.7347C86.9711 87.7347 84.9485 89.7637 84.9485 92.3337C84.9485 94.8767 86.998 96.9327 89.533 96.9327C90.6387 96.9327 91.7174 96.4998 92.5804 95.7424C93.1197 95.2825 93.7669 95.039 94.4142 95.039Z" fill="url(#paint5_linear_52_492)"/>
<path d="M73.7838 87.7347H16.3964C14.8862 87.7347 13.6726 86.5173 13.6726 85.0023C13.6726 83.4874 14.8862 82.2429 16.3964 82.2429H73.7838C75.294 82.2429 76.5075 83.4603 76.5075 84.9753C76.5075 86.4902 75.294 87.7347 73.7838 87.7347Z" fill="url(#paint6_linear_52_492)"/>
<path fillRule="evenodd" clipRule="evenodd" d="M16.3964 35.658H21.8708V41.1226H16.3964V35.658Z" fill="url(#paint7_linear_52_492)"/>
<path fillRule="evenodd" clipRule="evenodd" d="M24.5946 35.658H30.0691V41.1226H24.5946V35.658Z" fill="url(#paint8_linear_52_492)"/>
<path fillRule="evenodd" clipRule="evenodd" d="M32.7928 35.658H38.2673V41.1226H32.7928V35.658Z" fill="url(#paint9_linear_52_492)"/>
<path fillRule="evenodd" clipRule="evenodd" d="M40.991 35.658H46.4654V41.1226H40.991V35.658Z" fill="url(#paint10_linear_52_492)"/>
<path fillRule="evenodd" clipRule="evenodd" d="M49.1892 35.658H54.6637V41.1226H49.1892V35.658Z" fill="url(#paint11_linear_52_492)"/>
<path fillRule="evenodd" clipRule="evenodd" d="M57.3875 35.658H62.8619V41.1226H57.3875V35.658Z" fill="url(#paint12_linear_52_492)"/>
<defs>
<linearGradient id="paint0_linear_52_492" x1="0" y1="27.4067" x2="80.2623" y2="142.743" gradientUnits="userSpaceOnUse">
<stop stopColor="#9E80FA"/>
<stop offset="1" stopColor="#552DCF"/>
</linearGradient>
<linearGradient id="paint1_linear_52_492" x1="12.738" y1="0" x2="31.5299" y2="59.9016" gradientUnits="userSpaceOnUse">
<stop stopColor="#9E80FA"/>
<stop offset="1" stopColor="#552DCF"/>
</linearGradient>
<linearGradient id="paint2_linear_52_492" x1="13.6726" y1="74.0459" x2="16.9553" y2="83.8794" gradientUnits="userSpaceOnUse">
<stop stopColor="#9E80FA"/>
<stop offset="1" stopColor="#552DCF"/>
</linearGradient>
<linearGradient id="paint3_linear_52_492" x1="35.5436" y1="74.0459" x2="37.468" y2="84.6252" gradientUnits="userSpaceOnUse">
<stop stopColor="#9E80FA"/>
<stop offset="1" stopColor="#552DCF"/>
</linearGradient>
<linearGradient id="paint4_linear_52_492" x1="0" y1="43.9902" x2="9.43683" y2="91.2333" gradientUnits="userSpaceOnUse">
<stop stopColor="#9E80FA"/>
<stop offset="1" stopColor="#552DCF"/>
</linearGradient>
<linearGradient id="paint5_linear_52_492" x1="79.5549" y1="82.27" x2="98.2325" y2="109.898" gradientUnits="userSpaceOnUse">
<stop stopColor="#9E80FA"/>
<stop offset="1" stopColor="#552DCF"/>
</linearGradient>
<linearGradient id="paint6_linear_52_492" x1="13.6726" y1="82.2429" x2="14.6253" y2="93.1431" gradientUnits="userSpaceOnUse">
<stop stopColor="#9E80FA"/>
<stop offset="1" stopColor="#552DCF"/>
</linearGradient>
<linearGradient id="paint7_linear_52_492" x1="16.3964" y1="35.658" x2="21.861" y2="41.1324" gradientUnits="userSpaceOnUse">
<stop stopColor="#9E80FA"/>
<stop offset="1" stopColor="#552DCF"/>
</linearGradient>
<linearGradient id="paint8_linear_52_492" x1="24.5946" y1="35.658" x2="30.0593" y2="41.1324" gradientUnits="userSpaceOnUse">
<stop stopColor="#9E80FA"/>
<stop offset="1" stopColor="#552DCF"/>
</linearGradient>
<linearGradient id="paint9_linear_52_492" x1="32.7928" y1="35.658" x2="38.2575" y2="41.1324" gradientUnits="userSpaceOnUse">
<stop stopColor="#9E80FA"/>
<stop offset="1" stopColor="#552DCF"/>
</linearGradient>
<linearGradient id="paint10_linear_52_492" x1="40.991" y1="35.658" x2="46.4556" y2="41.1324" gradientUnits="userSpaceOnUse">
<stop stopColor="#9E80FA"/>
<stop offset="1" stopColor="#552DCF"/>
</linearGradient>
<linearGradient id="paint11_linear_52_492" x1="49.1892" y1="35.658" x2="54.6539" y2="41.1324" gradientUnits="userSpaceOnUse">
<stop stopColor="#9E80FA"/>
<stop offset="1" stopColor="#552DCF"/>
</linearGradient>
<linearGradient id="paint12_linear_52_492" x1="57.3875" y1="35.658" x2="62.8521" y2="41.1324" gradientUnits="userSpaceOnUse">
<stop stopColor="#9E80FA"/>
<stop offset="1" stopColor="#552DCF"/>
</linearGradient>
</defs>
</svg>
