<svg width="28" height="21" viewBox="0 0 28 21" fill="none" xmlns="http://www.w3.org/2000/svg">
<path fillRule="evenodd" clipRule="evenodd" d="M3.33811 0H24.6619C26.5043 0 28 1.49567 28 3.33811V17.6473C28 19.4897 26.5043 20.9854 24.6619 20.9854H3.33811C1.49567 20.9854 0 19.4897 0 17.6473V3.33811C0 1.49567 1.49567 0 3.33811 0ZM24.595 18.6834C25.3262 18.6834 25.9152 18.0901 25.9152 17.3632H25.9194V3.64309C25.9194 2.91197 25.3262 2.32289 24.5992 2.32289H3.64309C2.91197 2.32289 2.32289 2.91614 2.32289 3.64309V6.96863H25.9074V9.45028H2.32289V17.3632C2.32289 18.0943 2.91614 18.6834 3.64309 18.6834H24.595Z" fill="white"/>
</svg>
