<svg width="121" height="121" viewBox="0 0 121 121" fill="none" xmlns="http://www.w3.org/2000/svg">
<path fillRule="evenodd" clipRule="evenodd" d="M110.366 0H10.6339C7.80962 0 5.10818 1.12969 3.11894 3.11894C1.12969 5.10818 0 7.80962 0 10.6339V110.366C0 113.19 1.12969 115.892 3.11894 117.881C5.10818 119.87 7.80962 121 10.6339 121H110.366C113.19 121 115.892 119.87 117.881 117.881C119.87 115.892 121 113.19 121 110.366V10.6339C121 7.80962 119.87 5.10818 117.881 3.11894C115.892 1.12969 113.19 0 110.366 0ZM7.09742 10.6339C7.09742 9.70063 7.4658 8.79196 8.12888 8.12888C8.79196 7.4658 9.70063 7.09742 10.6339 7.09742H85.3164V28.3651H7.09742V10.6339ZM113.903 110.366C113.903 111.299 113.534 112.208 112.871 112.871C112.208 113.534 111.299 113.903 110.366 113.903H10.6339C9.70063 113.903 8.79196 113.534 8.12888 112.871C7.4658 112.208 7.09742 111.299 7.09742 110.366V35.4626H113.903V110.366ZM113.903 28.3651H92.3893V7.09742H110.342C111.275 7.09742 112.183 7.4658 112.847 8.12888C113.51 8.79196 113.878 9.70063 113.878 10.6339L113.903 28.3651ZM28.5862 17.7313C28.5862 18.6645 28.2178 19.5732 27.5547 20.2362C26.8916 20.8993 25.983 21.2677 25.0497 21.2677H17.9523C17.0191 21.2677 16.1104 20.8993 15.4473 20.2362C14.7843 19.5732 14.4159 18.6645 14.4159 17.7313C14.4159 16.798 14.7843 15.8894 15.4473 15.2263C16.1104 14.5632 17.0191 14.1948 17.9523 14.1948H25.0497C25.983 14.1948 26.8916 14.5632 27.5547 15.2263C28.2178 15.8894 28.5862 16.7735 28.5862 17.7313ZM49.8539 17.7313C49.8539 18.6645 49.4855 19.5732 48.8224 20.2362C48.1593 20.8993 47.2507 21.2677 46.3174 21.2677H39.22C38.2868 21.2677 37.3781 20.8993 36.715 20.2362C36.052 19.5732 35.6836 18.6645 35.6836 17.7313C35.6836 16.798 36.052 15.8894 36.715 15.2263C37.3781 14.5632 38.2868 14.1948 39.22 14.1948H46.3174C47.2507 14.1948 48.1593 14.5632 48.8224 15.2263C49.4855 15.8894 49.8539 16.7735 49.8539 17.7313ZM71.1461 17.7313C71.1461 18.6645 70.7778 19.5732 70.1147 20.2362C69.4516 20.8993 68.5429 21.2677 67.6097 21.2677H60.5123C59.5791 21.2677 58.6704 20.8993 58.0073 20.2362C57.3442 19.5732 56.9758 18.6645 56.9758 17.7313C56.9758 16.798 57.3442 15.8894 58.0073 15.2263C58.6704 14.5632 59.5791 14.1948 60.5123 14.1948H67.6097C68.5429 14.1948 69.4516 14.5632 70.1147 15.2263C70.7532 15.8894 71.1216 16.7735 71.1461 17.7313ZM64.0487 85.9058V74.658C64.0487 73.381 63.3611 72.2267 62.2805 71.5882C61.1754 70.9497 59.8246 70.9497 58.7441 71.5882C57.6389 72.2267 56.9758 73.381 56.9758 74.658V85.9058C53.8078 87.0355 51.3274 89.5896 50.345 92.8313C49.3627 96.0731 49.9521 99.5604 51.9659 102.262C53.9797 104.963 57.1478 106.584 60.5123 106.584C63.8768 106.584 67.0694 104.988 69.0587 102.262C71.0725 99.5604 71.6619 96.0485 70.6795 92.8313C69.6972 89.6142 67.2168 87.0355 64.0487 85.9058ZM60.4877 99.4867C59.5545 99.4867 58.6458 99.1183 57.9827 98.4552C57.3197 97.7922 56.9513 96.8835 56.9513 95.9503C56.9513 95.0171 57.3197 94.1084 57.9827 93.4453C58.6458 92.7822 59.5545 92.4138 60.4877 92.4138C61.4209 92.4138 62.3296 92.7822 62.9927 93.4453C63.6558 94.1084 64.0242 95.0171 64.0242 95.9503C64.0242 96.8835 63.6558 97.7922 62.9927 98.4552C62.3296 99.1183 61.4455 99.4867 60.4877 99.4867ZM99.4867 88.8528V95.9503C99.4867 96.8835 99.1183 97.7922 98.4552 98.4552C97.7922 99.1183 96.8835 99.4867 95.9503 99.4867H88.8528C87.5758 99.4867 86.4215 98.7991 85.783 97.7185C85.1445 96.6133 85.1445 95.2626 85.783 94.1821C86.4215 93.0769 87.5758 92.4138 88.8528 92.4138H92.3893V88.8774C92.3893 83.3763 90.9649 77.9734 88.2634 73.2091L84.2604 77.2121C83.3763 78.0962 82.0501 78.44 80.8468 78.1208C79.6188 77.8015 78.661 76.8437 78.3418 75.6158C78.0225 74.3879 78.3663 73.0863 79.2505 72.2021L84.0639 67.4132C78.8575 61.6911 71.7355 58.0564 64.0487 57.1969V60.5368C64.0487 61.8139 63.3611 62.9681 62.2805 63.6067C61.1754 64.2452 59.8246 64.2452 58.7441 63.6067C57.6389 62.9681 56.9758 61.8139 56.9758 60.5368V57.1969C49.289 58.0564 42.167 61.6911 36.9606 67.4132L41.7741 72.2021C42.4372 72.8652 42.8056 73.7739 42.8056 74.7071C42.8056 75.6404 42.4372 76.549 41.7741 77.2121C41.111 77.8752 40.2024 78.2436 39.2691 78.2436C38.3359 78.2436 37.4272 77.8752 36.7642 77.2121L32.712 73.1845C30.0106 77.9734 28.5862 83.3763 28.5862 88.8528V92.3893H32.1226C33.3996 92.3893 34.5539 93.0769 35.1924 94.1575C35.8309 95.2626 35.8309 96.6133 35.1924 97.6939C34.5539 98.7991 33.3996 99.4621 32.1226 99.4621H25.0497C24.1165 99.4621 23.2078 99.0938 22.5448 98.4307C21.8817 97.7676 21.5133 96.8589 21.5133 95.9257V88.8283C21.5133 74.9036 28.9545 62.0349 41.0128 55.0603C53.071 48.0856 67.929 48.0856 80.0118 55.0603C92.0455 62.0595 99.4867 74.9281 99.4867 88.8528Z" fill="url(#paint0_linear_52_486)"/>
<defs>
<linearGradient id="paint0_linear_52_486" x1="0" y1="0" x2="121" y2="121" gradientUnits="userSpaceOnUse">
<stop stopColor="#9E80FA"/>
<stop offset="1" stopColor="#552DCF"/>
</linearGradient>
</defs>
</svg>
