<svg width="62" height="59" viewBox="0 0 62 59" fill="none" xmlns="http://www.w3.org/2000/svg">
<path d="M37.0313 26.8793C37.0313 27.5849 36.4209 28.1561 35.6552 28.1561C34.8895 28.1561 34.2792 27.5849 34.2792 26.8793C34.2792 26.1737 34.8895 25.6025 35.6552 25.6025C36.4209 25.6025 37.0313 26.1737 37.0313 26.8793Z" fill="#552DCF"/>
<path d="M25.235 34.3718C26.6332 35.0774 28.3089 35.4582 30.0401 35.4582C30.3952 35.4582 30.7614 35.447 31.1276 35.4134C32.4038 35.3014 33.6134 34.9878 34.7231 34.5062C35.2446 34.271 35.4888 33.6662 35.2668 33.1286C35.0338 32.591 34.4234 32.3558 33.9019 32.5798C32.9919 32.9718 32.0043 33.2294 30.95 33.319C29.2078 33.4758 27.521 33.1846 26.1671 32.5014C25.6678 32.2438 25.0352 32.4454 24.78 32.9718C24.5248 33.487 24.7245 34.1142 25.235 34.3718Z" fill="#552DCF"/>
<path d="M25.4458 26.8793C25.4458 27.5849 24.8355 28.1561 24.0698 28.1561C23.3152 28.1561 22.6937 27.5849 22.6937 26.8793C22.6937 26.1737 23.3152 25.6025 24.0698 25.6025C24.8355 25.6025 25.4458 26.1737 25.4458 26.8793Z" fill="#552DCF"/>
<path d="M25.3238 24.9977C25.4681 25.0649 25.6123 25.0985 25.7677 25.0985C26.1561 25.0985 26.5334 24.8745 26.6998 24.5049C26.944 23.9785 26.722 23.3625 26.2116 23.1161C25.0131 22.5449 23.1487 22.5449 21.9391 23.1161C21.4176 23.3625 21.1956 23.9785 21.4398 24.5049C21.6839 25.0313 22.2943 25.2553 22.8158 25.0089C23.4706 24.6841 24.6802 24.6841 25.3238 24.9977Z" fill="#552DCF"/>
<path d="M38.2964 24.4937C38.5405 23.9673 38.3186 23.3513 37.797 23.1049C36.5874 22.5337 34.7342 22.5337 33.5246 23.1049C33.003 23.3513 32.7811 23.9673 33.0252 24.4937C33.2694 25.02 33.8797 25.244 34.4013 24.9977C35.056 24.6841 36.2656 24.6841 36.9203 24.9977C37.0646 25.0648 37.2089 25.0984 37.3642 25.0984C37.7415 25.0984 38.1188 24.8745 38.2964 24.4937Z" fill="#552DCF"/>
<path d="M61.9667 57.656C58.6708 45.9188 48.8498 45.65 45.8979 45.8516C45.5095 44.9444 44.6773 43.4996 42.9794 42.2117C46.2198 40.3189 49.0274 37.1942 49.0274 31.9639V27.6856C50.4367 27.2489 51.4687 26.0169 51.4687 24.5161V19.9243C51.4687 18.4011 50.4034 17.1691 48.9719 16.7435C48.4836 7.4366 40.1052 0 29.8625 0C19.6975 0 11.3857 7.3246 10.7643 16.542C9.27723 16.9563 8.16751 18.2667 8.16751 19.8459V24.5945C8.16751 26.4985 9.7655 28.044 11.7408 28.044C12.3179 28.044 12.7728 27.5737 12.7728 27.0025C12.7728 26.9465 12.7506 26.9017 12.7396 26.8569C12.7506 26.8121 12.7728 26.7673 12.7728 26.7113V17.6283C12.7728 9.06055 20.441 2.08314 29.8625 2.08314C39.284 2.08314 46.9522 9.06055 46.9522 17.6283V31.9639C46.9522 40.4645 38.0078 42.4021 34.5455 42.8276C34.1682 42.2901 33.5579 41.9205 32.8366 41.9205H30.0068C28.8527 41.9205 27.9094 42.8164 27.9094 43.914V44.0708C27.9094 45.1684 28.8527 46.0644 30.0068 46.0644H32.8366C33.6799 46.0644 34.4013 45.5716 34.7342 44.8884C35.5776 44.7764 36.7206 44.5748 37.9967 44.2276L30.9944 50.9474L21.6173 41.9541V39.6021C22.5717 40.2181 23.5926 40.7669 24.7023 41.1701C24.8244 41.2149 24.9354 41.2261 25.0463 41.2261C25.4791 41.2261 25.8675 40.9573 26.0229 40.5317C26.2115 39.9829 25.9341 39.3893 25.3903 39.1989C20.3744 37.407 17.0009 32.8039 17.0009 27.7528V15.3884C19.9527 15.0748 22.4385 13.4844 23.7702 11.2333C26.6443 17.6843 33.9796 21.0442 41.0818 21.0442C41.8697 21.0442 42.6465 20.9322 43.4344 20.8538V30.6088C43.4344 34.9207 40.9486 37.4854 35.1004 39.1877C34.5455 39.3445 34.2348 39.9269 34.3902 40.4869C34.5233 40.9461 34.9339 41.2485 35.3889 41.2485C35.4777 41.2485 35.5776 41.2373 35.6774 41.2037C39.8944 39.9829 45.5095 37.5526 45.5095 30.62V19.7899C45.5095 19.7563 45.4985 19.7227 45.4874 19.6891C45.4874 19.6443 45.4985 19.6107 45.4874 19.5659C45.4763 19.5099 45.443 19.4651 45.4319 19.4091C45.4208 19.3867 45.4208 19.3755 45.4097 19.3531C45.2321 18.9051 44.766 18.6139 44.3 18.7035C36.1546 20.0587 26.4002 16.206 24.8022 7.66059C24.8022 7.64939 24.8022 7.62699 24.8022 7.61579C24.8022 7.03341 24.3361 6.57422 23.7702 6.57422C23.2042 6.57422 22.7381 7.04461 22.7381 7.61579C22.7381 10.8077 19.6975 13.406 15.9688 13.406C15.3918 13.406 14.9368 13.8764 14.9368 14.4476V27.764C14.9368 31.6951 16.6901 35.3686 19.5532 38.023V41.8421C17.4891 43.2084 16.5348 44.866 16.102 45.874C13.1501 45.6612 3.32913 45.9188 0.0443659 57.6672C-0.110995 58.216 0.210824 58.7984 0.754586 58.9552C0.854461 58.9776 0.943238 59 1.03202 59C1.487 59 1.8976 58.6976 2.03076 58.2384C5.11578 47.2179 14.4707 47.7443 16.3128 47.9683L26.5888 58.0144C26.7997 58.2272 27.0993 58.328 27.3878 58.3056C27.6875 58.2832 27.9538 58.1376 28.1314 57.9024L30.9833 54.1169L33.8464 57.8912C34.024 58.1264 34.3014 58.272 34.5899 58.2944C34.8895 58.3168 35.1781 58.216 35.3889 58.0032L45.6649 47.9571C47.4959 47.7331 56.862 47.2179 59.9581 58.2272C60.0913 58.6864 60.5019 58.9888 60.9568 58.9888C61.0456 58.9888 61.1455 58.9776 61.2343 58.944C61.8002 58.7984 62.111 58.216 61.9667 57.656ZM10.2427 24.6057V19.8571C10.2427 19.4763 10.4202 19.1291 10.6977 18.8827V25.5913C10.4202 25.3337 10.2427 24.9865 10.2427 24.6057ZM49.4047 24.5273C49.4047 24.8521 49.2604 25.1545 49.0274 25.3785V19.0843C49.2493 19.3083 49.4047 19.5995 49.4047 19.9355V24.5273ZM27.1992 55.6849L17.9885 46.6803C18.277 46.0084 18.9651 44.7988 20.4632 43.7348L29.6073 52.5042L27.1992 55.6849ZM34.8008 55.6849L32.3927 52.5042L41.5368 43.7348C43.0238 44.7876 43.7229 46.0084 44.0114 46.6803L34.8008 55.6849Z" fill="#552DCF"/>
</svg>
