<svg width="20" height="20" viewBox="0 0 20 20" fill="none" xmlns="http://www.w3.org/2000/svg">
<path d="M8.33203 12.5L8.33203 10" stroke="#FF2E2E" strokeWidth="1.66667" strokeLinecap="round"/>
<path d="M11.668 12.5L11.668 10" stroke="#FF2E2E" strokeWidth="1.66667" strokeLinecap="round"/>
<path d="M2.5 5.83325H17.5V5.83325C16.7234 5.83325 16.3351 5.83325 16.0289 5.96012C15.6205 6.12928 15.296 6.45373 15.1269 6.86211C15 7.1684 15 7.55668 15 8.33325V13.3333C15 14.9046 15 15.6903 14.5118 16.1784C14.0237 16.6666 13.238 16.6666 11.6667 16.6666H8.33333C6.76199 16.6666 5.97631 16.6666 5.48816 16.1784C5 15.6903 5 14.9046 5 13.3333V8.33325C5 7.55668 5 7.1684 4.87313 6.86211C4.70398 6.45373 4.37952 6.12928 3.97114 5.96012C3.66485 5.83325 3.27657 5.83325 2.5 5.83325V5.83325Z" stroke="#FF2E2E" strokeWidth="1.66667" strokeLinecap="round"/>
<path d="M8.39143 2.80883C8.48638 2.72023 8.69563 2.64194 8.9867 2.5861C9.27777 2.53027 9.63441 2.5 10.0013 2.5C10.3682 2.5 10.7248 2.53027 11.0159 2.5861C11.307 2.64194 11.5162 2.72023 11.6112 2.80883" stroke="#FF2E2E" strokeWidth="1.66667" strokeLinecap="round"/>
</svg>
