<svg width="40" height="40" viewBox="0 0 40 40" fill="none" xmlns="http://www.w3.org/2000/svg">
<path d="M20.0052 0C8.95382 0 0 8.95382 0 20.0052C0 31.0566 8.95382 40.0104 20.0052 40.0104C31.0566 40.0104 40.0104 31.0566 40.0104 20.0052C40.0104 8.95382 31.0462 0 20.0052 0ZM25.0561 18.2938C24.9517 19.0973 24.8578 19.8904 24.7639 20.694C24.7013 21.2053 24.5552 21.3514 24.0438 21.3514C23.2925 21.3514 22.5307 21.3514 21.7793 21.3514C21.6436 21.3514 21.4975 21.3514 21.3201 21.3514C21.3201 21.5497 21.3201 21.7062 21.3201 21.8523C21.3201 24.3465 21.3201 26.851 21.3201 29.3452C21.3201 29.8983 21.2262 29.9817 20.694 29.9922C19.9009 29.9922 19.1077 29.9922 18.3146 29.9922C17.6885 29.9922 17.6363 29.94 17.6363 29.3347C17.6363 26.8406 17.6468 24.336 17.6468 21.8419C17.6468 21.6958 17.6468 21.5601 17.6468 21.3514C17.0206 21.3514 16.4153 21.3514 15.7996 21.3514C15.017 21.3514 14.923 21.2471 14.923 20.4748C14.923 19.7443 14.923 19.0138 14.923 18.2833C14.923 17.6572 15.0796 17.5111 15.7162 17.5111C16.3423 17.5111 16.958 17.5111 17.6363 17.5111C17.6363 17.2711 17.6259 17.0624 17.6363 16.8641C17.6781 15.7266 17.605 14.5578 17.7929 13.4412C18.1581 11.3332 19.7339 10.0809 21.8732 10.0078C22.6976 9.97652 23.5116 9.99739 24.336 9.99739C24.7639 9.99739 24.9517 10.1852 24.9622 10.6235C24.9726 11.3436 24.9726 12.0532 24.9622 12.7733C24.9517 13.2116 24.7743 13.3786 24.336 13.389C23.7725 13.4099 23.2194 13.389 22.6559 13.4307C21.821 13.4933 21.3619 13.963 21.3306 14.7874C21.2992 15.6744 21.3201 16.551 21.3201 17.5007C21.4662 17.5007 21.6019 17.5007 21.7375 17.5007C22.6141 17.5007 23.4803 17.5007 24.3569 17.5007C24.9204 17.5215 25.1187 17.7511 25.0561 18.2938Z" fill="#422F87"/>
</svg>
