<svg width="35" height="35" viewBox="0 0 35 35" fill="none" xmlns="http://www.w3.org/2000/svg">
<path d="M23.3131 11.4462L25.3952 13.5167C25.4598 13.581 25.5309 13.6517 25.5956 13.716C25.615 13.7353 25.6279 13.7482 25.6473 13.7675C25.7249 13.8318 25.4986 13.5296 25.5827 13.6968C25.5503 13.6132 25.5115 13.5296 25.4792 13.446C25.4922 13.4781 25.4986 13.5038 25.5051 13.5424C25.4922 13.446 25.4792 13.356 25.4663 13.2595C25.4728 13.2916 25.4728 13.3238 25.4663 13.356C25.4792 13.2595 25.4922 13.1695 25.5051 13.073C25.4986 13.1052 25.4922 13.1373 25.4792 13.1695C25.5115 13.0859 25.5503 13.0023 25.5827 12.9187C25.518 13.0537 25.6667 12.8287 25.6667 12.8287C25.6603 12.8351 25.6538 12.8415 25.6538 12.8415C25.6344 12.8608 25.615 12.8801 25.5956 12.8994C25.518 12.9766 25.4404 13.0537 25.3628 13.1309C25.0783 13.4138 24.7874 13.7032 24.5029 13.9861C23.5588 14.9249 22.6212 15.8573 21.6707 16.7961C20.5198 17.9407 19.3688 19.0853 18.2179 20.2299C17.2286 21.2137 16.2458 22.1911 15.2629 23.1685C14.7909 23.638 14.2801 24.0945 13.8339 24.5896C13.7564 24.6797 14.0732 24.4482 13.9051 24.5253L14.1572 24.4224C14.1249 24.4353 14.0991 24.4417 14.0603 24.4482C14.1572 24.4353 14.2478 24.4224 14.3448 24.4096C14.3124 24.416 14.2801 24.416 14.2478 24.4096C14.3448 24.4224 14.4353 24.4353 14.5323 24.4482C14.4999 24.4417 14.4676 24.4353 14.4353 24.4224L14.6875 24.5253C14.5517 24.461 14.862 24.6925 14.7392 24.5703L14.1508 23.9852C13.6335 23.4708 13.1098 22.9499 12.5925 22.4355C11.4157 21.2652 10.2388 20.0949 9.06203 18.9246C8.86805 18.7317 8.67407 18.5387 8.48009 18.3458C8.42837 18.2944 8.37664 18.243 8.31844 18.1851C8.30551 18.1722 8.29258 18.1594 8.27965 18.1465C8.20852 18.0822 8.43483 18.3844 8.35077 18.2301C8.3831 18.3137 8.4219 18.3973 8.45423 18.4809C8.4413 18.4487 8.43483 18.423 8.42837 18.3844C8.4413 18.4809 8.45423 18.5709 8.46716 18.6674C8.4607 18.6352 8.4607 18.6031 8.46716 18.5709C8.45423 18.6674 8.4413 18.7574 8.42837 18.8538C8.43483 18.8217 8.4413 18.7895 8.45423 18.7574C8.4219 18.841 8.3831 18.9246 8.35077 19.0082C8.4219 18.8667 8.20852 19.1496 8.27965 19.0918C8.29258 19.0789 8.30551 19.066 8.31844 19.0532L10.5492 16.8347C10.5686 16.8154 10.588 16.8026 10.6009 16.7833C10.6656 16.7061 10.3617 16.9312 10.5298 16.8476C10.4458 16.8797 10.3617 16.9183 10.2776 16.9505C10.31 16.9376 10.3358 16.9312 10.3746 16.9248C10.2776 16.9376 10.1871 16.9505 10.0901 16.9633C10.1225 16.9569 10.1548 16.9569 10.1871 16.9633C10.0901 16.9505 9.9996 16.9376 9.90261 16.9248C9.93494 16.9312 9.96727 16.9376 9.9996 16.9505C9.91555 16.9183 9.83149 16.8797 9.74743 16.8476C9.90908 16.9248 9.59225 16.6933 9.6763 16.7833C9.6957 16.809 9.72803 16.8347 9.74743 16.854C9.83795 16.944 9.92848 17.0341 10.019 17.1241C10.3294 17.4327 10.6333 17.735 10.9436 18.0436C11.6484 18.7445 12.3532 19.4454 13.0645 20.1527C13.2261 20.3135 13.3943 20.4807 13.5559 20.6414C13.9633 21.0466 14.6487 21.0466 15.056 20.6414C15.3664 20.3328 15.6703 20.0306 15.9742 19.7283C16.7178 18.9889 17.4549 18.2558 18.1985 17.5163L20.869 14.8606C21.6384 14.0954 22.4079 13.3302 23.1838 12.5586C23.4295 12.3142 23.6817 12.0635 23.9274 11.8191C24.0438 11.7034 24.1796 11.6005 24.2765 11.4719C24.3347 11.4012 24.0373 11.6262 24.199 11.5426C24.1149 11.5748 24.0308 11.6133 23.9468 11.6455C23.9791 11.6326 24.005 11.6262 24.0438 11.6198C23.9468 11.6326 23.8563 11.6455 23.7593 11.6584C23.7916 11.6519 23.8239 11.6519 23.8563 11.6584C23.7593 11.6455 23.6687 11.6326 23.5717 11.6198C23.6041 11.6262 23.6364 11.6326 23.6687 11.6455C23.5847 11.6133 23.5006 11.5748 23.4166 11.5426C23.4942 11.5812 23.4683 11.549 23.3131 11.4462C23.5265 11.6326 23.7722 11.7548 24.0632 11.7548C24.3218 11.7548 24.6322 11.6391 24.8132 11.4462C25.1818 11.0475 25.2594 10.3402 24.8132 9.95434C24.3283 9.52994 23.7075 9.4142 23.1191 9.70999C22.9898 9.77429 22.8734 9.86432 22.77 9.9672C22.7312 10.0058 22.6924 10.0444 22.6536 10.0829C22.4596 10.2759 22.2656 10.4688 22.0716 10.6617C21.3539 11.3754 20.6362 12.0892 19.912 12.8094C18.9938 13.7225 18.0821 14.6291 17.1639 15.5422C16.3557 16.346 15.5539 17.1434 14.7457 17.9472C14.3512 18.3394 13.9374 18.7252 13.5494 19.1368C13.543 19.1432 13.5365 19.1496 13.53 19.1561H15.0366L11.157 15.2979C10.6979 14.8606 10.019 14.7385 9.44999 15.0407C9.16549 15.195 8.93918 15.4586 8.71287 15.6837C8.39603 15.9988 8.07273 16.3203 7.7559 16.6354C7.47786 16.9119 7.19982 17.1884 6.91532 17.4713C6.86359 17.5228 6.81833 17.5678 6.77307 17.6128C6.22346 18.1979 6.22992 19.0532 6.77307 19.6383C7.01878 19.902 7.28388 20.1463 7.54252 20.4035C8.80339 21.6574 10.0643 22.9113 11.3251 24.1652C11.8424 24.6797 12.3597 25.1941 12.877 25.7085C12.9998 25.8307 13.1162 25.9464 13.2391 26.0686C13.8275 26.6409 14.7069 26.673 15.3147 26.1072C15.9031 25.5606 16.4527 24.9754 17.0217 24.4096C18.2567 23.1814 19.4917 21.9532 20.7267 20.725C22.0328 19.4261 23.3454 18.1208 24.6516 16.8219C25.4404 16.0374 26.2293 15.2529 27.0181 14.4684C27.0634 14.4234 27.1151 14.3784 27.1604 14.3269C27.6259 13.8447 27.71 13.1245 27.3608 12.5522C27.2703 12.4107 27.1668 12.3014 27.0505 12.1921C26.4621 11.6069 25.8672 11.0153 25.2788 10.4302C25.1236 10.2759 24.9749 10.128 24.8197 9.97363C24.4253 9.58138 23.7075 9.55566 23.3196 9.97363C22.9251 10.3787 22.8928 11.0282 23.3131 11.4462Z" fill="white"/>
<path d="M32.7474 17.5027C32.7474 18.2375 32.6994 18.9654 32.6032 19.6933C32.617 19.5903 32.6307 19.4942 32.6444 19.3912C32.4521 20.8195 32.0744 22.2136 31.5181 23.5389L31.628 23.2711C31.3053 24.0333 30.9275 24.775 30.4949 25.4823C30.282 25.8325 30.0485 26.1759 29.8081 26.5124C29.7532 26.5879 29.6914 26.6703 29.6296 26.7458C29.6021 26.787 29.5678 26.8214 29.5403 26.8626C29.4167 27.0274 29.7188 26.636 29.5952 26.7939C29.4648 26.9656 29.3274 27.1304 29.19 27.2883C28.675 27.8995 28.105 28.4763 27.5006 29.0051C27.3564 29.1356 27.2053 29.2661 27.0474 29.3897C26.9718 29.4515 26.8963 29.5133 26.8207 29.5751C26.7589 29.63 26.5941 29.7468 26.8894 29.5201C26.8345 29.5613 26.7864 29.5957 26.7315 29.6438C26.4018 29.891 26.0653 30.1244 25.7151 30.3442C24.9322 30.8455 24.1081 31.2781 23.2565 31.6352L23.5243 31.5253C22.1989 32.0816 20.8048 32.4593 19.3763 32.6515C19.4793 32.6378 19.5755 32.6241 19.6785 32.6103C18.2226 32.8026 16.746 32.8026 15.297 32.6103C15.4 32.6241 15.4961 32.6378 15.5992 32.6515C14.1707 32.4593 12.7766 32.0816 11.4512 31.5253L11.719 31.6352C10.9567 31.3125 10.215 30.9348 9.50763 30.5021C9.15739 30.2893 8.81401 30.0558 8.4775 29.8154C8.40196 29.7605 8.31955 29.6987 8.24401 29.6369C8.2028 29.6094 8.16846 29.5751 8.12726 29.5476C7.96244 29.424 8.35389 29.7262 8.19593 29.6026C8.02424 29.4721 7.85942 29.3347 7.70147 29.1974C7.09026 28.6824 6.51338 28.1124 5.98458 27.5081C5.8541 27.3639 5.72361 27.2128 5.6 27.0549C5.53819 26.9793 5.47638 26.9038 5.41457 26.8282C5.35963 26.7664 5.24288 26.6016 5.46951 26.8969C5.42831 26.842 5.39397 26.7939 5.3459 26.739C5.09867 26.4094 4.86517 26.0729 4.64541 25.7226C4.14408 24.9398 3.71142 24.1157 3.35431 23.2642L3.46419 23.532C2.90792 22.2067 2.5302 20.8127 2.33791 19.3843C2.35164 19.4873 2.36538 19.5835 2.37911 19.6865C2.18682 18.2307 2.18682 16.7542 2.37911 15.3053C2.36538 15.4083 2.35164 15.5044 2.33791 15.6074C2.5302 14.1791 2.90792 12.7851 3.46419 11.4597L3.35431 11.7275C3.67708 10.9653 4.0548 10.2236 4.48745 9.51633C4.70035 9.16611 4.93384 8.82275 5.17421 8.48627C5.22915 8.41073 5.29096 8.32832 5.35277 8.25279C5.38024 8.21158 5.41457 8.17725 5.44204 8.13605C5.56566 7.97124 5.26349 8.36266 5.3871 8.20472C5.51759 8.03304 5.65494 7.86823 5.79229 7.71029C6.30736 7.09912 6.87736 6.52228 7.48171 5.99352C7.62593 5.86304 7.77701 5.73257 7.93497 5.60896C8.01051 5.54716 8.08605 5.48535 8.1616 5.42355C8.2234 5.36861 8.38822 5.25187 8.09292 5.47849C8.14786 5.43728 8.19593 5.40295 8.25087 5.35488C8.58052 5.10766 8.91703 4.87418 9.26727 4.65443C10.0502 4.15314 10.8743 3.72051 11.7259 3.36342L11.458 3.4733C12.7835 2.91706 14.1776 2.53937 15.606 2.34709C15.503 2.36083 15.4069 2.37456 15.3039 2.3883C16.7598 2.19602 18.2363 2.19602 19.6854 2.3883C19.5823 2.37456 19.4862 2.36083 19.3832 2.34709C20.8116 2.53937 22.2057 2.91706 23.5312 3.4733L23.2633 3.36342C24.0256 3.68618 24.7673 4.06387 25.4747 4.49649C25.8249 4.70937 26.1683 4.94285 26.5048 5.1832C26.5804 5.23814 26.6628 5.29994 26.7383 5.36174C26.7795 5.38921 26.8139 5.42355 26.8551 5.45102C27.0199 5.57462 26.6285 5.27247 26.7864 5.39608C26.9581 5.52655 27.1229 5.6639 27.2809 5.80124C27.8921 6.31627 28.469 6.88624 28.9978 7.49054C29.1282 7.63475 29.2587 7.78582 29.3823 7.94377C29.4441 8.01931 29.506 8.09484 29.5678 8.17038C29.6227 8.23219 29.7395 8.397 29.5128 8.10171C29.554 8.15665 29.5884 8.20472 29.6364 8.25965C29.8837 8.58927 30.1172 8.92576 30.3369 9.27598C30.8383 10.0588 31.2709 10.8829 31.628 11.7344L31.5181 11.4666C32.0744 12.7919 32.4521 14.1859 32.6444 15.6143C32.6307 15.5113 32.617 15.4152 32.6032 15.3121C32.6994 16.0332 32.7474 16.768 32.7474 17.5027C32.7474 18.0933 33.2625 18.6564 33.8737 18.6289C34.4849 18.6015 35 18.1345 35 17.5027C34.9931 15.6898 34.7253 13.8632 34.1622 12.1327C33.6196 10.464 32.8367 8.87082 31.8135 7.4356C30.749 5.93858 29.4922 4.64757 28.0363 3.5351C26.6422 2.46383 25.0833 1.63978 23.435 1.03548C21.7456 0.417444 19.9395 0.0809568 18.1333 0.0122859C16.3203 -0.0563849 14.4797 0.163362 12.7354 0.657792C11.046 1.13162 9.41836 1.87327 7.9487 2.84152C6.49965 3.78918 5.17421 4.94972 4.06853 6.29567C2.89418 7.71715 1.96706 9.27598 1.26657 10.979C0.579814 12.6477 0.195231 14.4194 0.0510126 16.2186C-0.0932061 18.0452 0.0716153 19.9062 0.504271 21.6848C0.916325 23.3947 1.60995 25.0565 2.52333 26.5536C3.42298 28.0369 4.54926 29.4034 5.84723 30.5502C7.15206 31.7039 8.62172 32.6859 10.2081 33.4069C11.9319 34.1829 13.7174 34.6705 15.5923 34.8902C17.4122 35.1031 19.2596 35.0001 21.0589 34.6361C22.7895 34.2859 24.4789 33.6473 26.0172 32.7889C27.5281 31.9511 28.9359 30.8592 30.1309 29.6094C31.3327 28.3527 32.3629 26.9107 33.1389 25.3587C33.9287 23.7655 34.5055 22.0556 34.7734 20.2977C34.9176 19.3706 35 18.4367 35 17.5027C35 16.9122 34.4849 16.3491 33.8737 16.3765C33.2625 16.3971 32.7474 16.871 32.7474 17.5027Z" fill="white"/>
</svg>
