<svg width="40" height="40" viewBox="0 0 40 40" fill="none" xmlns="http://www.w3.org/2000/svg">
<path d="M20 0C8.95398 0 0 8.95398 0 20C0 31.046 8.95398 40 20 40C31.046 40 40 31.046 40 20C40 8.95398 31.046 0 20 0ZM14.9372 29.1318C14.9372 29.7385 14.6967 29.9791 14.0795 29.9791C13.2218 29.9791 12.3536 29.9791 11.4958 29.9791C10.9519 29.9791 10.7008 29.7385 10.7008 29.1841C10.7008 27.1967 10.7008 25.2092 10.7008 23.2322C10.7008 21.2971 10.7008 19.3619 10.7008 17.4372C10.7008 16.7364 10.91 16.5272 11.6109 16.5272C12.4372 16.5272 13.2531 16.5272 14.0795 16.5272C14.6967 16.5272 14.9372 16.7678 14.9372 17.3745C14.9372 21.2971 14.9372 25.2197 14.9372 29.1318ZM12.8138 15.387C11.3075 15.387 10.0732 14.1632 10.0732 12.6464C10.0732 11.1297 11.2971 9.90586 12.8033 9.90586C14.3096 9.90586 15.5544 11.1506 15.5544 12.6464C15.5544 14.1527 14.3201 15.387 12.8138 15.387ZM30.0209 29.1841C30.0209 29.7803 29.8117 29.9791 29.2155 29.9791C28.3054 29.9791 27.3849 29.9791 26.4749 29.9791C25.8891 29.9791 25.6799 29.7699 25.6799 29.1736C25.6799 27.228 25.7008 25.2824 25.6695 23.3368C25.659 22.6987 25.5962 22.0607 25.4393 21.4435C25.2406 20.6485 24.6967 20.136 23.8494 20.0209C22.9184 19.8954 22.1444 20.1674 21.6318 21.0042C21.2448 21.6423 21.0774 22.3536 21.0774 23.0962C21.0669 25.1046 21.0774 27.1234 21.0774 29.1318C21.0774 29.8013 20.8891 29.9895 20.2092 29.9895C19.3515 29.9895 18.4833 29.9895 17.6255 29.9895C17.0607 29.9895 16.841 29.7699 16.841 29.205C16.841 25.2406 16.841 21.2866 16.841 17.3222C16.841 16.7573 17.0607 16.5377 17.6255 16.5272C18.5251 16.5167 19.4247 16.5167 20.3347 16.5272C20.8891 16.5272 21.0983 16.7364 21.1088 17.2803C21.1192 17.5418 21.1088 17.7929 21.1088 18.1381C22.7197 16.3808 25.0105 15.8368 27.1444 16.6527C28.7029 17.249 29.4561 18.5042 29.7699 20.0628C29.9268 20.8787 30.0105 21.7155 30.0209 22.5523C30.0418 24.7699 30.0209 26.977 30.0209 29.1841Z" fill="#422F87"/>
</svg>
