<svg width="26" height="32" viewBox="0 0 26 32" fill="none" xmlns="http://www.w3.org/2000/svg">
<path d="M11.321 31.2417L11.3207 31.2414C7.97084 29.0146 0.25 22.7858 0.25 12.7994C0.25 5.64375 5.71998 0.25 12.9943 0.25C20.2754 0.25 25.7516 5.64399 25.75 12.7993V12.7994C25.75 22.7825 18.018 29.0144 14.663 31.2446C14.1554 31.5817 13.5747 31.75 12.9943 31.75C12.4124 31.75 11.8286 31.5802 11.321 31.2417ZM12.864 29.0067L13.0028 29.0991L13.1414 29.0065C16.0691 27.0501 23.0014 21.5178 23.0014 12.7994C23.0014 7.18414 18.6913 2.94984 12.9943 2.94984C7.21255 2.94984 3.0002 7.09487 3.0002 12.7994C3.0002 21.5225 9.92261 27.05 12.864 29.0067ZM6.75041 12.7994C6.75041 9.41168 9.55022 6.64969 13.0008 6.64969C16.4514 6.64969 19.2512 9.41168 19.2512 12.7994C19.2512 16.1871 16.4514 18.9491 13.0008 18.9491C9.55022 18.9491 6.75041 16.1871 6.75041 12.7994ZM9.50061 12.7994C9.50061 14.7058 11.074 16.2492 13.0008 16.2492C14.9277 16.2492 16.501 14.7058 16.501 12.7994C16.501 10.8929 14.9277 9.34953 13.0008 9.34953C11.074 9.34953 9.50061 10.8929 9.50061 12.7994Z" fill="url(#paint0_linear_3114_6135)" stroke="white" strokeWidth="0.5"/>
<defs>
<linearGradient id="paint0_linear_3114_6135" x1="0" y1="0" x2="31.3224" y2="25.4494" gradientUnits="userSpaceOnUse">
<stop stopColor="#9E80FA"/>
<stop offset="1" stopColor="#552DCF"/>
</linearGradient>
</defs>
</svg>
