<svg width="20" height="20" viewBox="0 0 20 20" fill="none" xmlns="http://www.w3.org/2000/svg">
<path d="M5.83301 5.94324V5.94324C5.83301 4.11865 5.83301 3.20636 6.34504 2.63625C6.45616 2.51253 6.58228 2.40314 6.72047 2.31064C7.35726 1.88438 8.26039 2.01339 10.0666 2.27143L12.3482 2.59737C14.8043 2.94824 16.0324 3.12368 16.766 3.96957C17.4997 4.81547 17.4997 6.056 17.4997 8.53707V11.4629C17.4997 13.9439 17.4997 15.1845 16.766 16.0303C16.0324 16.8762 14.8043 17.0517 12.3482 17.4026L9.90337 17.7518C8.25179 17.9878 7.426 18.1057 6.82428 17.7543C6.60974 17.6289 6.42043 17.4648 6.26604 17.2701C5.83301 16.7241 5.83301 15.8899 5.83301 14.2216V14.2216" stroke="white" strokeWidth="2"/>
<path d="M13.333 10L14.1139 9.37535L14.6136 10L14.1139 10.6247L13.333 10ZM3.33301 11C2.78072 11 2.33301 10.5523 2.33301 10C2.33301 9.44776 2.78072 9.00004 3.33301 9.00004V11ZM10.7805 5.20868L14.1139 9.37535L12.5521 10.6247L9.21881 6.45807L10.7805 5.20868ZM14.1139 10.6247L10.7805 14.7914L9.21881 13.542L12.5521 9.37535L14.1139 10.6247ZM13.333 11H3.33301V9.00004H13.333V11Z" fill="white"/>
</svg>
