<svg width="36" height="36" viewBox="0 0 36 36" fill="none" xmlns="http://www.w3.org/2000/svg">
<circle cx="18" cy="18" r="18" fill="#D9D9D9"/>
<path d="M13.833 13.9431V13.9431C13.833 12.1185 13.833 11.2062 14.345 10.6361C14.4562 10.5124 14.5823 10.403 14.7205 10.3105C15.3573 9.88425 16.2604 10.0133 18.0666 10.2713L20.3482 10.5972C22.8043 10.9481 24.0324 11.1236 24.766 11.9695C25.4997 12.8153 25.4997 14.0559 25.4997 16.5369V19.4627C25.4997 21.9438 25.4997 23.1843 24.766 24.0302C24.0324 24.8761 22.8043 25.0516 20.3482 25.4024L17.9034 25.7517C16.2518 25.9876 15.426 26.1056 14.8243 25.7541C14.6097 25.6288 14.4204 25.4646 14.266 25.27C13.833 24.724 13.833 23.8898 13.833 22.2215V22.2215" stroke="#474973" strokeWidth="2"/>
<path d="M21.333 18.0002L22.1139 17.3755L22.6136 18.0002L22.1139 18.6249L21.333 18.0002ZM11.333 19.0002C10.7807 19.0002 10.333 18.5524 10.333 18.0002C10.333 17.4479 10.7807 17.0002 11.333 17.0002V19.0002ZM18.7805 13.2088L22.1139 17.3755L20.5521 18.6249L17.2188 14.4582L18.7805 13.2088ZM22.1139 18.6249L18.7805 22.7915L17.2188 21.5421L20.5521 17.3755L22.1139 18.6249ZM21.333 19.0002H11.333V17.0002H21.333V19.0002Z" fill="#474973"/>
</svg>
