<svg width="36" height="36" viewBox="0 0 36 36" fill="none" xmlns="http://www.w3.org/2000/svg">
<circle cx="18" cy="18" r="18" fill="#D9D9D9"/>
<path fillRule="evenodd" clipRule="evenodd" d="M21.0117 22.1419L24.6348 25.7658C24.9471 26.0781 25.4535 26.0781 25.7658 25.7658C26.0781 25.4535 26.0781 24.9471 25.7658 24.6348L22.1419 21.0117C24.3711 18.1841 24.0102 14.1091 21.3187 11.7173C18.6273 9.32552 14.538 9.44596 11.992 11.992C9.44596 14.538 9.32552 18.6273 11.7173 21.3187C14.1091 24.0102 18.1841 24.3711 21.0117 22.1419ZM14.8027 21.5973C12.8719 20.7891 11.6147 18.9012 11.6134 16.8082C11.6119 14.4609 13.1844 12.4043 15.4499 11.7904C17.7154 11.1765 20.1112 12.1579 21.2949 14.1848C22.4786 16.2116 22.1563 18.7805 20.5085 20.452L20.4797 20.4792L20.4526 20.508C18.9606 21.976 16.7335 22.4054 14.8027 21.5973Z" fill="#474973"/>
<path d="M24.6348 25.7658L24.458 25.9425L24.458 25.9425L24.6348 25.7658ZM21.0117 22.1419L21.1885 21.9651L21.0314 21.808L20.8569 21.9455L21.0117 22.1419ZM25.7658 25.7658L25.589 25.589L25.7658 25.7658ZM25.7658 24.6348L25.9425 24.458L25.9425 24.458L25.7658 24.6348ZM22.1419 21.0117L21.9455 20.8569L21.808 21.0314L21.9651 21.1885L22.1419 21.0117ZM21.3187 11.7173L21.4848 11.5304L21.3187 11.7173ZM11.7173 21.3187L11.5304 21.4848L11.7173 21.3187ZM11.6134 16.8082L11.8634 16.808V16.808L11.6134 16.8082ZM14.8027 21.5973L14.7062 21.8279H14.7062L14.8027 21.5973ZM15.4499 11.7904L15.5153 12.0317L15.4499 11.7904ZM21.2949 14.1848L21.079 14.3109L21.2949 14.1848ZM20.5085 20.452L20.6803 20.6339L20.6865 20.6275L20.5085 20.452ZM20.4797 20.4792L20.3081 20.2975L20.3029 20.3024L20.298 20.3076L20.4797 20.4792ZM20.4526 20.508L20.628 20.6863L20.6343 20.6796L20.4526 20.508ZM24.8116 25.589L21.1885 21.9651L20.8349 22.3186L24.458 25.9425L24.8116 25.589ZM25.589 25.589C25.3743 25.8037 25.0262 25.8037 24.8116 25.589L24.458 25.9425C24.868 26.3525 25.5326 26.3525 25.9425 25.9425L25.589 25.589ZM25.589 24.8116C25.8037 25.0262 25.8037 25.3743 25.589 25.589L25.9425 25.9425C26.3525 25.5326 26.3525 24.868 25.9425 24.458L25.589 24.8116ZM21.9651 21.1885L25.589 24.8116L25.9425 24.458L22.3186 20.8349L21.9651 21.1885ZM21.1527 11.9042C23.7452 14.208 24.0928 18.1333 21.9455 20.8569L22.3382 21.1665C24.6493 18.235 24.2752 14.0101 21.4848 11.5304L21.1527 11.9042ZM12.1688 12.1688C14.6212 9.71632 18.5601 9.60031 21.1527 11.9042L21.4848 11.5304C18.6944 9.05072 14.4548 9.17559 11.8152 11.8152L12.1688 12.1688ZM11.9042 21.1527C9.60031 18.5601 9.71632 14.6212 12.1688 12.1688L11.8152 11.8152C9.17559 14.4548 9.05072 18.6944 11.5304 21.4848L11.9042 21.1527ZM20.8569 21.9455C18.1333 24.0928 14.208 23.7452 11.9042 21.1527L11.5304 21.4848C14.0101 24.2752 18.235 24.6493 21.1665 22.3382L20.8569 21.9455ZM11.3634 16.8083C11.3648 19.0021 12.6825 20.9808 14.7062 21.8279L14.8992 21.3667C13.0614 20.5974 11.8646 18.8004 11.8634 16.808L11.3634 16.8083ZM15.3845 11.5491C13.01 12.1925 11.3618 14.3481 11.3634 16.8083L11.8634 16.808C11.862 14.5737 13.3588 12.616 15.5153 12.0317L15.3845 11.5491ZM21.5108 14.0587C20.2701 11.9343 17.7591 10.9057 15.3845 11.5491L15.5153 12.0317C17.6718 11.4473 19.9522 12.3815 21.079 14.3109L21.5108 14.0587ZM20.6865 20.6275C22.4136 18.8755 22.7515 16.1831 21.5108 14.0587L21.079 14.3109C22.2058 16.2402 21.899 18.6854 20.3305 20.2765L20.6865 20.6275ZM20.6514 20.661L20.6802 20.6338L20.3368 20.2703L20.3081 20.2975L20.6514 20.661ZM20.6343 20.6796L20.6615 20.6509L20.298 20.3076L20.2708 20.3363L20.6343 20.6796ZM14.7062 21.8279C16.7298 22.6749 19.0642 22.2249 20.6279 20.6862L20.2772 20.3298C18.8571 21.7272 16.7371 22.1359 14.8992 21.3667L14.7062 21.8279Z" fill="#474973"/>
</svg>
