<svg width="71" height="71" viewBox="0 0 71 71" fill="none" xmlns="http://www.w3.org/2000/svg">
<path d="M36.0212 42.1775H34.9647C33.401 42.1775 32.119 40.9096 32.119 39.3319C32.119 38.6838 31.5837 38.1485 30.9357 38.1485C30.2877 38.1485 29.7524 38.6838 29.7524 39.3319C29.7524 41.9803 31.7387 44.1638 34.3026 44.4878V46.4459C34.3026 47.094 34.8379 47.6293 35.4859 47.6293C36.1339 47.6293 36.6692 47.094 36.6692 46.4459V44.4878C37.8103 44.3469 38.8669 43.8398 39.6839 43.0086C40.67 42.0225 41.2194 40.7124 41.2194 39.3178C41.2194 36.444 38.8809 34.1055 36.0071 34.1055H34.9506C33.3869 34.1055 32.1049 32.8376 32.1049 31.2598C32.1049 30.4991 32.4008 29.7948 32.9361 29.2454C33.4714 28.71 34.1758 28.4142 34.9365 28.4142H35.993C37.5567 28.4142 38.8387 29.6821 38.8387 31.2598C38.8387 31.9079 39.374 32.4432 40.022 32.4432C40.67 32.4432 41.2053 31.9079 41.2053 31.2598C41.2053 28.6114 39.219 26.4279 36.6551 26.1039V24.5261C36.6551 23.8781 36.1198 23.3428 35.4718 23.3428C34.8238 23.3428 34.2885 23.8781 34.2885 24.5261V26.1039C33.1474 26.2448 32.0909 26.7519 31.2738 27.5831C30.2877 28.5692 29.7383 29.8793 29.7383 31.2739C29.7383 34.1477 32.0768 36.4862 34.9506 36.4862H36.0071C37.5708 36.4862 38.8528 37.7541 38.8528 39.3319C38.8528 40.0926 38.5569 40.7969 38.0216 41.3463C37.5004 41.8817 36.7819 42.1775 36.0212 42.1775Z" fill="#552DCF"/>
<path d="M44.4736 47.7842C41.8534 49.7001 38.7542 50.7144 35.5 50.7144C27.1181 50.7003 20.2857 43.882 20.2857 35.5001C20.2857 32.0205 21.4832 28.6255 23.6667 25.9348C24.0752 25.4277 24.0048 24.6811 23.4976 24.2725C22.9905 23.864 22.2439 23.9344 21.8353 24.4416C19.3137 27.5549 17.9191 31.4852 17.9191 35.5001C17.9191 45.1922 25.808 53.067 35.4859 53.067C39.2472 53.067 42.8395 51.8977 45.8542 49.686C46.3754 49.3057 46.5022 48.559 46.1078 48.0378C45.7415 47.5025 44.9949 47.3898 44.4736 47.7842Z" fill="#552DCF"/>
<path d="M35.5 17.9189C31.7809 17.9189 28.2309 19.06 25.2303 21.2295C24.695 21.6098 24.5823 22.3564 24.9627 22.8777C25.343 23.3989 26.0897 23.5257 26.6109 23.1453C29.2171 21.2717 32.2881 20.2715 35.5 20.2715C43.8819 20.2715 50.7002 27.0898 50.7002 35.4717C50.7002 38.9935 49.5309 42.29 47.3333 45.0229C46.9248 45.5301 46.9952 46.2767 47.5165 46.6852C47.7418 46.8683 47.9954 46.9529 48.2631 46.9529C48.6153 46.9529 48.9534 46.7979 49.1788 46.5162C51.6863 43.4029 53.0669 39.4866 53.0669 35.4858C53.0669 25.8078 45.1921 17.9189 35.5 17.9189Z" fill="#552DCF"/>
<path d="M35.5 12.4954C22.8215 12.4954 12.4955 22.8214 12.4955 35.4999C12.4955 48.1785 22.8215 58.5045 35.5 58.5045C48.1786 58.5045 58.5046 48.1785 58.5046 35.4999C58.5046 22.8214 48.1786 12.4954 35.5 12.4954ZM35.5 56.1378C24.1175 56.1378 14.8622 46.8825 14.8622 35.4999C14.8622 24.1174 24.1175 14.862 35.5 14.862C46.8826 14.862 56.1379 24.1174 56.1379 35.4999C56.1379 46.8825 46.8826 56.1378 35.5 56.1378Z" fill="#552DCF"/>
<path d="M7.53671 34.3167H1.18333C0.535317 34.3167 0 34.852 0 35.5C0 36.148 0.535317 36.6833 1.18333 36.6833H7.53671C8.18472 36.6833 8.72004 36.148 8.72004 35.5C8.72004 34.852 8.18472 34.3167 7.53671 34.3167Z" fill="#552DCF"/>
<path d="M69.8166 34.3167H63.4632C62.8152 34.3167 62.2799 34.852 62.2799 35.5C62.2799 36.148 62.8152 36.6833 63.4632 36.6833H69.8166C70.4646 36.6833 70.9999 36.148 70.9999 35.5C70.9999 34.852 70.4646 34.3167 69.8166 34.3167Z" fill="#552DCF"/>
<path d="M14.8902 16.5527C15.1156 16.7781 15.4256 16.9048 15.7214 16.9048C16.0313 16.9048 16.3271 16.7921 16.5525 16.5527C17.0174 16.0878 17.0174 15.3412 16.5525 14.8763L12.0728 10.3965C11.6079 9.93163 10.8613 9.93163 10.3964 10.3965C9.93151 10.8614 9.93151 11.608 10.3964 12.0729L14.8902 16.5527Z" fill="#552DCF"/>
<path d="M56.1098 54.4334C55.6449 53.9685 54.8983 53.9685 54.4334 54.4334C53.9685 54.8983 53.9685 55.6449 54.4334 56.1098L58.9272 60.6036C59.1526 60.829 59.4625 60.9558 59.7584 60.9558C60.0683 60.9558 60.3641 60.8431 60.5895 60.6036C61.0544 60.1387 61.0544 59.3921 60.5895 58.9272L56.1098 54.4334Z" fill="#552DCF"/>
<path d="M35.5 8.72004C36.148 8.72004 36.6833 8.18472 36.6833 7.53671V1.18333C36.6833 0.535317 36.148 0 35.5 0C34.852 0 34.3167 0.535317 34.3167 1.18333V7.53671C34.3167 8.18472 34.852 8.72004 35.5 8.72004Z" fill="#552DCF"/>
<path d="M35.5 62.28C34.852 62.28 34.3167 62.8153 34.3167 63.4634V69.8167C34.3167 70.4648 34.852 71.0001 35.5 71.0001C36.148 71.0001 36.6833 70.4648 36.6833 69.8167V63.4634C36.6833 62.8153 36.148 62.28 35.5 62.28Z" fill="#552DCF"/>
<path d="M58.9272 10.3965L54.4334 14.8904C53.9685 15.3552 53.9685 16.1019 54.4334 16.5667C54.6588 16.7921 54.9687 16.9189 55.2645 16.9189C55.5744 16.9189 55.8703 16.8062 56.0957 16.5667L60.5895 12.0729C61.0544 11.608 61.0544 10.8614 60.5895 10.3965C60.1387 9.93163 59.3921 9.93163 58.9272 10.3965Z" fill="#552DCF"/>
<path d="M14.8902 54.4333L10.3964 58.9272C9.93151 59.392 9.93151 60.1387 10.3964 60.6036C10.6218 60.8289 10.9317 60.9557 11.2275 60.9557C11.5375 60.9557 11.8333 60.843 12.0587 60.6036L16.5525 56.1097C17.0174 55.6448 17.0174 54.8982 16.5525 54.4333C16.1017 53.9825 15.341 53.9825 14.8902 54.4333Z" fill="#552DCF"/>
</svg>
