<svg width="45" height="70" viewBox="0 0 45 70" fill="none" xmlns="http://www.w3.org/2000/svg">
<path d="M44.137 37.4138C44.0163 36.6897 43.5336 36.0862 42.6887 36.0862C42.206 35.9655 31.2232 34.6379 25.1887 40.6724C24.5853 41.2759 24.2232 41.7586 23.7404 42.4828V33.7931C32.4301 32.9483 39.068 25.7069 39.068 16.8966C39.068 7.60345 31.4646 0 22.1715 0C12.8784 0 5.27493 7.60345 5.27493 16.8966C5.27493 25.7069 12.0335 32.9483 20.6025 33.7931V42.6034C20.1198 42 19.637 41.2759 19.0335 40.6724C12.9991 34.6379 2.0163 35.9655 1.53354 36.0862C0.809406 36.2069 0.20595 36.6897 0.20595 37.4138C0.0852607 37.8966 -1.24232 48.8793 4.79216 54.9138C8.89561 59.0172 15.1715 59.7414 19.0335 59.7414C19.637 59.7414 20.2404 59.7414 20.7232 59.6207V68.6724L23.9818 70V59.7414C24.4646 59.7414 24.9473 59.8621 25.5508 59.8621C29.2922 59.8621 35.6887 59.1379 39.7922 55.0345C45.5853 48.8793 44.2577 37.8966 44.137 37.4138ZM12.8784 46.5862C12.2749 45.9828 11.068 45.9828 10.4646 46.5862C9.86112 47.1897 9.86112 48.3965 10.4646 49L17.8266 56.3621C14.568 56.2414 9.86112 55.5172 6.84388 52.6207C3.1025 48.7586 2.98182 42.1207 3.10251 39.2241C5.99906 38.9828 12.637 39.1034 16.4991 42.9655C19.3956 45.9828 20.2404 50.6897 20.2404 53.9483L12.8784 46.5862ZM8.65423 16.8966C8.65423 9.41379 14.6887 3.25862 22.2922 3.25862C29.8956 3.25862 35.9301 9.2931 35.9301 16.8966C35.9301 24.3793 29.8956 30.5345 22.2922 30.5345C14.6887 30.5345 8.65423 24.3793 8.65423 16.8966ZM37.137 52.6207C34.2404 55.6379 29.5335 56.3621 26.1542 56.3621L33.5163 49C34.1198 48.3965 34.1198 47.1897 33.5163 46.5862C32.9129 45.9828 31.706 45.9828 31.1025 46.5862L23.7404 53.9483C23.9818 50.6897 24.5853 45.9828 27.6025 42.9655C31.3439 39.2241 38.1025 39.1034 40.8784 39.2241C41.1198 42.1207 40.8784 48.6379 37.137 52.6207Z" fill="url(#paint0_linear_28_44)"/>
<path d="M23.6197 27.5172V25.1034C26.1542 24.862 28.0852 22.8103 28.0852 20.2758C28.0852 17.6206 25.9128 15.4482 23.2576 15.4482H20.8439C19.8783 15.4482 19.0335 14.6034 19.0335 13.6379C19.0335 12.6724 19.8783 11.8275 20.8439 11.8275H23.2576C24.2232 11.8275 25.068 12.6724 25.068 13.6379H28.0852C28.0852 11.1034 26.0335 8.93097 23.6197 8.81028V6.2758H20.7232V8.6896C18.1887 8.93097 16.2576 10.9827 16.2576 13.5172C16.2576 16.1724 18.4301 18.3448 21.0852 18.3448H23.499C24.4645 18.3448 25.3094 19.1896 25.3094 20.1551C25.3094 21.1206 24.4645 21.9655 23.499 21.9655H21.0852C20.1197 21.9655 19.2749 21.1206 19.2749 20.1551H16.137C16.137 22.6896 18.1887 24.862 20.6025 24.9827V27.3965L23.6197 27.5172Z" fill="url(#paint1_linear_28_44)"/>
<defs>
<linearGradient id="paint0_linear_28_44" x1="0" y1="0" x2="63.2942" y2="40.1028" gradientUnits="userSpaceOnUse">
<stop stopColor="#9E80FA"/>
<stop offset="1" stopColor="#552DCF"/>
</linearGradient>
<linearGradient id="paint1_linear_28_44" x1="16.137" y1="6.2758" x2="34.2898" y2="16.4868" gradientUnits="userSpaceOnUse">
<stop stopColor="#9E80FA"/>
<stop offset="1" stopColor="#552DCF"/>
</linearGradient>
</defs>
</svg>
