<svg width="16" height="16" viewBox="0 0 16 16" fill="none" xmlns="http://www.w3.org/2000/svg">
<path fillRule="evenodd" clipRule="evenodd" d="M11.0117 12.1419L14.6348 15.7658C14.9471 16.0781 15.4535 16.0781 15.7658 15.7658C16.0781 15.4535 16.0781 14.9471 15.7658 14.6348L12.1419 11.0117C14.3711 8.18412 14.0102 4.10906 11.3187 1.71729C8.62725 -0.674481 4.53802 -0.554042 1.99199 1.99199C-0.554042 4.53802 -0.674481 8.62725 1.71729 11.3187C4.10906 14.0102 8.18412 14.3711 11.0117 12.1419ZM4.80269 11.5973C2.87193 10.7891 1.6147 8.90123 1.61338 6.80815C1.61188 4.46094 3.18439 2.40426 5.44991 1.79038C7.71542 1.1765 10.1112 2.15791 11.2949 4.18478C12.4786 6.21165 12.1563 8.78046 10.5085 10.452L10.4797 10.4792L10.4526 10.508C8.96064 11.976 6.73346 12.4054 4.80269 11.5973Z" fill="#5735D4"/>
</svg>
