<svg width="25" height="24" viewBox="0 0 25 24" fill="none" xmlns="http://www.w3.org/2000/svg">
<path d="M24.6334 21.9516L18.9598 16.5048C20.3885 14.7672 21.2497 12.5796 21.2497 10.2C21.2497 4.5756 16.4835 0 10.6249 0C4.76619 0 0 4.5756 0 10.2C0 15.8244 4.76619 20.4 10.6249 20.4C13.1048 20.4 15.3823 19.5744 17.1923 18.2016L22.866 23.6484C23.1097 23.8824 23.4297 24 23.7497 24C24.0697 24 24.3897 23.8824 24.6334 23.6484C25.1222 23.1792 25.1222 22.4208 24.6334 21.9516ZM2.49997 10.2C2.49997 5.8992 6.14492 2.4 10.6249 2.4C15.1048 2.4 18.7498 5.8992 18.7498 10.2C18.7498 14.5008 15.1048 18 10.6249 18C6.14492 18 2.49997 14.5008 2.49997 10.2Z" fill="#552DCF"/>
</svg>
