<svg width="32" height="23" viewBox="0 0 32 23" fill="none" xmlns="http://www.w3.org/2000/svg">
<path d="M29.3345 0.5H2.67779C1.20997 0.5 0.0126953 1.69728 0.0126953 3.1651V19.8349C0.0126953 21.3027 1.20997 22.5 2.67779 22.5H29.3288C30.7966 22.5 31.9939 21.3027 31.9939 19.8349V3.1651C31.9939 1.69728 30.7966 0.5 29.3345 0.5ZM30.221 19.8407C30.221 20.3299 29.8238 20.7271 29.3345 20.7271H2.67779C2.18852 20.7271 1.79135 20.3299 1.79135 19.8407V3.1651C1.79135 2.67582 2.18852 2.27865 2.67779 2.27865H29.3288C29.818 2.27865 30.2152 2.67582 30.2152 3.1651V19.8407H30.221Z" fill="white"/>
<path d="M25.1612 12.3577C24.6259 12.3577 24.0963 12.5016 23.6301 12.7491C23.1696 12.4958 22.64 12.3577 22.0817 12.3577C20.2685 12.3577 18.7949 13.8312 18.7949 15.6444C18.7949 17.4576 20.2685 18.9312 22.0817 18.9312C22.6573 18.9312 23.1869 18.7873 23.6646 18.5283C23.7337 18.5858 23.8028 18.6434 23.8891 18.6722C24.292 18.8448 24.7238 18.9312 25.167 18.9312C26.9802 18.9312 28.4537 17.4576 28.4537 15.6444C28.4537 13.8312 26.9687 12.3577 25.1612 12.3577ZM22.0817 17.1525C21.2528 17.1525 20.5736 16.4733 20.5736 15.6444C20.5736 14.8155 21.2528 14.1363 22.0817 14.1363C22.9106 14.1363 23.5898 14.8155 23.5898 15.6444C23.5898 16.4733 22.9106 17.1525 22.0817 17.1525ZM25.1612 17.1525C25.1037 17.1525 25.0519 17.141 25.0058 17.141C25.2361 16.692 25.3684 16.1855 25.3684 15.6502C25.3684 15.1149 25.2361 14.6141 25.0116 14.1593C25.0634 14.1536 25.1152 14.1421 25.167 14.1421C25.9959 14.1421 26.6751 14.8213 26.6751 15.6502C26.6693 16.4733 25.9959 17.1525 25.1612 17.1525Z" fill="white"/>
<path d="M5.88971 10.9243H7.21938C8.68719 10.9243 9.88447 9.72699 9.88447 8.25917V6.9295C9.88447 5.46168 8.68719 4.2644 7.21938 4.2644H5.88971C4.42189 4.2644 3.22461 5.46168 3.22461 6.9295V8.25917C3.23037 9.7385 4.42189 10.9243 5.88971 10.9243ZM5.00326 6.93526C5.00326 6.44598 5.40043 6.04881 5.88971 6.04881H7.21938C7.70865 6.04881 8.10582 6.44598 8.10582 6.93526V8.26493C8.10582 8.7542 7.70865 9.15137 7.21938 9.15137H5.88971C5.40043 9.15137 5.00326 8.7542 5.00326 8.26493V6.93526Z" fill="white"/>
<path d="M4.11692 15.1955H5.99342C6.48269 15.1955 6.87987 14.7983 6.87987 14.3091C6.87987 13.8198 6.48269 13.4226 5.99342 13.4226H4.11692C3.62764 13.4226 3.23047 13.8198 3.23047 14.3091C3.23047 14.7983 3.62764 15.1955 4.11692 15.1955Z" fill="white"/>
<path d="M11.2028 17.1526H4.12278C3.6335 17.1526 3.23633 17.5498 3.23633 18.039C3.23633 18.5283 3.6335 18.9255 4.12278 18.9255H11.2028C11.6921 18.9255 12.0893 18.5283 12.0893 18.039C12.0893 17.5498 11.6864 17.1526 11.2028 17.1526Z" fill="white"/>
<path d="M11.2024 13.4111H9.3259C8.83663 13.4111 8.43945 13.8083 8.43945 14.2976C8.43945 14.7869 8.83663 15.184 9.3259 15.184H11.2024C11.6917 15.184 12.0889 14.7869 12.0889 14.2976C12.0889 13.8083 11.6859 13.4111 11.2024 13.4111Z" fill="white"/>
<path d="M16.4006 13.4111H14.5241C14.0349 13.4111 13.6377 13.8083 13.6377 14.2976C13.6377 14.7869 14.0349 15.184 14.5241 15.184H16.4006C16.8899 15.184 17.2871 14.7869 17.2871 14.2976C17.2871 13.8083 16.8899 13.4111 16.4006 13.4111Z" fill="white"/>
</svg>
