<svg width="40" height="40" viewBox="0 0 40 40" fill="none" xmlns="http://www.w3.org/2000/svg">
<path d="M20.0052 0C8.95382 0 0 8.95382 0 20.0052C0 31.0566 8.95382 40.0104 20.0052 40.0104C31.0566 40.0104 40.0104 31.0566 40.0104 20.0052C40.0104 8.95382 31.0462 0 20.0052 0ZM29.8043 25.4944C29.2825 28.1033 27.0389 29.94 24.336 29.9817C21.4453 30.0235 18.5547 30.0339 15.6744 29.9817C12.4915 29.9296 10.06 27.4772 10.0078 24.2943C9.96608 21.4245 9.95565 18.5442 10.0078 15.664C10.0704 12.4289 12.5228 10.0391 15.7683 9.99739C17.5007 9.97652 19.233 9.99739 20.9549 9.98696C23.0629 9.98696 26.2145 12.0845 26.0997 15.1631C26.0684 16.0084 26.0997 16.8536 26.0997 17.7407C26.5171 17.7824 26.8928 17.7929 27.258 17.845C28.886 18.1164 29.6165 18.7738 29.8565 20.3913C30.0965 22.0924 30.1383 23.8142 29.8043 25.4944Z" fill="#422F87"/>
</svg>
