<svg width="65" height="65" viewBox="0 0 65 65" fill="none" xmlns="http://www.w3.org/2000/svg">
<path d="M63.4608 0H18.3515C17.5228 0 16.8124 0.710386 16.8124 1.53917V31.2568C16.8124 32.0856 17.5228 32.796 18.3515 32.796H58.9617C62.2769 32.796 65 30.0729 65 26.7577V1.53917C65 0.710386 64.2896 0 63.4608 0ZM62.0401 2.95993V22.1403H19.7723V2.95993H62.0401ZM58.9617 29.7177H19.7723V25.2186H61.9217V26.7577C62.0401 28.4153 60.6193 29.7177 58.9617 29.7177Z" fill="url(#paint0_linear_28_31)"/>
<path d="M48.5428 17.1676C49.3716 17.1676 50.2004 16.9308 50.9107 16.694C51.6211 17.0492 52.4499 17.1676 53.2787 17.1676C56.4754 17.1676 59.0801 14.5628 59.0801 11.3661C59.0801 8.1694 56.4754 5.56467 53.2787 5.56467C52.4499 5.56467 51.6211 5.80146 50.9107 6.03826C50.2004 5.68307 49.3716 5.56467 48.5428 5.56467C45.3461 5.56467 42.7413 8.1694 42.7413 11.3661C42.7413 14.5628 45.3461 17.1676 48.5428 17.1676ZM51.3843 11.3661C51.3843 11.9581 51.2659 12.4317 50.9107 12.9053C50.6739 12.4317 50.4371 11.9581 50.4371 11.3661C50.4371 10.7741 50.5555 10.3006 50.9107 9.82697C51.2659 10.3006 51.3843 10.7741 51.3843 11.3661ZM56.2386 11.3661C56.2386 12.7869 55.173 13.9709 53.7523 14.2077C54.2259 13.3789 54.4626 12.4317 54.4626 11.3661C54.4626 10.3006 54.2259 9.35337 53.7523 8.52459C55.173 8.76139 56.2386 9.94536 56.2386 11.3661ZM48.306 8.52459C47.8324 9.35337 47.5956 10.3006 47.5956 11.3661C47.5956 12.4317 47.8324 13.3789 48.306 14.2077C46.8852 14.0893 45.8197 12.9053 45.8197 11.3661C45.7013 9.94536 46.8852 8.76139 48.306 8.52459Z" fill="url(#paint1_linear_28_31)"/>
<path d="M37.0583 12.9053H38.2423C39.0711 12.9053 39.7815 12.1949 39.7815 11.3661C39.7815 10.5373 39.0711 9.82697 38.2423 9.82697H37.0583C36.2295 9.82697 35.5192 10.5373 35.5192 11.3661C35.6376 12.1949 36.2295 12.9053 37.0583 12.9053Z" fill="url(#paint2_linear_28_31)"/>
<path d="M25.1002 12.9053H26.2842C27.1129 12.9053 27.8233 12.1949 27.8233 11.3661C27.8233 10.5373 27.1129 9.82697 26.2842 9.82697H25.1002C24.2714 9.82697 23.561 10.5373 23.561 11.3661C23.6794 12.1949 24.2714 12.9053 25.1002 12.9053Z" fill="url(#paint3_linear_28_31)"/>
<path d="M31.1384 12.9053H32.3224C33.1512 12.9053 33.8615 12.1949 33.8615 11.3661C33.8615 10.5373 33.1512 9.82697 32.3224 9.82697H31.1384C30.3096 9.82697 29.5992 10.5373 29.5992 11.3661C29.5992 12.1949 30.3096 12.9053 31.1384 12.9053Z" fill="url(#paint4_linear_28_31)"/>
<path d="M48.1876 44.6357V35.9927C48.1876 35.1639 47.4772 34.4536 46.6484 34.4536C45.8197 34.4536 45.1093 35.1639 45.1093 35.9927V40.1366H3.07832V20.9563H13.4973C14.326 20.9563 15.0364 20.2459 15.0364 19.4171C15.0364 18.5883 14.326 17.878 13.4973 17.878H1.53916C0.710383 17.878 0 18.5883 0 19.4171V49.1348C0 49.9636 0.710383 50.674 1.53916 50.674H42.1494C45.4645 50.7924 48.1876 48.0692 48.1876 44.6357ZM42.1494 47.714H3.07832V43.2149H45.2277V44.7541C45.2277 46.4117 43.8069 47.714 42.1494 47.714Z" fill="url(#paint5_linear_28_31)"/>
<path d="M7.10374 27.8233C6.27496 27.8233 5.56458 28.5337 5.56458 29.3625C5.56458 30.1913 6.27496 30.9016 7.10374 30.9016H8.28771C9.11649 30.9016 9.82687 30.1913 9.82687 29.3625C9.82687 28.5337 9.11649 27.8233 8.28771 27.8233H7.10374Z" fill="url(#paint6_linear_28_31)"/>
<path d="M13.7342 27.8233H13.1422C12.3134 27.8233 11.603 28.5337 11.603 29.3625C11.603 30.1913 12.3134 30.9016 13.1422 30.9016H13.7342C14.563 30.9016 15.2733 30.1913 15.2733 29.3625C15.2733 28.5337 14.563 27.8233 13.7342 27.8233Z" fill="url(#paint7_linear_28_31)"/>
<path d="M63.4608 36.5847H56.357C55.5282 36.5847 54.8178 37.2951 54.8178 38.1239C54.8178 38.9526 55.5282 39.663 56.357 39.663H59.7905L51.7395 47.714C51.1475 48.306 51.1475 49.2532 51.7395 49.8452C51.9763 50.082 52.4499 50.3188 52.8051 50.3188C53.1603 50.3188 53.5155 50.2004 53.8707 49.8452L61.9217 41.7942V45.2277C61.9217 46.0565 62.6321 46.7668 63.4608 46.7668C64.2896 46.7668 65 46.0565 65 45.2277V38.1239C65 37.7687 64.8816 37.2951 64.5264 37.0583C64.2896 36.7031 63.9344 36.5847 63.4608 36.5847Z" fill="url(#paint8_linear_28_31)"/>
<path d="M56.357 51.3843L48.306 59.4353V56.0018C48.306 55.173 47.5956 54.4627 46.7668 54.4627C45.938 54.4627 45.2277 55.173 45.2277 56.0018V63.1056C45.2277 63.9344 45.938 64.6448 46.7668 64.6448H53.8707C54.6994 64.6448 55.4098 63.9344 55.4098 63.1056C55.4098 62.2769 54.6994 61.5665 53.8707 61.5665H50.4371L58.4881 53.5155C59.0801 52.9235 59.0801 51.9763 58.4881 51.3843C57.8962 50.7923 56.949 50.7923 56.357 51.3843Z" fill="url(#paint9_linear_28_31)"/>
<defs>
<linearGradient id="paint0_linear_28_31" x1="16.8124" y1="0" x2="47.3216" y2="44.8277" gradientUnits="userSpaceOnUse">
<stop stopColor="#9E80FA"/>
<stop offset="1" stopColor="#552DCF"/>
</linearGradient>
<linearGradient id="paint1_linear_28_31" x1="42.7413" y1="5.56467" x2="53.6962" y2="20.9909" gradientUnits="userSpaceOnUse">
<stop stopColor="#9E80FA"/>
<stop offset="1" stopColor="#552DCF"/>
</linearGradient>
<linearGradient id="paint2_linear_28_31" x1="35.5192" y1="9.82697" x2="38.4414" y2="13.8731" gradientUnits="userSpaceOnUse">
<stop stopColor="#9E80FA"/>
<stop offset="1" stopColor="#552DCF"/>
</linearGradient>
<linearGradient id="paint3_linear_28_31" x1="23.561" y1="9.82697" x2="26.4833" y2="13.8731" gradientUnits="userSpaceOnUse">
<stop stopColor="#9E80FA"/>
<stop offset="1" stopColor="#552DCF"/>
</linearGradient>
<linearGradient id="paint4_linear_28_31" x1="29.5992" y1="9.82697" x2="32.5215" y2="13.8731" gradientUnits="userSpaceOnUse">
<stop stopColor="#9E80FA"/>
<stop offset="1" stopColor="#552DCF"/>
</linearGradient>
<linearGradient id="paint5_linear_28_31" x1="0" y1="17.878" x2="30.514" y2="62.7075" gradientUnits="userSpaceOnUse">
<stop stopColor="#9E80FA"/>
<stop offset="1" stopColor="#552DCF"/>
</linearGradient>
<linearGradient id="paint6_linear_28_31" x1="5.56458" y1="27.8233" x2="8.48681" y2="31.8695" gradientUnits="userSpaceOnUse">
<stop stopColor="#9E80FA"/>
<stop offset="1" stopColor="#552DCF"/>
</linearGradient>
<linearGradient id="paint7_linear_28_31" x1="11.603" y1="27.8233" x2="14.6343" y2="31.4376" gradientUnits="userSpaceOnUse">
<stop stopColor="#9E80FA"/>
<stop offset="1" stopColor="#552DCF"/>
</linearGradient>
<linearGradient id="paint8_linear_28_31" x1="51.2955" y1="36.5847" x2="65.0296" y2="50.2891" gradientUnits="userSpaceOnUse">
<stop stopColor="#9E80FA"/>
<stop offset="1" stopColor="#552DCF"/>
</linearGradient>
<linearGradient id="paint9_linear_28_31" x1="45.2277" y1="50.9403" x2="58.9321" y2="64.6448" gradientUnits="userSpaceOnUse">
<stop stopColor="#9E80FA"/>
<stop offset="1" stopColor="#552DCF"/>
</linearGradient>
</defs>
</svg>
