<svg width="70" height="65" viewBox="0 0 70 65" fill="none" xmlns="http://www.w3.org/2000/svg">
<g clipPath="url(#clip0_3114_5355)">
<path d="M31.9166 46.279C31.9166 42.793 32.8634 39.5222 34.5275 36.7104V30.5275H40.4522C43.4074 28.6052 46.9221 27.4862 50.7093 27.4862C54.8409 27.4862 58.6568 28.8203 61.7698 31.087C61.8272 30.3697 61.8559 29.6524 61.8559 28.9208C61.8415 12.9684 48.8731 0 32.9208 0C16.9684 0 4 12.9684 4 28.9208C4 44.5862 16.5094 57.3681 32.06 57.8128C32.3469 57.8415 32.6195 57.8415 32.9064 57.8415C33.1933 57.8415 33.4802 57.8415 33.7528 57.8128C34.4271 57.7985 35.087 57.7555 35.7612 57.6837C33.3511 54.5277 31.9166 50.5683 31.9166 46.279ZM34.5275 27.3141V17.6738H43.6943C44.3973 20.6147 44.8133 23.8711 44.928 27.3141H34.5275ZM58.5851 27.3141H48.1415C48.041 23.9141 47.6681 20.672 47.0082 17.6738H56.0459C57.4805 20.6147 58.3699 23.8711 58.5851 27.3141ZM54.1666 14.4604H46.1761C45.5736 12.452 44.8563 10.5584 44.0099 8.87994C43.2066 7.28757 42.3171 5.85301 41.2986 4.61929C46.5778 6.44118 51.068 9.94151 54.1666 14.4604ZM34.5275 3.48599C36.8945 4.21761 39.2328 6.52726 41.1265 10.3145C41.7433 11.5626 42.3171 12.9541 42.8049 14.4604H34.5131V3.48599H34.5275ZM31.3141 30.5275V40.1677H22.1472C21.4443 37.2269 21.0282 33.9704 20.9135 30.5275H31.3141ZM31.3141 27.3141H20.9278C21.0282 23.8711 21.4586 20.6147 22.1616 17.6738H31.3284V27.3141H31.3141ZM31.2854 3.48599C31.2854 3.48599 31.2997 3.48599 31.3141 3.48599V14.4604H23.0223C23.51 12.9541 24.0839 11.5626 24.7007 10.3145C26.5943 6.5416 28.9327 4.23196 31.2854 3.48599ZM24.5286 4.61929C23.51 5.86736 22.6206 7.28757 21.8173 8.87994C20.9852 10.5584 20.2679 12.4377 19.6511 14.4604H11.6893C14.7736 9.94151 19.2637 6.44118 24.5286 4.61929ZM9.79563 17.6738H18.8334C18.1735 20.672 17.8005 23.9141 17.7001 27.3141H7.2708C7.47164 23.8711 8.37541 20.6147 9.79563 17.6738ZM7.2708 30.5275H17.7144C17.8148 33.9274 18.1878 37.1695 18.8477 40.1677H9.78128C8.34672 37.2269 7.47164 33.9561 7.2708 30.5275ZM11.6606 43.3812H19.6654C20.2679 45.4039 20.9852 47.2688 21.8316 48.9616C22.6206 50.5396 23.51 51.9885 24.5142 53.2366C19.235 51.4004 14.7449 47.9144 11.6606 43.3812ZM31.3141 54.3842C28.947 53.6526 26.6087 51.2999 24.7151 47.5127C24.0982 46.2646 23.5244 44.9018 23.0366 43.3955H31.3284V54.3842H31.3141Z" fill="url(#paint0_linear_3114_5355)"/>
<path d="M50.6375 27.4146C40.2656 27.4146 31.8447 35.8354 31.8447 46.2073C31.8447 56.5792 40.2656 65.0001 50.6375 65.0001C61.0094 65.0001 69.4302 56.5792 69.4302 46.2073C69.4302 35.8354 61.0094 27.4146 50.6375 27.4146ZM50.6375 62.3605C41.7145 62.3605 34.4843 55.1303 34.4843 46.2073C34.4843 37.2843 41.7145 30.0541 50.6375 30.0541C59.5605 30.0541 66.7763 37.2987 66.7763 46.2073C66.7763 55.1159 59.5461 62.3605 50.6375 62.3605Z" fill="url(#paint1_linear_3114_5355)"/>
<path d="M51 50.9695C50.5152 50.9695 50.0303 50.7252 49.6667 50.3588C49.6667 49.626 49.0606 49.0153 48.3333 49.0153C47.6061 49.0153 47 49.626 47 50.3588C47.1212 51.0916 47.3637 51.7023 47.8485 52.313C48.3333 52.8015 48.9394 53.2901 49.6667 53.4122V53.6565C49.6667 54.3893 50.2727 55 51 55C51.7273 55 52.3333 54.3893 52.3333 53.6565V53.4122C53.5454 53.0458 54.3939 52.0687 54.7576 50.8473C55.1212 49.626 54.8788 48.2824 54.1515 47.3053C53.4242 46.3282 52.2121 45.7176 51 45.7176C50.2727 45.7176 49.6667 45.1069 49.6667 44.374C49.6667 43.6412 50.2727 43.0305 51 43.0305C51.4849 43.0305 51.9697 43.2748 52.3333 43.6412C52.3333 44.374 52.9394 44.9847 53.6667 44.9847C54.3939 44.9847 55 44.374 55 43.6412C54.8788 42.9084 54.6363 42.2977 54.1515 41.687C53.6667 41.1985 53.0606 40.7099 52.3333 40.5878V40.3435C52.3333 39.6107 51.7273 39 51 39C50.2727 39 49.6667 39.6107 49.6667 40.3435V40.5878C48.4546 40.9542 47.6061 41.9313 47.2424 43.1527C46.8788 44.374 47.1212 45.7176 47.8485 46.6947C48.5758 47.6718 49.7879 48.2824 51 48.2824C51.7273 48.2824 52.3333 48.8931 52.3333 49.626C52.3333 50.3588 51.7273 50.9695 51 50.9695Z" fill="url(#paint2_linear_3114_5355)"/>
</g>
<defs>
<linearGradient id="paint0_linear_3114_5355" x1="4" y1="0" x2="4" y2="57.8415" gradientUnits="userSpaceOnUse">
<stop stopColor="#6C4DDA" stopOpacity="0.6"/>
<stop offset="1" stopColor="#522ED2"/>
</linearGradient>
<linearGradient id="paint1_linear_3114_5355" x1="31.8447" y1="27.4146" x2="31.8447" y2="65.0001" gradientUnits="userSpaceOnUse">
<stop stopColor="#6C4DDA" stopOpacity="0.6"/>
<stop offset="1" stopColor="#522ED2"/>
</linearGradient>
<linearGradient id="paint2_linear_3114_5355" x1="47" y1="39" x2="59.8" y2="45.4" gradientUnits="userSpaceOnUse">
<stop stopColor="#9E80FA"/>
<stop offset="1" stopColor="#552DCF"/>
</linearGradient>
<clipPath id="clip0_3114_5355">
<rect width="65.4304" height="65" fill="white" transform="translate(4)"/>
</clipPath>
</defs>
</svg>
