<svg width="40" height="40" viewBox="0 0 40 40" fill="none" xmlns="http://www.w3.org/2000/svg">
<path d="M19.953 0C8.93295 0 0 8.93295 0 19.953C0 30.9731 8.93295 39.9061 19.953 39.9061C30.9731 39.9061 39.9061 30.9731 39.9061 19.953C39.9061 8.93295 30.9731 0 19.953 0ZM29.9191 14.0256C29.4704 14.5474 29.0425 15.1004 28.5416 15.5596C28.1555 15.9144 28.0407 16.2901 28.0094 16.7806C27.6546 21.7375 25.3692 25.4527 20.7253 27.4146C17.3024 28.8547 13.8482 28.6042 10.5296 26.8823C10.3 26.7675 9.94521 26.6945 10.0391 26.3292C10.1331 25.964 10.4774 26.0788 10.7383 26.0788C12.3559 26.0684 13.8482 25.6614 15.2674 24.743C15.0691 24.6804 14.9335 24.6387 14.7978 24.5969C13.4412 24.1795 12.502 23.3133 11.9697 21.988C11.8028 21.5601 11.8967 21.4453 12.3559 21.508C12.4915 21.5288 12.6376 21.5288 12.7733 21.5393C11.5836 20.7879 10.8114 19.7861 10.5296 18.4294C10.4879 18.2103 10.467 17.9911 10.4566 17.772C10.4357 17.3441 10.54 17.2711 10.9262 17.4485C11.1453 17.5424 11.3749 17.6363 11.6567 17.6572C11.5732 17.5528 11.4897 17.4485 11.4062 17.3441C10.3418 15.8831 10.1852 14.3386 10.9575 12.7107C11.1558 12.2932 11.2705 12.2932 11.5627 12.6376C13.4516 14.8396 15.8205 16.144 18.6903 16.5719C18.7947 16.5823 18.899 16.5927 19.0034 16.6136C19.3165 16.6762 19.4104 16.551 19.3895 16.2275C19.306 14.8291 19.7548 13.629 20.8192 12.7002C22.3637 11.3436 24.7222 11.281 26.3292 12.5646C26.6632 12.8359 26.9763 12.9194 27.3624 12.7524C27.9155 12.5228 28.4581 12.2724 29.0112 12.0532C29.126 12.001 29.2721 12.0219 29.4078 12.0115C29.4078 12.1471 29.4495 12.2932 29.4078 12.408C29.293 12.7002 29.1573 12.982 29.0008 13.2429C28.8442 13.5038 28.6355 13.7438 28.3851 14.0673C28.8442 13.9108 29.2095 13.7647 29.5956 13.6499C29.7104 13.6186 29.8461 13.6708 29.9817 13.6812C29.9609 13.796 29.9817 13.9525 29.9191 14.0256Z" fill="#422F87"/>
</svg>
