<svg width="16" height="16" viewBox="0 0 16 16" fill="none" xmlns="http://www.w3.org/2000/svg">
<path fillRule="evenodd" clipRule="evenodd" d="M2.667 16H13.333C14.8053 15.9983 15.9983 14.8053 16 13.333V2.667C15.9983 1.19474 14.8053 0.0016533 13.333 0H2.667C1.19474 0.0016533 0.0016533 1.19474 0 2.667V13.333C0.0016533 14.8053 1.19474 15.9983 2.667 16ZM1.778 2.667C1.77855 2.17664 2.17564 1.7791 2.666 1.778H13.333C13.8238 1.77855 14.2214 2.17625 14.222 2.667V13.333C14.2209 13.8234 13.8234 14.2205 13.333 14.221H2.666C2.1758 14.2204 1.77855 13.8232 1.778 13.333V2.667Z" fill="#8A8D9F"/>
</svg>
