<svg width="50" height="50" viewBox="0 0 50 50" fill="none" xmlns="http://www.w3.org/2000/svg">
<path d="M27.4421 6.25H18.7513C14.8229 6.25 12.8587 6.25 11.6384 7.47039C10.418 8.69078 10.418 10.655 10.418 14.5833V35.4167C10.418 39.345 10.418 41.3092 11.6384 42.5296C12.8587 43.75 14.8229 43.75 18.7513 43.75H31.2513C35.1797 43.75 37.1439 43.75 38.3642 42.5296C39.5846 41.3092 39.5846 39.345 39.5846 35.4167V18.3926C39.5846 17.541 39.5846 17.1152 39.4261 16.7324C39.2675 16.3495 38.9664 16.0484 38.3643 15.4463L30.3884 7.47039C29.7862 6.86824 29.4851 6.56717 29.1023 6.40858C28.7194 6.25 28.2936 6.25 27.4421 6.25Z" stroke="#00AFAF" strokeWidth="3"/>
<path d="M18.75 27.0833L31.25 27.0833" stroke="#00AFAF" strokeWidth="3" strokeLinecap="round"/>
<path d="M18.75 35.4167L27.0833 35.4167" stroke="#00AFAF" strokeWidth="3" strokeLinecap="round"/>
<path d="M27.082 6.25V14.5833C27.082 16.5475 27.082 17.5296 27.6922 18.1398C28.3024 18.75 29.2845 18.75 31.2487 18.75H39.582" stroke="#00AFAF" strokeWidth="3"/>
</svg>
