<svg width="18" height="18" viewBox="0 0 18 18" fill="none" xmlns="http://www.w3.org/2000/svg">
<path fillRule="evenodd" clipRule="evenodd" d="M8.89117 0.158325C11.0436 0.158325 12.8942 1.44338 13.7208 3.28479C13.8109 3.48554 13.8694 3.61537 13.915 3.70758C13.9243 3.72645 13.9321 3.74165 13.9385 3.75378L13.9554 3.75471C14.0263 3.75813 14.1238 3.75835 14.2915 3.75835C16.2199 3.75835 17.7832 5.32162 17.7832 7.25001C17.7832 9.17841 16.2199 10.7417 14.2915 10.7417H13.7232L12.1399 9.15835H14.2915C15.3455 9.15835 16.1999 8.30396 16.1999 7.25001C16.1999 6.19607 15.3455 5.34168 14.2915 5.34168L14.2754 5.34168C14.1294 5.34169 13.9929 5.34169 13.8791 5.3362C13.7607 5.33049 13.6125 5.31722 13.4584 5.26874C13.3419 5.23213 13.2073 5.18112 13.07 5.09227C12.9328 5.00342 12.8311 4.90148 12.75 4.81026C12.6329 4.67849 12.5514 4.52206 12.4959 4.40981C12.4354 4.28757 12.3647 4.13006 12.2826 3.94709L12.2825 3.94704L12.2763 3.93321C11.6957 2.63985 10.3975 1.74166 8.89117 1.74166C7.38462 1.74166 6.08622 2.64011 5.50575 3.93377L5.49955 3.94759L5.49953 3.94762C5.41758 4.13027 5.34703 4.28751 5.28668 4.40954C5.23127 4.52158 5.15005 4.67774 5.03325 4.80934C4.95201 4.90088 4.85013 5.00314 4.71252 5.09222C4.57492 5.1813 4.43992 5.23238 4.32314 5.26903C4.16927 5.31732 4.02137 5.33053 3.9032 5.33622C3.78959 5.34169 3.65336 5.34169 3.50765 5.34168L3.49154 5.34168C2.43759 5.34168 1.5832 6.19607 1.5832 7.25001C1.5832 8.30396 2.43759 9.15835 3.49154 9.15835H5.64474L4.06141 10.7417H3.49154C1.56314 10.7417 -0.000127792 9.17841 -0.000127792 7.25001C-0.000127792 5.32162 1.56314 3.75835 3.49154 3.75835C3.65897 3.75835 3.75628 3.75813 3.82703 3.75472L3.84395 3.75379C3.85033 3.74168 3.8581 3.7265 3.86742 3.70766C3.91294 3.6156 3.97125 3.48598 4.06117 3.28558C4.88761 1.44374 6.73842 0.158325 8.89117 0.158325Z" fill="#00AFAF"/>
<path d="M8.89219 8.7417L9.45198 8.18191L8.89219 7.62211L8.33239 8.18191L8.89219 8.7417ZM8.10052 16.8417C8.10052 17.2789 8.45496 17.6334 8.89219 17.6334C9.32941 17.6334 9.68385 17.2789 9.68385 16.8417L8.10052 16.8417ZM13.052 11.7819L9.45198 8.18191L8.33239 9.30149L11.9324 12.9015L13.052 11.7819ZM8.33239 8.18191L4.73239 11.7819L5.85198 12.9015L9.45198 9.30149L8.33239 8.18191ZM8.10052 8.7417L8.10052 16.8417L9.68385 16.8417L9.68385 8.7417L8.10052 8.7417Z" fill="#00AFAF"/>
</svg>
