<svg width="60" height="51" viewBox="0 0 60 51" fill="none" xmlns="http://www.w3.org/2000/svg">
<path d="M54.3014 15.4311H51.1597V5.68286C51.1597 4.182 50.5605 2.73943 49.4938 1.67571C48.4271 0.612 46.9804 0 45.4753 0H9.03106C6.63457 0 4.35498 0.947143 2.6599 2.62286C0.964817 4.31314 0.0149879 6.58629 0.0149879 8.976C0.00037513 9.22371 0.00037513 9.47143 0.0149879 9.71914C0.00037513 9.83571 0.00037513 9.95229 0.0149879 10.0689V40.9166C0.0442134 43.5977 1.14017 46.1623 3.05444 48.042C4.96871 49.9363 7.54056 51 10.2439 51H54.3014C55.8211 51 57.2678 50.4026 58.3345 49.3389C59.4013 48.2751 60.0004 46.8326 60.0004 45.3171V21.0849C60.0004 19.584 59.4013 18.1414 58.3345 17.0777C57.2532 16.014 55.8065 15.4166 54.3014 15.4311ZM9.03106 2.55H45.4753C46.3082 2.55 47.0973 2.88514 47.6818 3.48257C48.2663 4.06543 48.5878 4.86686 48.5878 5.69743V15.4457H9.03106C7.2483 15.5623 5.49477 14.9357 4.19424 13.7117C2.8937 12.4877 2.14845 10.7829 2.14845 9.00514C2.14845 7.22743 2.8937 5.52257 4.19424 4.29857C5.50939 3.06 7.2483 2.43343 9.03106 2.55ZM54.3014 48.45H10.1416C8.12507 48.45 6.19619 47.6631 4.76413 46.2497C3.33208 44.8363 2.49916 42.9274 2.46993 40.9166V15.3C4.20885 17.0486 6.57612 18.0103 9.04567 17.9811H54.3014C55.1343 17.9811 55.9234 18.3017 56.5225 18.8846C57.1217 19.4674 57.4431 20.2543 57.4578 21.0849V26.7677H47.2288C44.8323 27.1903 42.7865 28.7057 41.7052 30.8623C40.6239 33.0189 40.6092 35.5689 41.7052 37.74C42.8012 39.8966 44.8469 41.4266 47.2288 41.8346H57.4578V45.3171C57.4578 46.1477 57.1217 46.9491 56.5371 47.532C55.938 48.1149 55.1343 48.45 54.3014 48.45ZM57.4431 39.2991H47.2142C45.6799 38.964 44.3793 37.9586 43.6925 36.5451C43.0057 35.1317 43.0057 33.4851 43.6925 32.0863C44.3793 30.6729 45.6799 29.6674 47.2142 29.3323H57.4431V39.2991Z" fill="#552DCF"/>
</svg>
