<svg width="68" height="70" viewBox="0 0 68 70" fill="none" xmlns="http://www.w3.org/2000/svg">
<path d="M55.1695 37.8474L46.1526 46.7458L38.678 40.4576C37.4915 39.5085 36.0678 38.9152 34.5254 38.9152H20.5254C20.2882 38.2034 19.8136 37.4915 19.1017 37.0169C18.5085 36.5424 17.678 36.3051 16.8475 36.3051H3.91528C2.84748 36.3051 1.89831 36.661 1.18644 37.4915C0.474576 38.322 0 39.1525 0 40.2203V66.0847C0 67.1525 0.355932 68.1017 1.18644 68.8136C1.89831 69.5254 2.84748 70 3.91528 70H16.8475C17.678 70 18.3898 69.7627 19.1017 69.2881C19.6949 68.8135 20.2882 68.2203 20.5254 67.5085L42.8305 68.5763C42.9492 68.5763 43.0678 68.5763 43.3051 68.5763C45.9153 68.5763 48.2882 67.5085 50.0678 65.6102L65.7288 48.0508C67.3899 46.1525 67.9831 43.5424 67.2712 41.0508C66.5593 38.5593 64.5424 36.7797 62.0509 36.0678C59.5593 35.2373 56.9492 35.9491 55.1695 37.8474ZM16.8475 67.2712H3.91528C3.20341 67.2712 2.61018 66.678 2.61018 65.9661V40.1017C2.61018 39.3898 3.20341 38.7966 3.91528 38.7966H16.8475C17.2034 38.7966 17.5593 38.9152 17.7966 39.1525C18.0339 39.3898 18.1526 39.7458 18.1526 40.1017V65.9661C18.1526 66.322 18.0339 66.678 17.7966 66.9152C17.4407 67.1525 17.2034 67.2712 16.8475 67.2712ZM63.7119 46.1525L48.0508 63.7119C46.7458 65.1356 44.8475 65.9661 42.9492 65.8475L20.7627 64.7797V41.4068H34.5254C35.4746 41.4068 36.3051 41.7627 37.017 42.3559L45.2034 49.2373C45.678 49.7119 46.0339 50.3051 46.1526 51.0169C46.2712 51.7288 46.0339 52.322 45.5594 52.9152C45.0848 53.3898 44.4916 53.7458 43.7797 53.8644C43.0678 53.8644 42.4746 53.7458 41.8814 53.2712L39.0339 50.8983C38.4407 50.4237 37.7288 50.5424 37.2543 51.0169C36.7797 51.6102 36.8983 52.322 37.3729 52.7966L40.2204 55.1695C41.2882 56 42.5932 56.4746 44.017 56.3559C45.322 56.2373 46.6271 55.5254 47.5763 54.5763C48.2881 53.7458 48.6441 52.678 48.7627 51.6102C48.8814 50.5424 48.5254 49.4746 48.0508 48.5254L57.0678 39.6271C58.2542 38.4407 59.9153 37.9661 61.5763 38.4407C63.1187 38.7966 64.4237 40.1017 64.8983 41.6441C65.2542 43.1864 64.8983 44.8474 63.7119 46.1525Z" fill="url(#paint0_linear_28_45)"/>
<path d="M41.4067 27.1695C40.9322 27.1695 40.4576 26.9322 40.1016 26.5763C40.1016 25.8644 39.5084 25.2712 38.7965 25.2712C38.0847 25.2712 37.4915 25.8644 37.4915 26.5763C37.6101 27.2881 37.8474 27.8814 38.322 28.4746C38.7966 28.9492 39.3898 29.4237 40.1016 29.5424V29.7797C40.1016 30.4915 40.6949 31.0847 41.4067 31.0847C42.1186 31.0847 42.7118 30.4915 42.7118 29.7797V29.5424C43.8982 29.1864 44.7287 28.2373 45.0847 27.0508C45.4406 25.8644 45.2033 24.5593 44.4914 23.6102C43.7796 22.661 42.5932 22.0678 41.4067 22.0678C40.6949 22.0678 40.1016 21.4746 40.1016 20.7627C40.1016 20.0508 40.6949 19.4576 41.4067 19.4576C41.8813 19.4576 42.3559 19.6949 42.7118 20.0508C42.7118 20.7627 43.305 21.3559 44.0169 21.3559C44.7287 21.3559 45.322 20.7627 45.322 20.0508C45.2033 19.339 44.966 18.7458 44.4914 18.1525C44.0169 17.678 43.4237 17.2034 42.7118 17.0847V16.8475C42.7118 16.1356 42.1186 15.5424 41.4067 15.5424C40.6949 15.5424 40.1016 16.1356 40.1016 16.8475V17.0847C38.9152 17.4407 38.0847 18.3898 37.7288 19.5763C37.3728 20.7627 37.6101 22.0678 38.322 23.0169C39.0338 23.9661 40.2203 24.5593 41.4067 24.5593C42.1186 24.5593 42.7118 25.1525 42.7118 25.8644C42.7118 26.5763 42.1186 27.1695 41.4067 27.1695Z" fill="url(#paint1_linear_28_45)"/>
<path d="M28.8305 33.4576C30.8475 36.3051 36.5424 37.4915 41.6441 37.4915C42 37.4915 42.4746 37.4915 42.8305 37.4915C45.4407 37.3729 51.7288 36.7797 53.8644 33.339C58.6102 25.5085 52.0848 15.8983 48.5254 11.6271H50.4237C51.1356 11.6271 51.7288 11.0339 51.7288 10.322C51.7288 9.61017 51.1356 9.01695 50.4237 9.01695H49.3559C50.8983 7.83051 51.7288 5.9322 51.7288 4.0339C51.7288 3.32203 51.4915 2.61017 51.1356 2.01695C50.7796 1.42373 50.3051 0.830508 49.5932 0.474576C49 0.118644 48.4068 0 47.6949 0C46.983 0 46.3898 0.237288 45.7966 0.59322L43.1865 2.13559C42.5932 2.49153 42 2.72881 41.2881 2.72881C40.5763 2.72881 39.983 2.49153 39.3898 2.13559L36.7796 0.59322C36.1864 0.237288 35.5932 0 34.8814 0C34.1695 0 33.5763 0.118644 32.9831 0.474576C32.3898 0.830508 31.7966 1.30508 31.4407 2.01695C31.0847 2.61017 30.8474 3.32203 30.8474 4.0339C30.8474 5.9322 31.6779 7.83051 33.2203 9.01695H29.661C28.9491 9.01695 28.3559 9.61017 28.3559 10.322C28.3559 11.0339 28.9491 11.6271 29.661 11.6271H34.1695C30.8475 16.1356 23.9661 26.5763 28.8305 33.4576ZM34.4068 2.84746C34.7627 2.61017 35.2373 2.61017 35.5932 2.84746L38.2034 4.38983C39.1525 4.98305 40.339 5.33898 41.4068 5.33898C42.4746 5.33898 43.661 4.98305 44.6102 4.38983L47.2203 2.84746C47.5763 2.61017 48.0509 2.61017 48.4068 2.84746C48.8814 3.08475 49.1187 3.67797 49.1187 4.15254C49.1187 6.52542 47.5763 7.59322 44.2542 9.13559H38.4407C35.1187 7.59322 33.5763 6.52542 33.5763 4.15254C33.5763 3.55932 33.9322 3.08475 34.4068 2.84746ZM37.6102 11.7458H45.0847C47.1017 13.8814 56.2373 24.4407 51.6102 32.1525C50.661 33.6949 47.1017 34.8814 42.7118 35C37.3729 35.2373 32.2712 33.9322 30.9661 32.0339C26.4576 25.6271 35.5932 14.1186 37.6102 11.7458Z" fill="url(#paint2_linear_28_45)"/>
<defs>
<linearGradient id="paint0_linear_28_45" x1="0" y1="35.7251" x2="27.6566" y2="90.2456" gradientUnits="userSpaceOnUse">
<stop stopColor="#9E80FA"/>
<stop offset="1" stopColor="#552DCF"/>
</linearGradient>
<linearGradient id="paint1_linear_28_45" x1="37.4915" y1="15.5424" x2="49.982" y2="21.8353" gradientUnits="userSpaceOnUse">
<stop stopColor="#9E80FA"/>
<stop offset="1" stopColor="#552DCF"/>
</linearGradient>
<linearGradient id="paint2_linear_28_45" x1="27.1451" y1="0" x2="63.2316" y2="27.3238" gradientUnits="userSpaceOnUse">
<stop stopColor="#9E80FA"/>
<stop offset="1" stopColor="#552DCF"/>
</linearGradient>
</defs>
</svg>
